STARTFONT 2.1
COMMENT
COMMENT Converted from OpenType font "Vollda-Bold.otf" by "otf2bdf 3.0".
COMMENT
FONT -FreeType-Vollda-Bold-R-Normal--14-100-100-100-P-78-ISO10646-1
SIZE 10 100 100
FONTBOUNDINGBOX 44 19 -2 -4
STARTPROPERTIES 19
FOUNDRY "FreeType"
FAMILY_NAME "Vollda"
WEIGHT_NAME "Bold"
SLANT "R"
SETWIDTH_NAME "Normal"
ADD_STYLE_NAME ""
PIXEL_SIZE 14
POINT_SIZE 100
RESOLUTION_X 100
RESOLUTION_Y 100
SPACING "P"
AVERAGE_WIDTH 78
CHARSET_REGISTRY "ISO10646"
CHARSET_ENCODING "1"
FONT_ASCENT 13
FONT_DESCENT 6
COPYRIGHT "Copyright 2023 Vollda (https://github.com/alexburba/vollda)"
_OTF_FONTFILE "Vollda-Bold.otf"
_OTF_PSNAME "Vollda-Bold"
ENDPROPERTIES
CHARS 1220
STARTCHAR 0000
ENCODING 0
SWIDTH 0 0
DWIDTH 0 0
BBX 0 0 0 0
BITMAP
ENDCHAR
STARTCHAR 000D
ENCODING 13
SWIDTH 144 0
DWIDTH 2 0
BBX 0 0 0 0
BITMAP
ENDCHAR
STARTCHAR 0020
ENCODING 32
SWIDTH 144 0
DWIDTH 2 0
BBX 0 0 0 0
BITMAP
ENDCHAR
STARTCHAR 0021
ENCODING 33
SWIDTH 360 0
DWIDTH 5 0
BBX 2 10 2 0
BITMAP
C0
C0
C0
C0
C0
80
80
00
C0
C0
ENDCHAR
STARTCHAR 0022
ENCODING 34
SWIDTH 360 0
DWIDTH 5 0
BBX 3 4 1 6
BITMAP
A0
A0
A0
A0
ENDCHAR
STARTCHAR 0023
ENCODING 35
SWIDTH 576 0
DWIDTH 8 0
BBX 8 10 0 0
BITMAP
12
12
12
7F
24
24
FF
24
24
48
ENDCHAR
STARTCHAR 0024
ENCODING 36
SWIDTH 504 0
DWIDTH 7 0
BBX 6 11 1 -1
BITMAP
20
FC
EC
E0
F0
7C
3C
AC
AC
F8
20
ENDCHAR
STARTCHAR 0025
ENCODING 37
SWIDTH 792 0
DWIDTH 11 0
BBX 10 10 1 0
BITMAP
0080
7080
D900
DA00
7400
0800
1B80
16C0
26C0
4380
ENDCHAR
STARTCHAR 0026
ENCODING 38
SWIDTH 720 0
DWIDTH 10 0
BBX 9 10 1 0
BITMAP
3C00
6400
6400
7000
7300
D900
DE00
CE00
C700
7B80
ENDCHAR
STARTCHAR 0027
ENCODING 39
SWIDTH 216 0
DWIDTH 3 0
BBX 1 4 1 6
BITMAP
80
80
80
80
ENDCHAR
STARTCHAR 0028
ENCODING 40
SWIDTH 288 0
DWIDTH 4 0
BBX 4 14 0 -4
BITMAP
20
20
60
40
40
40
C0
40
40
40
60
20
20
10
ENDCHAR
STARTCHAR 0029
ENCODING 41
SWIDTH 288 0
DWIDTH 4 0
BBX 3 14 1 -4
BITMAP
80
C0
40
60
60
60
60
60
60
60
40
40
80
80
ENDCHAR
STARTCHAR 002A
ENCODING 42
SWIDTH 432 0
DWIDTH 6 0
BBX 5 5 1 6
BITMAP
20
A0
78
60
B0
ENDCHAR
STARTCHAR 002B
ENCODING 43
SWIDTH 504 0
DWIDTH 7 0
BBX 6 7 1 0
BITMAP
20
20
20
FC
20
20
20
ENDCHAR
STARTCHAR 002C
ENCODING 44
SWIDTH 288 0
DWIDTH 4 0
BBX 2 5 1 -3
BITMAP
40
C0
40
C0
80
ENDCHAR
STARTCHAR 002D
ENCODING 45
SWIDTH 360 0
DWIDTH 5 0
BBX 4 1 1 3
BITMAP
F0
ENDCHAR
STARTCHAR 002E
ENCODING 46
SWIDTH 216 0
DWIDTH 3 0
BBX 2 2 1 0
BITMAP
C0
C0
ENDCHAR
STARTCHAR 002F
ENCODING 47
SWIDTH 360 0
DWIDTH 5 0
BBX 4 10 1 0
BITMAP
10
10
20
20
40
40
40
80
80
80
ENDCHAR
STARTCHAR 0030
ENCODING 48
SWIDTH 576 0
DWIDTH 8 0
BBX 8 7 0 0
BITMAP
3C
67
43
C3
63
63
3E
ENDCHAR
STARTCHAR 0031
ENCODING 49
SWIDTH 360 0
DWIDTH 5 0
BBX 4 7 1 0
BITMAP
F0
60
60
60
60
60
F0
ENDCHAR
STARTCHAR 0032
ENCODING 50
SWIDTH 504 0
DWIDTH 7 0
BBX 6 7 1 0
BITMAP
F8
98
98
30
60
F8
FC
ENDCHAR
STARTCHAR 0033
ENCODING 51
SWIDTH 504 0
DWIDTH 7 0
BBX 6 9 1 -2
BITMAP
F8
F8
90
20
78
18
1C
18
F8
ENDCHAR
STARTCHAR 0034
ENCODING 52
SWIDTH 576 0
DWIDTH 8 0
BBX 7 9 1 -2
BITMAP
08
18
38
58
D8
FE
FE
18
18
ENDCHAR
STARTCHAR 0035
ENCODING 53
SWIDTH 432 0
DWIDTH 6 0
BBX 5 10 1 -2
BITMAP
08
78
F8
80
E0
F8
18
18
18
F0
ENDCHAR
STARTCHAR 0036
ENCODING 54
SWIDTH 504 0
DWIDTH 7 0
BBX 7 9 0 0
BITMAP
0C
30
60
60
7E
E6
66
66
3C
ENDCHAR
STARTCHAR 0037
ENCODING 55
SWIDTH 432 0
DWIDTH 6 0
BBX 6 9 0 -2
BITMAP
7C
7C
C8
08
10
30
30
30
30
ENDCHAR
STARTCHAR 0038
ENCODING 56
SWIDTH 504 0
DWIDTH 7 0
BBX 6 9 1 0
BITMAP
78
CC
CC
F8
78
DC
CC
CC
F8
ENDCHAR
STARTCHAR 0039
ENCODING 57
SWIDTH 504 0
DWIDTH 7 0
BBX 6 9 1 -2
BITMAP
78
CC
8C
CC
CC
7C
18
38
E0
ENDCHAR
STARTCHAR 003A
ENCODING 58
SWIDTH 216 0
DWIDTH 3 0
BBX 2 6 1 0
BITMAP
C0
C0
00
00
C0
C0
ENDCHAR
STARTCHAR 003B
ENCODING 59
SWIDTH 288 0
DWIDTH 4 0
BBX 2 9 1 -3
BITMAP
C0
C0
00
00
40
C0
40
40
80
ENDCHAR
STARTCHAR 003C
ENCODING 60
SWIDTH 504 0
DWIDTH 7 0
BBX 6 6 1 0
BITMAP
0C
30
40
80
60
18
ENDCHAR
STARTCHAR 003D
ENCODING 61
SWIDTH 504 0
DWIDTH 7 0
BBX 6 3 1 2
BITMAP
FC
00
FC
ENDCHAR
STARTCHAR 003E
ENCODING 62
SWIDTH 504 0
DWIDTH 7 0
BBX 6 7 1 0
BITMAP
C0
60
18
04
18
60
80
ENDCHAR
STARTCHAR 003F
ENCODING 63
SWIDTH 504 0
DWIDTH 7 0
BBX 5 10 2 0
BITMAP
F0
B8
B0
30
60
40
40
00
60
60
ENDCHAR
STARTCHAR 0040
ENCODING 64
SWIDTH 936 0
DWIDTH 13 0
BBX 11 12 1 -3
BITMAP
1F80
2060
4020
4FA0
59A0
D9A0
D9A0
5BA0
5DC0
6020
3040
0F80
ENDCHAR
STARTCHAR 0041
ENCODING 65
SWIDTH 648 0
DWIDTH 9 0
BBX 10 9 0 0
BITMAP
0C00
0C00
1E00
1600
2600
2300
3F00
4380
E3C0
ENDCHAR
STARTCHAR 0042
ENCODING 66
SWIDTH 648 0
DWIDTH 9 0
BBX 8 9 1 0
BITMAP
FE
66
66
6C
7E
67
67
66
FC
ENDCHAR
STARTCHAR 0043
ENCODING 67
SWIDTH 576 0
DWIDTH 8 0
BBX 8 9 0 1
BITMAP
3B
61
60
60
E0
60
60
30
1F
ENDCHAR
STARTCHAR 0044
ENCODING 68
SWIDTH 720 0
DWIDTH 10 0
BBX 9 9 1 0
BITMAP
FE00
6300
6380
6180
6180
6380
6300
6300
FC00
ENDCHAR
STARTCHAR 0045
ENCODING 69
SWIDTH 576 0
DWIDTH 8 0
BBX 7 9 1 0
BITMAP
FE
62
60
68
78
68
62
62
FE
ENDCHAR
STARTCHAR 0046
ENCODING 70
SWIDTH 576 0
DWIDTH 8 0
BBX 7 9 1 0
BITMAP
FE
62
60
64
7C
64
60
60
F0
ENDCHAR
STARTCHAR 0047
ENCODING 71
SWIDTH 648 0
DWIDTH 9 0
BBX 9 10 0 0
BITMAP
0400
3B80
6180
6000
6000
E380
6180
6180
3180
1F00
ENDCHAR
STARTCHAR 0048
ENCODING 72
SWIDTH 720 0
DWIDTH 10 0
BBX 9 9 1 0
BITMAP
E380
6300
6300
6300
7F00
6300
6300
6300
F780
ENDCHAR
STARTCHAR 0049
ENCODING 73
SWIDTH 360 0
DWIDTH 5 0
BBX 4 9 1 0
BITMAP
E0
60
60
60
60
60
60
60
F0
ENDCHAR
STARTCHAR 004A
ENCODING 74
SWIDTH 360 0
DWIDTH 5 0
BBX 4 12 0 -3
BITMAP
70
70
70
70
70
70
70
70
60
60
60
C0
ENDCHAR
STARTCHAR 004B
ENCODING 75
SWIDTH 720 0
DWIDTH 10 0
BBX 9 9 1 0
BITMAP
E700
6400
6800
7000
7800
7C00
6E00
6600
F380
ENDCHAR
STARTCHAR 004C
ENCODING 76
SWIDTH 576 0
DWIDTH 8 0
BBX 7 9 1 0
BITMAP
E0
60
60
60
60
60
62
62
FE
ENDCHAR
STARTCHAR 004D
ENCODING 77
SWIDTH 936 0
DWIDTH 13 0
BBX 13 9 0 0
BITMAP
7070
3870
38F0
3CB0
2CB0
4F30
4730
4630
E278
ENDCHAR
STARTCHAR 004E
ENCODING 78
SWIDTH 720 0
DWIDTH 10 0
BBX 8 9 1 0
BITMAP
E3
71
71
79
5D
4F
47
C7
E3
ENDCHAR
STARTCHAR 004F
ENCODING 79
SWIDTH 720 0
DWIDTH 10 0
BBX 10 10 0 0
BITMAP
0400
3B00
6180
61C0
60C0
E0C0
60C0
6180
3180
1F00
ENDCHAR
STARTCHAR 0050
ENCODING 80
SWIDTH 576 0
DWIDTH 8 0
BBX 7 9 1 0
BITMAP
FE
66
66
66
66
78
60
60
F0
ENDCHAR
STARTCHAR 0051
ENCODING 81
SWIDTH 720 0
DWIDTH 10 0
BBX 11 13 0 -3
BITMAP
0400
3B00
6180
61C0
60C0
E0C0
60C0
6180
3180
1F00
0300
01E0
0080
ENDCHAR
STARTCHAR 0052
ENCODING 82
SWIDTH 648 0
DWIDTH 9 0
BBX 8 9 1 0
BITMAP
FE
66
66
66
7C
6C
6E
66
F7
ENDCHAR
STARTCHAR 0053
ENCODING 83
SWIDTH 504 0
DWIDTH 7 0
BBX 6 9 1 1
BITMAP
FC
CC
C0
F0
7C
1C
8C
8C
F8
ENDCHAR
STARTCHAR 0054
ENCODING 84
SWIDTH 648 0
DWIDTH 9 0
BBX 9 9 0 0
BITMAP
7F80
CC80
0C00
0C00
0C00
0C00
0C00
1C00
3E00
ENDCHAR
STARTCHAR 0055
ENCODING 85
SWIDTH 648 0
DWIDTH 9 0
BBX 8 9 1 0
BITMAP
E3
C2
C2
C2
C2
C2
E2
62
7C
ENDCHAR
STARTCHAR 0056
ENCODING 86
SWIDTH 648 0
DWIDTH 9 0
BBX 8 9 1 0
BITMAP
E3
E2
62
62
34
34
38
18
18
ENDCHAR
STARTCHAR 0057
ENCODING 87
SWIDTH 936 0
DWIDTH 13 0
BBX 12 9 1 1
BITMAP
E230
C710
6720
6720
69A0
79C0
39C0
30C0
3080
ENDCHAR
STARTCHAR 0058
ENCODING 88
SWIDTH 648 0
DWIDTH 9 0
BBX 9 9 0 0
BITMAP
7180
3100
1A00
1C00
0C00
1E00
3700
2300
F780
ENDCHAR
STARTCHAR 0059
ENCODING 89
SWIDTH 576 0
DWIDTH 8 0
BBX 7 9 1 0
BITMAP
E6
E4
64
78
38
30
30
38
7C
ENDCHAR
STARTCHAR 005A
ENCODING 90
SWIDTH 576 0
DWIDTH 8 0
BBX 7 9 1 0
BITMAP
FC
8C
18
38
30
70
60
E6
FE
ENDCHAR
STARTCHAR 005B
ENCODING 91
SWIDTH 288 0
DWIDTH 4 0
BBX 3 14 0 -4
BITMAP
E0
C0
C0
C0
C0
C0
C0
C0
C0
C0
C0
C0
C0
E0
ENDCHAR
STARTCHAR 005C
ENCODING 92
SWIDTH 360 0
DWIDTH 5 0
BBX 4 10 1 0
BITMAP
80
80
80
40
40
40
20
20
20
10
ENDCHAR
STARTCHAR 005D
ENCODING 93
SWIDTH 288 0
DWIDTH 4 0
BBX 3 14 1 -4
BITMAP
E0
60
60
60
60
60
60
60
60
60
60
60
60
E0
ENDCHAR
STARTCHAR 005E
ENCODING 94
SWIDTH 504 0
DWIDTH 7 0
BBX 6 5 1 5
BITMAP
20
70
48
88
04
ENDCHAR
STARTCHAR 005F
ENCODING 95
SWIDTH 504 0
DWIDTH 7 0
BBX 7 1 0 -2
BITMAP
FE
ENDCHAR
STARTCHAR 0060
ENCODING 96
SWIDTH 288 0
DWIDTH 4 0
BBX 2 3 1 7
BITMAP
C0
40
40
ENDCHAR
STARTCHAR 0061
ENCODING 97
SWIDTH 504 0
DWIDTH 7 0
BBX 7 6 0 1
BITMAP
7C
CC
1C
6C
CC
7E
ENDCHAR
STARTCHAR 0062
ENCODING 98
SWIDTH 576 0
DWIDTH 8 0
BBX 8 10 0 0
BITMAP
E0
60
60
60
7E
63
63
63
66
7C
ENDCHAR
STARTCHAR 0063
ENCODING 99
SWIDTH 432 0
DWIDTH 6 0
BBX 6 6 0 0
BITMAP
7C
64
C0
60
60
3C
ENDCHAR
STARTCHAR 0064
ENCODING 100
SWIDTH 576 0
DWIDTH 8 0
BBX 8 10 0 0
BITMAP
0E
06
06
06
3E
66
66
E6
66
7F
ENDCHAR
STARTCHAR 0065
ENCODING 101
SWIDTH 504 0
DWIDTH 7 0
BBX 7 6 0 0
BITMAP
7C
64
FE
60
60
3C
ENDCHAR
STARTCHAR 0066
ENCODING 102
SWIDTH 360 0
DWIDTH 5 0
BBX 6 10 0 0
BITMAP
1C
34
20
20
F8
20
20
20
70
78
ENDCHAR
STARTCHAR 0067
ENCODING 103
SWIDTH 504 0
DWIDTH 7 0
BBX 7 9 0 -3
BITMAP
7E
66
64
7C
40
7E
7E
C6
7C
ENDCHAR
STARTCHAR 0068
ENCODING 104
SWIDTH 648 0
DWIDTH 9 0
BBX 9 10 0 0
BITMAP
6000
6000
6000
6000
7E00
6300
6300
6300
6300
F780
ENDCHAR
STARTCHAR 0069
ENCODING 105
SWIDTH 288 0
DWIDTH 4 0
BBX 4 10 0 0
BITMAP
20
70
00
00
E0
60
60
60
70
70
ENDCHAR
STARTCHAR 006A
ENCODING 106
SWIDTH 288 0
DWIDTH 4 0
BBX 4 13 0 -3
BITMAP
20
70
00
00
E0
60
60
60
60
60
60
60
C0
ENDCHAR
STARTCHAR 006B
ENCODING 107
SWIDTH 576 0
DWIDTH 8 0
BBX 8 10 0 0
BITMAP
60
60
60
60
67
64
6C
6C
66
F3
ENDCHAR
STARTCHAR 006C
ENCODING 108
SWIDTH 288 0
DWIDTH 4 0
BBX 4 10 0 0
BITMAP
60
60
60
60
60
60
60
60
60
F0
ENDCHAR
STARTCHAR 006D
ENCODING 109
SWIDTH 936 0
DWIDTH 13 0
BBX 13 6 0 0
BITMAP
EFF0
7330
6330
6330
6330
77F8
ENDCHAR
STARTCHAR 006E
ENCODING 110
SWIDTH 648 0
DWIDTH 9 0
BBX 9 6 0 0
BITMAP
EF00
7300
6300
6300
7300
7780
ENDCHAR
STARTCHAR 006F
ENCODING 111
SWIDTH 504 0
DWIDTH 7 0
BBX 6 6 1 0
BITMAP
FC
CC
CC
CC
CC
78
ENDCHAR
STARTCHAR 0070
ENCODING 112
SWIDTH 576 0
DWIDTH 8 0
BBX 8 9 0 -3
BITMAP
EF
73
63
63
63
7E
60
70
70
ENDCHAR
STARTCHAR 0071
ENCODING 113
SWIDTH 576 0
DWIDTH 8 0
BBX 7 9 1 -3
BITMAP
7E
CC
CC
CC
CC
FC
0C
0C
1E
ENDCHAR
STARTCHAR 0072
ENCODING 114
SWIDTH 432 0
DWIDTH 6 0
BBX 6 6 0 0
BITMAP
EC
74
60
60
70
F8
ENDCHAR
STARTCHAR 0073
ENCODING 115
SWIDTH 432 0
DWIDTH 6 0
BBX 5 6 1 0
BITMAP
F0
D0
F0
38
98
F0
ENDCHAR
STARTCHAR 0074
ENCODING 116
SWIDTH 360 0
DWIDTH 5 0
BBX 5 8 0 1
BITMAP
60
60
F8
60
60
60
60
38
ENDCHAR
STARTCHAR 0075
ENCODING 117
SWIDTH 576 0
DWIDTH 8 0
BBX 8 6 0 0
BITMAP
EE
66
66
66
66
3F
ENDCHAR
STARTCHAR 0076
ENCODING 118
SWIDTH 504 0
DWIDTH 7 0
BBX 7 6 0 0
BITMAP
F6
64
34
34
18
18
ENDCHAR
STARTCHAR 0077
ENCODING 119
SWIDTH 720 0
DWIDTH 10 0
BBX 10 6 0 0
BITMAP
E640
6640
3B80
3B80
3B80
1100
ENDCHAR
STARTCHAR 0078
ENCODING 120
SWIDTH 504 0
DWIDTH 7 0
BBX 7 6 0 0
BITMAP
76
34
18
3C
2C
EE
ENDCHAR
STARTCHAR 0079
ENCODING 121
SWIDTH 504 0
DWIDTH 7 0
BBX 7 9 0 -3
BITMAP
F6
62
34
34
18
18
10
10
60
ENDCHAR
STARTCHAR 007A
ENCODING 122
SWIDTH 504 0
DWIDTH 7 0
BBX 6 6 1 0
BITMAP
F8
B8
30
60
EC
FC
ENDCHAR
STARTCHAR 007B
ENCODING 123
SWIDTH 360 0
DWIDTH 5 0
BBX 4 14 1 -4
BITMAP
60
40
40
60
60
60
80
C0
60
60
40
40
60
30
ENDCHAR
STARTCHAR 007C
ENCODING 124
SWIDTH 144 0
DWIDTH 2 0
BBX 1 13 1 -3
BITMAP
80
80
80
80
80
80
80
80
80
80
80
80
80
ENDCHAR
STARTCHAR 007D
ENCODING 125
SWIDTH 360 0
DWIDTH 5 0
BBX 4 14 1 -4
BITMAP
C0
40
40
40
40
60
30
60
40
40
40
40
40
80
ENDCHAR
STARTCHAR 007E
ENCODING 126
SWIDTH 504 0
DWIDTH 7 0
BBX 6 2 1 2
BITMAP
40
FC
ENDCHAR
STARTCHAR 00A0
ENCODING 160
SWIDTH 144 0
DWIDTH 2 0
BBX 0 0 0 0
BITMAP
ENDCHAR
STARTCHAR 00A1
ENCODING 161
SWIDTH 360 0
DWIDTH 5 0
BBX 2 9 2 -4
BITMAP
C0
80
00
80
80
C0
C0
C0
C0
ENDCHAR
STARTCHAR 00A2
ENCODING 162
SWIDTH 432 0
DWIDTH 6 0
BBX 6 10 0 -2
BITMAP
10
10
7C
74
D0
70
70
3C
10
10
ENDCHAR
STARTCHAR 00A3
ENCODING 163
SWIDTH 576 0
DWIDTH 8 0
BBX 6 10 1 0
BITMAP
10
6C
CC
C0
E0
F8
60
40
7C
9C
ENDCHAR
STARTCHAR 00A4
ENCODING 164
SWIDTH 504 0
DWIDTH 7 0
BBX 5 5 1 1
BITMAP
F8
88
88
48
F8
ENDCHAR
STARTCHAR 00A5
ENCODING 165
SWIDTH 576 0
DWIDTH 8 0
BBX 7 9 1 0
BITMAP
E6
E4
64
78
FC
FE
30
38
7C
ENDCHAR
STARTCHAR 00A6
ENCODING 166
SWIDTH 144 0
DWIDTH 2 0
BBX 1 13 1 -3
BITMAP
80
80
80
80
80
80
00
00
80
80
80
80
80
ENDCHAR
STARTCHAR 00A7
ENCODING 167
SWIDTH 504 0
DWIDTH 7 0
BBX 6 13 1 -3
BITMAP
78
C8
C0
70
78
9C
8C
CC
F8
78
18
48
78
ENDCHAR
STARTCHAR 00A8
ENCODING 168
SWIDTH 288 0
DWIDTH 4 0
BBX 6 2 -1 7
BITMAP
EC
48
ENDCHAR
STARTCHAR 00A9
ENCODING 169
SWIDTH 792 0
DWIDTH 11 0
BBX 9 10 1 -2
BITMAP
1E00
6100
9E80
B280
B080
B080
B280
5C80
2300
1C00
ENDCHAR
STARTCHAR 00AA
ENCODING 170
SWIDTH 432 0
DWIDTH 6 0
BBX 4 5 1 5
BITMAP
E0
B0
F0
B0
F0
ENDCHAR
STARTCHAR 00AB
ENCODING 171
SWIDTH 504 0
DWIDTH 7 0
BBX 5 5 1 1
BITMAP
28
58
90
58
68
ENDCHAR
STARTCHAR 00AC
ENCODING 172
SWIDTH 504 0
DWIDTH 7 0
BBX 6 3 1 2
BITMAP
FC
04
04
ENDCHAR
STARTCHAR 00AD
ENCODING 173
SWIDTH 360 0
DWIDTH 5 0
BBX 4 1 1 3
BITMAP
F0
ENDCHAR
STARTCHAR 00AE
ENCODING 174
SWIDTH 504 0
DWIDTH 7 0
BBX 6 6 1 5
BITMAP
70
A8
D4
F4
88
70
ENDCHAR
STARTCHAR 00AF
ENCODING 175
SWIDTH 288 0
DWIDTH 4 0
BBX 5 1 0 8
BITMAP
F8
ENDCHAR
STARTCHAR 00B0
ENCODING 176
SWIDTH 360 0
DWIDTH 5 0
BBX 4 4 1 6
BITMAP
60
B0
90
E0
ENDCHAR
STARTCHAR 00B1
ENCODING 177
SWIDTH 504 0
DWIDTH 7 0
BBX 5 6 1 1
BITMAP
20
20
F8
20
20
F8
ENDCHAR
STARTCHAR 00B2
ENCODING 178
SWIDTH 360 0
DWIDTH 5 0
BBX 4 5 1 6
BITMAP
E0
A0
20
50
F0
ENDCHAR
STARTCHAR 00B3
ENCODING 179
SWIDTH 360 0
DWIDTH 5 0
BBX 4 7 1 4
BITMAP
E0
E0
40
60
30
30
E0
ENDCHAR
STARTCHAR 00B4
ENCODING 180
SWIDTH 288 0
DWIDTH 4 0
BBX 2 3 1 7
BITMAP
C0
80
80
ENDCHAR
STARTCHAR 00B5
ENCODING 181
SWIDTH 576 0
DWIDTH 8 0
BBX 8 9 0 -3
BITMAP
E7
63
63
63
67
7B
60
60
60
ENDCHAR
STARTCHAR 00B6
ENCODING 182
SWIDTH 576 0
DWIDTH 8 0
BBX 6 12 1 -3
BITMAP
FC
D4
D4
D4
74
14
14
14
14
14
14
14
ENDCHAR
STARTCHAR 00B7
ENCODING 183
SWIDTH 216 0
DWIDTH 3 0
BBX 2 2 1 3
BITMAP
C0
C0
ENDCHAR
STARTCHAR 00B8
ENCODING 184
SWIDTH 288 0
DWIDTH 4 0
BBX 2 3 1 -3
BITMAP
80
C0
C0
ENDCHAR
STARTCHAR 00B9
ENCODING 185
SWIDTH 288 0
DWIDTH 4 0
BBX 3 5 1 6
BITMAP
E0
C0
40
40
E0
ENDCHAR
STARTCHAR 00BA
ENCODING 186
SWIDTH 432 0
DWIDTH 6 0
BBX 6 5 0 5
BITMAP
78
48
CC
48
78
ENDCHAR
STARTCHAR 00BB
ENCODING 187
SWIDTH 504 0
DWIDTH 7 0
BBX 5 5 1 1
BITMAP
A0
D8
48
D8
90
ENDCHAR
STARTCHAR 00BC
ENCODING 188
SWIDTH 864 0
DWIDTH 12 0
BBX 11 10 1 0
BITMAP
E080
6080
6100
6200
66C0
F5C0
0AC0
13E0
30C0
21C0
ENDCHAR
STARTCHAR 00BD
ENCODING 189
SWIDTH 936 0
DWIDTH 13 0
BBX 12 10 1 0
BITMAP
E080
6080
6100
6200
66F0
F4B0
0830
1040
30F0
21F0
ENDCHAR
STARTCHAR 00BE
ENCODING 190
SWIDTH 792 0
DWIDTH 11 0
BBX 11 10 0 0
BITMAP
7840
50C0
2080
3900
1A40
F6C0
0540
0BE0
1040
30E0
ENDCHAR
STARTCHAR 00BF
ENCODING 191
SWIDTH 504 0
DWIDTH 7 0
BBX 5 10 1 -4
BITMAP
70
20
00
20
30
60
C0
C8
D8
20
ENDCHAR
STARTCHAR 00C0
ENCODING 192
SWIDTH 648 0
DWIDTH 9 0
BBX 10 12 0 0
BITMAP
1800
0800
0000
0C00
0C00
1E00
1600
2600
2300
3F00
4380
E3C0
ENDCHAR
STARTCHAR 00C1
ENCODING 193
SWIDTH 648 0
DWIDTH 9 0
BBX 10 12 0 0
BITMAP
0400
0800
0000
0C00
0C00
1E00
1600
2600
2300
3F00
4380
E3C0
ENDCHAR
STARTCHAR 00C2
ENCODING 194
SWIDTH 648 0
DWIDTH 9 0
BBX 10 12 0 0
BITMAP
0C00
3200
0000
0C00
0C00
1E00
1600
2600
2300
3F00
4380
E3C0
ENDCHAR
STARTCHAR 00C3
ENCODING 195
SWIDTH 648 0
DWIDTH 9 0
BBX 10 12 0 0
BITMAP
1E00
2400
0000
0C00
0C00
1E00
1600
2600
2300
3F00
4380
E3C0
ENDCHAR
STARTCHAR 00C4
ENCODING 196
SWIDTH 648 0
DWIDTH 9 0
BBX 10 12 0 0
BITMAP
3600
3600
0000
0C00
0C00
1E00
1600
2600
2300
3F00
4380
E3C0
ENDCHAR
STARTCHAR 00C5
ENCODING 197
SWIDTH 648 0
DWIDTH 9 0
BBX 10 12 0 0
BITMAP
1C00
1C00
0000
0C00
0C00
1E00
1600
2600
2300
3F00
4380
E3C0
ENDCHAR
STARTCHAR 00C6
ENCODING 198
SWIDTH 936 0
DWIDTH 13 0
BBX 13 9 0 0
BITMAP
07F0
0710
0B00
0B20
1FE0
1320
2300
6398
E7F8
ENDCHAR
STARTCHAR 00C7
ENCODING 199
SWIDTH 576 0
DWIDTH 8 0
BBX 8 12 0 -2
BITMAP
3B
61
60
60
E0
60
60
30
1F
08
0C
0C
ENDCHAR
STARTCHAR 00C8
ENCODING 200
SWIDTH 576 0
DWIDTH 8 0
BBX 7 12 1 0
BITMAP
20
10
00
FE
62
60
68
78
68
62
62
FE
ENDCHAR
STARTCHAR 00C9
ENCODING 201
SWIDTH 576 0
DWIDTH 8 0
BBX 7 12 1 0
BITMAP
18
10
00
FE
62
60
68
78
68
62
62
FE
ENDCHAR
STARTCHAR 00CA
ENCODING 202
SWIDTH 576 0
DWIDTH 8 0
BBX 7 12 1 0
BITMAP
38
48
00
FE
62
60
68
78
68
62
62
FE
ENDCHAR
STARTCHAR 00CB
ENCODING 203
SWIDTH 576 0
DWIDTH 8 0
BBX 7 12 1 0
BITMAP
6C
6C
00
FE
62
60
68
78
68
62
62
FE
ENDCHAR
STARTCHAR 00CC
ENCODING 204
SWIDTH 360 0
DWIDTH 5 0
BBX 4 12 1 0
BITMAP
C0
40
00
E0
60
60
60
60
60
60
60
F0
ENDCHAR
STARTCHAR 00CD
ENCODING 205
SWIDTH 360 0
DWIDTH 5 0
BBX 4 12 1 0
BITMAP
60
40
00
E0
60
60
60
60
60
60
60
F0
ENDCHAR
STARTCHAR 00CE
ENCODING 206
SWIDTH 360 0
DWIDTH 5 0
BBX 4 12 1 0
BITMAP
60
B0
00
E0
60
60
60
60
60
60
60
F0
ENDCHAR
STARTCHAR 00CF
ENCODING 207
SWIDTH 360 0
DWIDTH 5 0
BBX 5 12 0 0
BITMAP
D8
D8
00
70
30
30
30
30
30
30
30
78
ENDCHAR
STARTCHAR 00D0
ENCODING 208
SWIDTH 720 0
DWIDTH 10 0
BBX 10 9 0 0
BITMAP
7F00
3180
31C0
30C0
F8C0
31C0
3180
3180
7E00
ENDCHAR
STARTCHAR 00D1
ENCODING 209
SWIDTH 720 0
DWIDTH 10 0
BBX 8 12 1 0
BITMAP
3E
0C
00
E3
71
71
79
5D
4F
47
C7
E3
ENDCHAR
STARTCHAR 00D2
ENCODING 210
SWIDTH 720 0
DWIDTH 10 0
BBX 10 12 0 0
BITMAP
0800
0400
0400
3B00
6180
61C0
60C0
E0C0
60C0
6180
3180
1F00
ENDCHAR
STARTCHAR 00D3
ENCODING 211
SWIDTH 720 0
DWIDTH 10 0
BBX 10 12 0 0
BITMAP
0600
0400
0400
3B00
6180
61C0
60C0
E0C0
60C0
6180
3180
1F00
ENDCHAR
STARTCHAR 00D4
ENCODING 212
SWIDTH 720 0
DWIDTH 10 0
BBX 10 12 0 0
BITMAP
0E00
1200
0400
3B00
6180
61C0
60C0
E0C0
60C0
6180
3180
1F00
ENDCHAR
STARTCHAR 00D5
ENCODING 213
SWIDTH 720 0
DWIDTH 10 0
BBX 10 12 0 0
BITMAP
1F00
0600
0400
3B00
6180
61C0
60C0
E0C0
60C0
6180
3180
1F00
ENDCHAR
STARTCHAR 00D6
ENCODING 214
SWIDTH 720 0
DWIDTH 10 0
BBX 10 12 0 0
BITMAP
1B00
1B00
0400
3B00
6180
61C0
60C0
E0C0
60C0
6180
3180
1F00
ENDCHAR
STARTCHAR 00D7
ENCODING 215
SWIDTH 504 0
DWIDTH 7 0
BBX 6 7 1 0
BITMAP
84
C8
70
30
50
C8
84
ENDCHAR
STARTCHAR 00D8
ENCODING 216
SWIDTH 720 0
DWIDTH 10 0
BBX 10 10 0 0
BITMAP
00C0
3B80
6180
63C0
64C0
ECC0
68C0
7180
3180
7F00
ENDCHAR
STARTCHAR 00D9
ENCODING 217
SWIDTH 648 0
DWIDTH 9 0
BBX 8 12 1 0
BITMAP
10
08
00
E3
C2
C2
C2
C2
C2
E2
62
7C
ENDCHAR
STARTCHAR 00DA
ENCODING 218
SWIDTH 648 0
DWIDTH 9 0
BBX 8 12 1 0
BITMAP
0C
08
00
E3
C2
C2
C2
C2
C2
E2
62
7C
ENDCHAR
STARTCHAR 00DB
ENCODING 219
SWIDTH 648 0
DWIDTH 9 0
BBX 8 12 1 0
BITMAP
1C
26
00
E3
C2
C2
C2
C2
C2
E2
62
7C
ENDCHAR
STARTCHAR 00DC
ENCODING 220
SWIDTH 648 0
DWIDTH 9 0
BBX 8 12 1 0
BITMAP
36
36
00
E3
C2
C2
C2
C2
C2
E2
62
7C
ENDCHAR
STARTCHAR 00DD
ENCODING 221
SWIDTH 576 0
DWIDTH 8 0
BBX 7 12 1 0
BITMAP
08
18
00
E6
E4
64
78
38
30
30
38
7C
ENDCHAR
STARTCHAR 00DE
ENCODING 222
SWIDTH 576 0
DWIDTH 8 0
BBX 7 9 1 0
BITMAP
E0
78
6E
66
66
66
7C
60
F0
ENDCHAR
STARTCHAR 00DF
ENCODING 223
SWIDTH 648 0
DWIDTH 9 0
BBX 9 10 0 0
BITMAP
1E00
3300
3300
3600
FC00
3E00
3780
3180
7980
7F00
ENDCHAR
STARTCHAR 00E0
ENCODING 224
SWIDTH 504 0
DWIDTH 7 0
BBX 6 10 1 0
BITMAP
40
20
20
00
78
D8
18
F8
DC
EC
ENDCHAR
STARTCHAR 00E1
ENCODING 225
SWIDTH 504 0
DWIDTH 7 0
BBX 6 10 1 0
BITMAP
10
30
20
00
78
D8
18
F8
DC
EC
ENDCHAR
STARTCHAR 00E2
ENCODING 226
SWIDTH 504 0
DWIDTH 7 0
BBX 6 10 1 0
BITMAP
30
70
88
00
78
D8
18
F8
DC
EC
ENDCHAR
STARTCHAR 00E3
ENCODING 227
SWIDTH 504 0
DWIDTH 7 0
BBX 6 9 1 0
BITMAP
F8
00
00
78
D8
18
F8
DC
EC
ENDCHAR
STARTCHAR 00E4
ENCODING 228
SWIDTH 504 0
DWIDTH 7 0
BBX 6 9 1 0
BITMAP
D8
D8
00
78
D8
18
F8
DC
EC
ENDCHAR
STARTCHAR 00E5
ENCODING 229
SWIDTH 504 0
DWIDTH 7 0
BBX 6 10 1 0
BITMAP
70
50
70
00
78
D8
18
F8
DC
EC
ENDCHAR
STARTCHAR 00E6
ENCODING 230
SWIDTH 720 0
DWIDTH 10 0
BBX 9 6 1 0
BITMAP
FF00
9900
7F80
D800
9800
EF00
ENDCHAR
STARTCHAR 00E7
ENCODING 231
SWIDTH 432 0
DWIDTH 6 0
BBX 6 9 0 -3
BITMAP
7C
64
C0
60
60
3C
10
18
18
ENDCHAR
STARTCHAR 00E8
ENCODING 232
SWIDTH 504 0
DWIDTH 7 0
BBX 7 10 0 0
BITMAP
30
10
10
00
7C
64
FE
60
60
3C
ENDCHAR
STARTCHAR 00E9
ENCODING 233
SWIDTH 504 0
DWIDTH 7 0
BBX 7 10 0 0
BITMAP
08
08
10
00
7C
64
FE
60
60
3C
ENDCHAR
STARTCHAR 00EA
ENCODING 234
SWIDTH 504 0
DWIDTH 7 0
BBX 7 10 0 0
BITMAP
18
3C
44
00
7C
64
FE
60
60
3C
ENDCHAR
STARTCHAR 00EB
ENCODING 235
SWIDTH 504 0
DWIDTH 7 0
BBX 7 9 0 0
BITMAP
6C
6C
00
7C
64
FE
60
60
3C
ENDCHAR
STARTCHAR 00EC
ENCODING 236
SWIDTH 288 0
DWIDTH 4 0
BBX 4 10 0 0
BITMAP
C0
60
20
00
E0
60
60
60
70
70
ENDCHAR
STARTCHAR 00ED
ENCODING 237
SWIDTH 288 0
DWIDTH 4 0
BBX 4 10 0 0
BITMAP
10
20
20
00
E0
60
60
60
70
70
ENDCHAR
STARTCHAR 00EE
ENCODING 238
SWIDTH 288 0
DWIDTH 4 0
BBX 4 10 0 0
BITMAP
20
70
90
00
E0
60
60
60
70
70
ENDCHAR
STARTCHAR 00EF
ENCODING 239
SWIDTH 288 0
DWIDTH 4 0
BBX 5 9 0 0
BITMAP
D8
D8
00
E0
60
60
60
70
70
ENDCHAR
STARTCHAR 00F0
ENCODING 240
SWIDTH 504 0
DWIDTH 7 0
BBX 6 10 1 0
BITMAP
60
3C
78
0C
FC
CC
CC
CC
CC
78
ENDCHAR
STARTCHAR 00F1
ENCODING 241
SWIDTH 648 0
DWIDTH 9 0
BBX 9 9 0 0
BITMAP
3E00
0000
0000
EF00
7300
6300
6300
7300
7780
ENDCHAR
STARTCHAR 00F2
ENCODING 242
SWIDTH 504 0
DWIDTH 7 0
BBX 6 10 1 0
BITMAP
60
20
10
00
FC
CC
CC
CC
CC
78
ENDCHAR
STARTCHAR 00F3
ENCODING 243
SWIDTH 504 0
DWIDTH 7 0
BBX 6 10 1 0
BITMAP
18
10
20
00
FC
CC
CC
CC
CC
78
ENDCHAR
STARTCHAR 00F4
ENCODING 244
SWIDTH 504 0
DWIDTH 7 0
BBX 6 10 1 0
BITMAP
30
78
08
00
FC
CC
CC
CC
CC
78
ENDCHAR
STARTCHAR 00F5
ENCODING 245
SWIDTH 504 0
DWIDTH 7 0
BBX 6 9 1 0
BITMAP
F8
00
00
FC
CC
CC
CC
CC
78
ENDCHAR
STARTCHAR 00F6
ENCODING 246
SWIDTH 504 0
DWIDTH 7 0
BBX 6 9 1 0
BITMAP
DC
48
00
FC
CC
CC
CC
CC
78
ENDCHAR
STARTCHAR 00F7
ENCODING 247
SWIDTH 504 0
DWIDTH 7 0
BBX 6 7 1 0
BITMAP
30
30
00
FC
00
30
20
ENDCHAR
STARTCHAR 00F8
ENCODING 248
SWIDTH 504 0
DWIDTH 7 0
BBX 7 7 1 0
BITMAP
06
FC
DC
DC
EC
CC
F8
ENDCHAR
STARTCHAR 00F9
ENCODING 249
SWIDTH 576 0
DWIDTH 8 0
BBX 8 10 0 0
BITMAP
30
10
08
00
EE
66
66
66
66
3F
ENDCHAR
STARTCHAR 00FA
ENCODING 250
SWIDTH 576 0
DWIDTH 8 0
BBX 8 10 0 0
BITMAP
0C
08
08
00
EE
66
66
66
66
3F
ENDCHAR
STARTCHAR 00FB
ENCODING 251
SWIDTH 576 0
DWIDTH 8 0
BBX 8 10 0 0
BITMAP
08
1C
22
00
EE
66
66
66
66
3F
ENDCHAR
STARTCHAR 00FC
ENCODING 252
SWIDTH 576 0
DWIDTH 8 0
BBX 8 9 0 0
BITMAP
36
26
00
EE
66
66
66
66
3F
ENDCHAR
STARTCHAR 00FD
ENCODING 253
SWIDTH 504 0
DWIDTH 7 0
BBX 7 13 0 -3
BITMAP
04
0C
08
00
F6
62
34
34
18
18
10
10
60
ENDCHAR
STARTCHAR 00FE
ENCODING 254
SWIDTH 576 0
DWIDTH 8 0
BBX 7 13 1 -3
BITMAP
C0
C0
C0
C0
FE
E6
C6
C6
C6
FC
C0
C0
E0
ENDCHAR
STARTCHAR 00FF
ENCODING 255
SWIDTH 504 0
DWIDTH 7 0
BBX 7 12 0 -3
BITMAP
36
36
00
F6
62
34
34
18
18
10
10
60
ENDCHAR
STARTCHAR 0100
ENCODING 256
SWIDTH 648 0
DWIDTH 9 0
BBX 10 11 0 0
BITMAP
3E00
0000
0C00
0C00
1E00
1600
2600
2300
3F00
4380
E3C0
ENDCHAR
STARTCHAR 0101
ENCODING 257
SWIDTH 504 0
DWIDTH 7 0
BBX 6 9 1 0
BITMAP
F8
00
00
78
D8
18
F8
DC
EC
ENDCHAR
STARTCHAR 0102
ENCODING 258
SWIDTH 648 0
DWIDTH 9 0
BBX 10 12 0 0
BITMAP
1200
1C00
0000
0C00
0C00
1E00
1600
2600
2300
3F00
4380
E3C0
ENDCHAR
STARTCHAR 0103
ENCODING 259
SWIDTH 504 0
DWIDTH 7 0
BBX 6 10 1 0
BITMAP
88
F8
70
00
78
D8
18
F8
DC
EC
ENDCHAR
STARTCHAR 0104
ENCODING 260
SWIDTH 648 0
DWIDTH 9 0
BBX 10 12 0 -3
BITMAP
0C00
0C00
1E00
1600
2600
2300
3F00
4380
E3C0
0300
0200
0380
ENDCHAR
STARTCHAR 0105
ENCODING 261
SWIDTH 504 0
DWIDTH 7 0
BBX 6 9 1 -2
BITMAP
78
D8
18
F8
DC
EC
18
10
1C
ENDCHAR
STARTCHAR 0106
ENCODING 262
SWIDTH 576 0
DWIDTH 8 0
BBX 8 12 0 0
BITMAP
06
04
00
3B
61
60
60
E0
60
60
30
1F
ENDCHAR
STARTCHAR 0107
ENCODING 263
SWIDTH 432 0
DWIDTH 6 0
BBX 6 10 0 0
BITMAP
08
18
10
00
7C
64
C0
60
60
3C
ENDCHAR
STARTCHAR 0108
ENCODING 264
SWIDTH 576 0
DWIDTH 8 0
BBX 8 12 0 0
BITMAP
0E
12
00
3B
61
60
60
E0
60
60
30
1F
ENDCHAR
STARTCHAR 0109
ENCODING 265
SWIDTH 432 0
DWIDTH 6 0
BBX 6 10 0 0
BITMAP
18
3C
44
00
7C
64
C0
60
60
3C
ENDCHAR
STARTCHAR 010A
ENCODING 266
SWIDTH 576 0
DWIDTH 8 0
BBX 8 12 0 0
BITMAP
0C
0C
00
3B
61
60
60
E0
60
60
30
1F
ENDCHAR
STARTCHAR 010B
ENCODING 267
SWIDTH 432 0
DWIDTH 6 0
BBX 6 9 0 0
BITMAP
18
10
00
7C
64
C0
60
60
3C
ENDCHAR
STARTCHAR 010C
ENCODING 268
SWIDTH 576 0
DWIDTH 8 0
BBX 8 12 0 0
BITMAP
1E
0C
00
3B
61
60
60
E0
60
60
30
1F
ENDCHAR
STARTCHAR 010D
ENCODING 269
SWIDTH 432 0
DWIDTH 6 0
BBX 6 10 0 0
BITMAP
44
38
10
00
7C
64
C0
60
60
3C
ENDCHAR
STARTCHAR 010E
ENCODING 270
SWIDTH 720 0
DWIDTH 10 0
BBX 9 12 1 0
BITMAP
3C00
1000
0000
FE00
6300
6380
6180
6180
6380
6300
6300
FC00
ENDCHAR
STARTCHAR 010F
ENCODING 271
SWIDTH 720 0
DWIDTH 10 0
BBX 10 10 0 0
BITMAP
0EC0
06C0
0640
0680
3E00
6600
6600
E600
6600
7F00
ENDCHAR
STARTCHAR 0110
ENCODING 272
SWIDTH 720 0
DWIDTH 10 0
BBX 10 9 0 0
BITMAP
7F00
3180
31C0
30C0
F8C0
31C0
3180
3180
7E00
ENDCHAR
STARTCHAR 0111
ENCODING 273
SWIDTH 576 0
DWIDTH 8 0
BBX 8 10 0 0
BITMAP
0E
06
0F
06
3E
66
66
E6
66
7F
ENDCHAR
STARTCHAR 0112
ENCODING 274
SWIDTH 576 0
DWIDTH 8 0
BBX 7 11 1 0
BITMAP
78
00
FE
62
60
68
78
68
62
62
FE
ENDCHAR
STARTCHAR 0113
ENCODING 275
SWIDTH 504 0
DWIDTH 7 0
BBX 7 9 0 0
BITMAP
7C
00
00
7C
64
FE
60
60
3C
ENDCHAR
STARTCHAR 0114
ENCODING 276
SWIDTH 576 0
DWIDTH 8 0
BBX 7 12 1 0
BITMAP
48
38
00
FE
62
60
68
78
68
62
62
FE
ENDCHAR
STARTCHAR 0115
ENCODING 277
SWIDTH 504 0
DWIDTH 7 0
BBX 7 10 0 0
BITMAP
44
7C
38
00
7C
64
FE
60
60
3C
ENDCHAR
STARTCHAR 0116
ENCODING 278
SWIDTH 576 0
DWIDTH 8 0
BBX 7 12 1 0
BITMAP
30
30
00
FE
62
60
68
78
68
62
62
FE
ENDCHAR
STARTCHAR 0117
ENCODING 279
SWIDTH 504 0
DWIDTH 7 0
BBX 7 9 0 0
BITMAP
18
10
00
7C
64
FE
60
60
3C
ENDCHAR
STARTCHAR 0118
ENCODING 280
SWIDTH 576 0
DWIDTH 8 0
BBX 7 12 1 -3
BITMAP
FE
62
60
68
78
68
62
62
FE
08
18
1C
ENDCHAR
STARTCHAR 0119
ENCODING 281
SWIDTH 504 0
DWIDTH 7 0
BBX 7 9 0 -3
BITMAP
7C
64
FE
60
60
3C
08
18
1C
ENDCHAR
STARTCHAR 011A
ENCODING 282
SWIDTH 576 0
DWIDTH 8 0
BBX 7 12 1 0
BITMAP
78
30
00
FE
62
60
68
78
68
62
62
FE
ENDCHAR
STARTCHAR 011B
ENCODING 283
SWIDTH 504 0
DWIDTH 7 0
BBX 7 10 0 0
BITMAP
44
38
10
00
7C
64
FE
60
60
3C
ENDCHAR
STARTCHAR 011C
ENCODING 284
SWIDTH 648 0
DWIDTH 9 0
BBX 9 12 0 0
BITMAP
0E00
1300
0400
3B80
6180
6000
6000
E380
6180
6180
3180
1F00
ENDCHAR
STARTCHAR 011D
ENCODING 285
SWIDTH 504 0
DWIDTH 7 0
BBX 7 13 0 -3
BITMAP
10
38
44
00
7E
66
64
7C
40
7E
7E
C6
7C
ENDCHAR
STARTCHAR 011E
ENCODING 286
SWIDTH 648 0
DWIDTH 9 0
BBX 9 12 0 0
BITMAP
1300
0E00
0400
3B80
6180
6000
6000
E380
6180
6180
3180
1F00
ENDCHAR
STARTCHAR 011F
ENCODING 287
SWIDTH 504 0
DWIDTH 7 0
BBX 7 13 0 -3
BITMAP
44
7C
38
00
7E
66
64
7C
40
7E
7E
C6
7C
ENDCHAR
STARTCHAR 0120
ENCODING 288
SWIDTH 648 0
DWIDTH 9 0
BBX 9 12 0 0
BITMAP
0C00
0C00
0400
3B80
6180
6000
6000
E380
6180
6180
3180
1F00
ENDCHAR
STARTCHAR 0121
ENCODING 289
SWIDTH 504 0
DWIDTH 7 0
BBX 7 12 0 -3
BITMAP
38
10
00
7E
66
64
7C
40
7E
7E
C6
7C
ENDCHAR
STARTCHAR 0122
ENCODING 290
SWIDTH 648 0
DWIDTH 9 0
BBX 9 14 0 -4
BITMAP
0400
3B80
6180
6000
6000
E380
6180
6180
3180
1F00
0000
0C00
0400
0C00
ENDCHAR
STARTCHAR 0123
ENCODING 291
SWIDTH 504 0
DWIDTH 7 0
BBX 7 13 0 -3
BITMAP
10
30
30
00
7E
66
64
7C
40
7E
7E
C6
7C
ENDCHAR
STARTCHAR 0124
ENCODING 292
SWIDTH 720 0
DWIDTH 10 0
BBX 9 12 1 0
BITMAP
1C00
2600
0000
E380
6300
6300
6300
7F00
6300
6300
6300
F780
ENDCHAR
STARTCHAR 0125
ENCODING 293
SWIDTH 648 0
DWIDTH 9 0
BBX 9 12 0 0
BITMAP
1C00
2400
6000
6000
6000
6000
7E00
6300
6300
6300
6300
F780
ENDCHAR
STARTCHAR 0126
ENCODING 294
SWIDTH 720 0
DWIDTH 10 0
BBX 9 9 1 0
BITMAP
E380
6300
FF80
6300
7F00
6300
6300
6300
F780
ENDCHAR
STARTCHAR 0127
ENCODING 295
SWIDTH 648 0
DWIDTH 9 0
BBX 9 10 0 0
BITMAP
6000
6000
F800
6000
7E00
6300
6300
6300
6300
F780
ENDCHAR
STARTCHAR 0128
ENCODING 296
SWIDTH 360 0
DWIDTH 5 0
BBX 5 12 0 0
BITMAP
68
B0
00
70
30
30
30
30
30
30
30
78
ENDCHAR
STARTCHAR 0129
ENCODING 297
SWIDTH 288 0
DWIDTH 4 0
BBX 5 9 0 0
BITMAP
F8
B0
00
E0
60
60
60
70
70
ENDCHAR
STARTCHAR 012A
ENCODING 298
SWIDTH 360 0
DWIDTH 5 0
BBX 5 11 0 0
BITMAP
F0
00
70
30
30
30
30
30
30
30
78
ENDCHAR
STARTCHAR 012B
ENCODING 299
SWIDTH 288 0
DWIDTH 4 0
BBX 4 9 0 0
BITMAP
F0
00
00
E0
60
60
60
70
70
ENDCHAR
STARTCHAR 012C
ENCODING 300
SWIDTH 360 0
DWIDTH 5 0
BBX 4 12 1 0
BITMAP
90
E0
00
E0
60
60
60
60
60
60
60
F0
ENDCHAR
STARTCHAR 012D
ENCODING 301
SWIDTH 288 0
DWIDTH 4 0
BBX 5 10 0 0
BITMAP
88
F0
70
00
E0
60
60
60
70
70
ENDCHAR
STARTCHAR 012E
ENCODING 302
SWIDTH 360 0
DWIDTH 5 0
BBX 4 12 1 -3
BITMAP
E0
60
60
60
60
60
60
60
F0
40
C0
E0
ENDCHAR
STARTCHAR 012F
ENCODING 303
SWIDTH 288 0
DWIDTH 4 0
BBX 4 13 0 -3
BITMAP
20
70
00
00
E0
60
60
60
70
70
60
40
70
ENDCHAR
STARTCHAR 0130
ENCODING 304
SWIDTH 360 0
DWIDTH 5 0
BBX 4 12 1 0
BITMAP
60
60
00
E0
60
60
60
60
60
60
60
F0
ENDCHAR
STARTCHAR 0131
ENCODING 305
SWIDTH 288 0
DWIDTH 4 0
BBX 4 6 0 0
BITMAP
E0
60
60
60
70
70
ENDCHAR
STARTCHAR 0132
ENCODING 306
SWIDTH 648 0
DWIDTH 9 0
BBX 8 12 1 -3
BITMAP
EF
66
66
66
66
66
66
66
F6
06
04
0C
ENDCHAR
STARTCHAR 0133
ENCODING 307
SWIDTH 576 0
DWIDTH 8 0
BBX 8 13 0 -3
BITMAP
22
77
00
00
EE
66
66
66
76
76
06
06
0C
ENDCHAR
STARTCHAR 0134
ENCODING 308
SWIDTH 360 0
DWIDTH 5 0
BBX 4 15 0 -3
BITMAP
70
D0
00
70
70
70
70
70
70
70
70
60
60
60
C0
ENDCHAR
STARTCHAR 0135
ENCODING 309
SWIDTH 288 0
DWIDTH 4 0
BBX 4 13 0 -3
BITMAP
20
70
90
00
E0
60
60
60
60
60
60
60
C0
ENDCHAR
STARTCHAR 0136
ENCODING 310
SWIDTH 720 0
DWIDTH 10 0
BBX 9 13 1 -4
BITMAP
E700
6400
6800
7000
7800
7C00
6E00
6600
F380
0000
1800
0800
1000
ENDCHAR
STARTCHAR 0137
ENCODING 311
SWIDTH 576 0
DWIDTH 8 0
BBX 8 14 0 -4
BITMAP
60
60
60
60
67
64
6C
6C
66
F3
00
18
08
18
ENDCHAR
STARTCHAR 0138
ENCODING 312
SWIDTH 576 0
DWIDTH 8 0
BBX 8 6 0 0
BITMAP
E6
6C
78
6C
76
77
ENDCHAR
STARTCHAR 0139
ENCODING 313
SWIDTH 576 0
DWIDTH 8 0
BBX 7 12 1 0
BITMAP
60
40
00
E0
60
60
60
60
60
62
62
FE
ENDCHAR
STARTCHAR 013A
ENCODING 314
SWIDTH 288 0
DWIDTH 4 0
BBX 4 13 0 0
BITMAP
30
20
00
60
60
60
60
60
60
60
60
60
F0
ENDCHAR
STARTCHAR 013B
ENCODING 315
SWIDTH 576 0
DWIDTH 8 0
BBX 7 13 1 -4
BITMAP
E0
60
60
60
60
60
62
62
FE
00
30
10
30
ENDCHAR
STARTCHAR 013C
ENCODING 316
SWIDTH 288 0
DWIDTH 4 0
BBX 4 14 0 -4
BITMAP
60
60
60
60
60
60
60
60
60
F0
00
60
20
20
ENDCHAR
STARTCHAR 013D
ENCODING 317
SWIDTH 576 0
DWIDTH 8 0
BBX 7 10 1 0
BITMAP
06
E6
62
64
60
60
60
62
62
FE
ENDCHAR
STARTCHAR 013E
ENCODING 318
SWIDTH 432 0
DWIDTH 6 0
BBX 6 10 0 0
BITMAP
6C
6C
64
64
60
60
60
60
60
F0
ENDCHAR
STARTCHAR 013F
ENCODING 319
SWIDTH 576 0
DWIDTH 8 0
BBX 7 9 1 0
BITMAP
E0
60
60
66
66
60
62
62
FE
ENDCHAR
STARTCHAR 0140
ENCODING 320
SWIDTH 288 0
DWIDTH 4 0
BBX 6 10 0 0
BITMAP
60
60
60
60
68
6C
60
60
60
F0
ENDCHAR
STARTCHAR 0141
ENCODING 321
SWIDTH 576 0
DWIDTH 8 0
BBX 8 9 0 0
BITMAP
70
30
30
38
70
F0
31
31
7F
ENDCHAR
STARTCHAR 0142
ENCODING 322
SWIDTH 288 0
DWIDTH 4 0
BBX 5 10 0 0
BITMAP
60
60
60
60
78
60
E0
60
60
F0
ENDCHAR
STARTCHAR 0143
ENCODING 323
SWIDTH 720 0
DWIDTH 10 0
BBX 8 12 1 0
BITMAP
08
18
00
E3
71
71
79
5D
4F
47
C7
E3
ENDCHAR
STARTCHAR 0144
ENCODING 324
SWIDTH 648 0
DWIDTH 9 0
BBX 9 10 0 0
BITMAP
0400
0C00
0800
0000
EF00
7300
6300
6300
7300
7780
ENDCHAR
STARTCHAR 0145
ENCODING 325
SWIDTH 720 0
DWIDTH 10 0
BBX 8 13 1 -4
BITMAP
E3
71
71
79
5D
4F
47
C7
E3
00
1C
08
08
ENDCHAR
STARTCHAR 0146
ENCODING 326
SWIDTH 648 0
DWIDTH 9 0
BBX 9 10 0 -4
BITMAP
EF00
7300
6300
6300
7300
7780
0000
1C00
0C00
0800
ENDCHAR
STARTCHAR 0147
ENCODING 327
SWIDTH 720 0
DWIDTH 10 0
BBX 8 12 1 0
BITMAP
3C
18
00
E3
71
71
79
5D
4F
47
C7
E3
ENDCHAR
STARTCHAR 0148
ENCODING 328
SWIDTH 648 0
DWIDTH 9 0
BBX 9 10 0 0
BITMAP
2200
1C00
0800
0000
EF00
7300
6300
6300
7300
7780
ENDCHAR
STARTCHAR 0149
ENCODING 329
SWIDTH 792 0
DWIDTH 11 0
BBX 10 10 1 0
BITMAP
C000
C000
4000
8000
3F80
1980
19C0
1980
19C0
3DC0
ENDCHAR
STARTCHAR 014A
ENCODING 330
SWIDTH 648 0
DWIDTH 9 0
BBX 8 12 1 -2
BITMAP
FF
63
63
63
63
63
63
63
F3
03
02
1E
ENDCHAR
STARTCHAR 014B
ENCODING 331
SWIDTH 576 0
DWIDTH 8 0
BBX 8 9 0 -3
BITMAP
EF
73
73
63
73
73
03
02
1E
ENDCHAR
STARTCHAR 014C
ENCODING 332
SWIDTH 720 0
DWIDTH 10 0
BBX 10 11 0 0
BITMAP
1E00
0400
3B00
6180
61C0
60C0
E0C0
60C0
6180
3180
1F00
ENDCHAR
STARTCHAR 014D
ENCODING 333
SWIDTH 504 0
DWIDTH 7 0
BBX 6 9 1 0
BITMAP
F8
00
00
FC
CC
CC
CC
CC
78
ENDCHAR
STARTCHAR 014E
ENCODING 334
SWIDTH 720 0
DWIDTH 10 0
BBX 10 12 0 0
BITMAP
1200
0E00
0400
3B00
6180
61C0
60C0
E0C0
60C0
6180
3180
1F00
ENDCHAR
STARTCHAR 014F
ENCODING 335
SWIDTH 504 0
DWIDTH 7 0
BBX 6 10 1 0
BITMAP
84
78
30
00
FC
CC
CC
CC
CC
78
ENDCHAR
STARTCHAR 0150
ENCODING 336
SWIDTH 720 0
DWIDTH 10 0
BBX 10 12 0 0
BITMAP
0B00
1200
0400
3B00
6180
61C0
60C0
E0C0
60C0
6180
3180
1F00
ENDCHAR
STARTCHAR 0151
ENCODING 337
SWIDTH 504 0
DWIDTH 7 0
BBX 6 10 1 0
BITMAP
2C
68
48
00
FC
CC
CC
CC
CC
78
ENDCHAR
STARTCHAR 0152
ENCODING 338
SWIDTH 936 0
DWIDTH 13 0
BBX 13 9 0 1
BITMAP
3FF8
6188
6180
6190
E1F0
6190
6188
7108
1FF8
ENDCHAR
STARTCHAR 0153
ENCODING 339
SWIDTH 792 0
DWIDTH 11 0
BBX 11 6 0 0
BITMAP
7FC0
6660
E7E0
6600
6700
3FC0
ENDCHAR
STARTCHAR 0154
ENCODING 340
SWIDTH 648 0
DWIDTH 9 0
BBX 8 12 1 0
BITMAP
18
10
00
FE
66
66
66
7C
6C
6E
66
F7
ENDCHAR
STARTCHAR 0155
ENCODING 341
SWIDTH 432 0
DWIDTH 6 0
BBX 6 10 0 0
BITMAP
08
18
10
00
EC
74
60
60
70
F8
ENDCHAR
STARTCHAR 0156
ENCODING 342
SWIDTH 648 0
DWIDTH 9 0
BBX 8 13 1 -4
BITMAP
FE
66
66
66
7C
6C
6E
66
F7
00
18
08
10
ENDCHAR
STARTCHAR 0157
ENCODING 343
SWIDTH 432 0
DWIDTH 6 0
BBX 6 10 0 -4
BITMAP
EC
74
60
60
70
F8
00
30
30
20
ENDCHAR
STARTCHAR 0158
ENCODING 344
SWIDTH 648 0
DWIDTH 9 0
BBX 8 12 1 0
BITMAP
68
30
00
FE
66
66
66
7C
6C
6E
66
F7
ENDCHAR
STARTCHAR 0159
ENCODING 345
SWIDTH 432 0
DWIDTH 6 0
BBX 6 10 0 0
BITMAP
44
38
10
00
EC
74
60
60
70
F8
ENDCHAR
STARTCHAR 015A
ENCODING 346
SWIDTH 504 0
DWIDTH 7 0
BBX 6 12 1 0
BITMAP
10
20
00
FC
CC
C0
F0
7C
1C
8C
8C
F8
ENDCHAR
STARTCHAR 015B
ENCODING 347
SWIDTH 432 0
DWIDTH 6 0
BBX 5 10 1 0
BITMAP
30
20
20
00
F0
D0
F0
38
98
F0
ENDCHAR
STARTCHAR 015C
ENCODING 348
SWIDTH 504 0
DWIDTH 7 0
BBX 6 12 1 0
BITMAP
30
48
00
FC
CC
C0
F0
7C
1C
8C
8C
F8
ENDCHAR
STARTCHAR 015D
ENCODING 349
SWIDTH 432 0
DWIDTH 6 0
BBX 5 10 1 0
BITMAP
20
70
88
00
F0
D0
F0
38
98
F0
ENDCHAR
STARTCHAR 015E
ENCODING 350
SWIDTH 504 0
DWIDTH 7 0
BBX 6 12 1 -2
BITMAP
FC
CC
C0
F0
7C
1C
8C
8C
F8
20
30
30
ENDCHAR
STARTCHAR 015F
ENCODING 351
SWIDTH 432 0
DWIDTH 6 0
BBX 5 9 1 -3
BITMAP
F0
D0
F0
38
98
F0
40
20
20
ENDCHAR
STARTCHAR 0160
ENCODING 352
SWIDTH 504 0
DWIDTH 7 0
BBX 6 12 1 0
BITMAP
78
30
00
FC
CC
C0
F0
7C
1C
8C
8C
F8
ENDCHAR
STARTCHAR 0161
ENCODING 353
SWIDTH 432 0
DWIDTH 6 0
BBX 5 10 1 0
BITMAP
98
F0
60
00
F0
D0
F0
38
98
F0
ENDCHAR
STARTCHAR 0162
ENCODING 354
SWIDTH 648 0
DWIDTH 9 0
BBX 9 12 0 -3
BITMAP
7F80
CC80
0C00
0C00
0C00
0C00
0C00
1C00
3E00
0800
0C00
0800
ENDCHAR
STARTCHAR 0163
ENCODING 355
SWIDTH 360 0
DWIDTH 5 0
BBX 5 11 0 -2
BITMAP
60
60
F8
60
60
60
60
38
20
30
30
ENDCHAR
STARTCHAR 0164
ENCODING 356
SWIDTH 648 0
DWIDTH 9 0
BBX 9 12 0 0
BITMAP
3600
0800
0000
7F80
CC80
0C00
0C00
0C00
0C00
0C00
1C00
3E00
ENDCHAR
STARTCHAR 0165
ENCODING 357
SWIDTH 504 0
DWIDTH 7 0
BBX 7 10 0 0
BITMAP
06
06
62
66
F8
60
60
60
60
38
ENDCHAR
STARTCHAR 0166
ENCODING 358
SWIDTH 648 0
DWIDTH 9 0
BBX 9 9 0 0
BITMAP
7F80
CC80
0C00
0C00
3E00
0C00
0C00
1C00
3E00
ENDCHAR
STARTCHAR 0167
ENCODING 359
SWIDTH 360 0
DWIDTH 5 0
BBX 5 8 0 1
BITMAP
60
60
F8
60
F0
60
60
38
ENDCHAR
STARTCHAR 0168
ENCODING 360
SWIDTH 648 0
DWIDTH 9 0
BBX 8 12 1 0
BITMAP
3E
0C
00
E3
C2
C2
C2
C2
C2
E2
62
7C
ENDCHAR
STARTCHAR 0169
ENCODING 361
SWIDTH 576 0
DWIDTH 8 0
BBX 8 9 0 0
BITMAP
3E
00
00
EE
66
66
66
66
3F
ENDCHAR
STARTCHAR 016A
ENCODING 362
SWIDTH 648 0
DWIDTH 9 0
BBX 8 11 1 0
BITMAP
3C
00
E3
C2
C2
C2
C2
C2
E2
62
7C
ENDCHAR
STARTCHAR 016B
ENCODING 363
SWIDTH 576 0
DWIDTH 8 0
BBX 8 9 0 0
BITMAP
3E
00
00
EE
66
66
66
66
3F
ENDCHAR
STARTCHAR 016C
ENCODING 364
SWIDTH 648 0
DWIDTH 9 0
BBX 8 12 1 0
BITMAP
26
1C
00
E3
C2
C2
C2
C2
C2
E2
62
7C
ENDCHAR
STARTCHAR 016D
ENCODING 365
SWIDTH 576 0
DWIDTH 8 0
BBX 8 10 0 0
BITMAP
22
3E
18
00
EE
66
66
66
66
3F
ENDCHAR
STARTCHAR 016E
ENCODING 366
SWIDTH 648 0
DWIDTH 9 0
BBX 8 12 1 0
BITMAP
1C
1C
00
E3
C2
C2
C2
C2
C2
E2
62
7C
ENDCHAR
STARTCHAR 016F
ENCODING 367
SWIDTH 576 0
DWIDTH 8 0
BBX 8 10 0 0
BITMAP
1C
34
18
00
EE
66
66
66
66
3F
ENDCHAR
STARTCHAR 0170
ENCODING 368
SWIDTH 648 0
DWIDTH 9 0
BBX 8 12 1 0
BITMAP
16
34
00
E3
C2
C2
C2
C2
C2
E2
62
7C
ENDCHAR
STARTCHAR 0171
ENCODING 369
SWIDTH 576 0
DWIDTH 8 0
BBX 8 10 0 0
BITMAP
1E
14
24
00
EE
66
66
66
66
3F
ENDCHAR
STARTCHAR 0172
ENCODING 370
SWIDTH 648 0
DWIDTH 9 0
BBX 8 12 1 -3
BITMAP
E3
C2
C2
C2
C2
C2
E2
62
7C
08
18
1C
ENDCHAR
STARTCHAR 0173
ENCODING 371
SWIDTH 576 0
DWIDTH 8 0
BBX 8 9 0 -3
BITMAP
EE
66
66
66
66
3F
06
04
07
ENDCHAR
STARTCHAR 0174
ENCODING 372
SWIDTH 936 0
DWIDTH 13 0
BBX 12 12 1 0
BITMAP
0700
0980
0000
E230
C710
6720
6720
69A0
79C0
39C0
30C0
3080
ENDCHAR
STARTCHAR 0175
ENCODING 373
SWIDTH 720 0
DWIDTH 10 0
BBX 10 10 0 0
BITMAP
0600
0F00
0180
0000
E640
6640
3B80
3B80
3B80
1100
ENDCHAR
STARTCHAR 0176
ENCODING 374
SWIDTH 576 0
DWIDTH 8 0
BBX 7 12 1 0
BITMAP
18
24
00
E6
E4
64
78
38
30
30
38
7C
ENDCHAR
STARTCHAR 0177
ENCODING 375
SWIDTH 504 0
DWIDTH 7 0
BBX 7 13 0 -3
BITMAP
08
1C
22
00
F6
62
34
34
18
18
10
10
60
ENDCHAR
STARTCHAR 0178
ENCODING 376
SWIDTH 576 0
DWIDTH 8 0
BBX 7 12 1 0
BITMAP
26
26
00
E6
E4
64
78
38
30
30
38
7C
ENDCHAR
STARTCHAR 0179
ENCODING 377
SWIDTH 576 0
DWIDTH 8 0
BBX 7 12 1 0
BITMAP
18
10
00
FC
8C
18
38
30
70
60
E6
FE
ENDCHAR
STARTCHAR 017A
ENCODING 378
SWIDTH 504 0
DWIDTH 7 0
BBX 6 10 1 0
BITMAP
10
30
20
00
F8
B8
30
60
EC
FC
ENDCHAR
STARTCHAR 017B
ENCODING 379
SWIDTH 576 0
DWIDTH 8 0
BBX 7 12 1 0
BITMAP
30
30
00
FC
8C
18
38
30
70
60
E6
FE
ENDCHAR
STARTCHAR 017C
ENCODING 380
SWIDTH 504 0
DWIDTH 7 0
BBX 6 9 1 0
BITMAP
70
20
00
F8
B8
30
60
EC
FC
ENDCHAR
STARTCHAR 017D
ENCODING 381
SWIDTH 576 0
DWIDTH 8 0
BBX 7 12 1 0
BITMAP
68
30
00
FC
8C
18
38
30
70
60
E6
FE
ENDCHAR
STARTCHAR 017E
ENCODING 382
SWIDTH 504 0
DWIDTH 7 0
BBX 6 10 1 0
BITMAP
88
70
20
00
F8
B8
30
60
EC
FC
ENDCHAR
STARTCHAR 017F
ENCODING 383
SWIDTH 360 0
DWIDTH 5 0
BBX 6 10 0 0
BITMAP
1C
34
20
20
E0
20
20
20
70
78
ENDCHAR
STARTCHAR 018E
ENCODING 398
SWIDTH 576 0
DWIDTH 8 0
BBX 7 9 1 0
BITMAP
FE
8C
0C
4C
7C
4C
0C
8C
FE
ENDCHAR
STARTCHAR 018F
ENCODING 399
SWIDTH 648 0
DWIDTH 9 0
BBX 8 9 1 1
BITMAP
EC
86
07
03
FF
C3
C6
C6
7C
ENDCHAR
STARTCHAR 0192
ENCODING 402
SWIDTH 360 0
DWIDTH 5 0
BBX 9 13 -2 -3
BITMAP
0380
0480
0C00
0C00
1E00
0C00
1800
1800
1800
1800
1800
9000
F000
ENDCHAR
STARTCHAR 019D
ENCODING 413
SWIDTH 720 0
DWIDTH 10 0
BBX 11 12 -2 -3
BITMAP
1C60
0E20
0E20
0F20
0BA0
09E0
08E0
08E0
1060
1000
1000
F000
ENDCHAR
STARTCHAR 01A0
ENCODING 416
SWIDTH 720 0
DWIDTH 10 0
BBX 10 11 0 0
BITMAP
00C0
04C0
3B00
6180
61C0
60C0
E0C0
60C0
6180
3180
1F00
ENDCHAR
STARTCHAR 01A1
ENCODING 417
SWIDTH 576 0
DWIDTH 8 0
BBX 7 8 1 0
BITMAP
06
06
FC
CC
CC
CC
CC
78
ENDCHAR
STARTCHAR 01AF
ENCODING 431
SWIDTH 720 0
DWIDTH 10 0
BBX 9 11 1 0
BITMAP
0080
0180
E300
C200
C200
C200
C200
C200
E200
6200
7C00
ENDCHAR
STARTCHAR 01B0
ENCODING 432
SWIDTH 648 0
DWIDTH 9 0
BBX 9 8 0 0
BITMAP
0180
0100
EE00
6600
6600
6600
6600
3F00
ENDCHAR
STARTCHAR 01B7
ENCODING 439
SWIDTH 576 0
DWIDTH 8 0
BBX 7 9 1 0
BITMAP
FC
9C
18
30
3C
0E
86
8E
FC
ENDCHAR
STARTCHAR 01C4
ENCODING 452
SWIDTH 1296 0
DWIDTH 18 0
BBX 17 12 1 0
BITMAP
001B00
000400
000000
FE3F80
632300
638700
618600
618E00
639C00
631880
633980
FC3F80
ENDCHAR
STARTCHAR 01C5
ENCODING 453
SWIDTH 1224 0
DWIDTH 17 0
BBX 16 10 1 0
BITMAP
0022
FE1C
6308
6380
61BE
61A6
638C
6318
6339
FC3F
ENDCHAR
STARTCHAR 01C6
ENCODING 454
SWIDTH 1080 0
DWIDTH 15 0
BBX 15 10 0 0
BITMAP
0E24
063C
0618
0600
3E7E
664C
6618
E638
6632
7F7E
ENDCHAR
STARTCHAR 01C7
ENCODING 455
SWIDTH 936 0
DWIDTH 13 0
BBX 11 12 1 -3
BITMAP
E0E0
6060
6060
6060
6060
6060
6260
6260
FE60
0060
00C0
0080
ENDCHAR
STARTCHAR 01C8
ENCODING 456
SWIDTH 864 0
DWIDTH 12 0
BBX 11 13 1 -3
BITMAP
0040
E060
6000
6000
60E0
6060
6060
6260
6260
FE60
0060
00C0
0080
ENDCHAR
STARTCHAR 01C9
ENCODING 457
SWIDTH 648 0
DWIDTH 9 0
BBX 8 13 0 -3
BITMAP
61
63
60
60
67
63
63
63
63
F3
03
03
06
ENDCHAR
STARTCHAR 01CA
ENCODING 458
SWIDTH 1080 0
DWIDTH 15 0
BBX 13 12 1 -3
BITMAP
E338
7118
7118
7918
5D18
4F18
4718
C718
E318
0030
0030
0060
ENDCHAR
STARTCHAR 01CB
ENCODING 459
SWIDTH 1008 0
DWIDTH 14 0
BBX 13 13 1 -3
BITMAP
0010
E338
7100
7100
7938
5D18
4F18
4718
C718
E318
0010
0030
0060
ENDCHAR
STARTCHAR 01CC
ENCODING 460
SWIDTH 936 0
DWIDTH 13 0
BBX 13 13 0 -3
BITMAP
0010
0038
0000
0000
EF38
7318
6318
6318
7318
7798
0010
0030
0020
ENDCHAR
STARTCHAR 01CD
ENCODING 461
SWIDTH 648 0
DWIDTH 9 0
BBX 10 12 0 0
BITMAP
1E00
0800
0000
0C00
0C00
1E00
1600
2600
2300
3F00
4380
E3C0
ENDCHAR
STARTCHAR 01CE
ENCODING 462
SWIDTH 504 0
DWIDTH 7 0
BBX 6 10 1 0
BITMAP
88
70
20
00
78
D8
18
F8
DC
EC
ENDCHAR
STARTCHAR 01CF
ENCODING 463
SWIDTH 360 0
DWIDTH 5 0
BBX 4 12 1 0
BITMAP
B0
60
00
E0
60
60
60
60
60
60
60
F0
ENDCHAR
STARTCHAR 01D0
ENCODING 464
SWIDTH 288 0
DWIDTH 4 0
BBX 4 10 0 0
BITMAP
D0
70
20
00
E0
60
60
60
70
70
ENDCHAR
STARTCHAR 01D1
ENCODING 465
SWIDTH 720 0
DWIDTH 10 0
BBX 10 12 0 0
BITMAP
1E00
0C00
0400
3B00
6180
61C0
60C0
E0C0
60C0
6180
3180
1F00
ENDCHAR
STARTCHAR 01D2
ENCODING 466
SWIDTH 504 0
DWIDTH 7 0
BBX 6 10 1 0
BITMAP
C8
70
20
00
FC
CC
CC
CC
CC
78
ENDCHAR
STARTCHAR 01D3
ENCODING 467
SWIDTH 648 0
DWIDTH 9 0
BBX 8 12 1 0
BITMAP
3C
18
00
E3
C2
C2
C2
C2
C2
E2
62
7C
ENDCHAR
STARTCHAR 01D4
ENCODING 468
SWIDTH 576 0
DWIDTH 8 0
BBX 8 10 0 0
BITMAP
26
3C
18
00
EE
66
66
66
66
3F
ENDCHAR
STARTCHAR 01D5
ENCODING 469
SWIDTH 648 0
DWIDTH 9 0
BBX 8 14 1 0
BITMAP
3E
00
36
36
00
E3
C2
C2
C2
C2
C2
E2
62
7C
ENDCHAR
STARTCHAR 01D6
ENCODING 470
SWIDTH 576 0
DWIDTH 8 0
BBX 8 11 0 0
BITMAP
3E
00
36
26
00
EE
66
66
66
66
3F
ENDCHAR
STARTCHAR 01D7
ENCODING 471
SWIDTH 648 0
DWIDTH 9 0
BBX 8 15 1 0
BITMAP
0C
08
00
36
36
00
E3
C2
C2
C2
C2
C2
E2
62
7C
ENDCHAR
STARTCHAR 01D8
ENCODING 472
SWIDTH 576 0
DWIDTH 8 0
BBX 8 12 0 0
BITMAP
0C
08
00
36
26
00
EE
66
66
66
66
3F
ENDCHAR
STARTCHAR 01D9
ENCODING 473
SWIDTH 648 0
DWIDTH 9 0
BBX 8 15 1 0
BITMAP
20
1C
00
36
36
00
E3
C2
C2
C2
C2
C2
E2
62
7C
ENDCHAR
STARTCHAR 01DA
ENCODING 474
SWIDTH 576 0
DWIDTH 8 0
BBX 8 12 0 0
BITMAP
20
3C
00
36
26
00
EE
66
66
66
66
3F
ENDCHAR
STARTCHAR 01DB
ENCODING 475
SWIDTH 648 0
DWIDTH 9 0
BBX 8 15 1 0
BITMAP
10
18
00
36
36
00
E3
C2
C2
C2
C2
C2
E2
62
7C
ENDCHAR
STARTCHAR 01DC
ENCODING 476
SWIDTH 576 0
DWIDTH 8 0
BBX 8 12 0 0
BITMAP
10
10
00
36
26
00
EE
66
66
66
66
3F
ENDCHAR
STARTCHAR 01DD
ENCODING 477
SWIDTH 504 0
DWIDTH 7 0
BBX 6 6 1 0
BITMAP
F8
18
3C
CC
D8
F0
ENDCHAR
STARTCHAR 01E4
ENCODING 484
SWIDTH 648 0
DWIDTH 9 0
BBX 10 10 0 0
BITMAP
0400
3B80
6180
6000
6000
E380
6180
67C0
3180
1F00
ENDCHAR
STARTCHAR 01E5
ENCODING 485
SWIDTH 504 0
DWIDTH 7 0
BBX 8 9 0 -3
BITMAP
7E
66
64
7C
40
7E
7E
FF
7C
ENDCHAR
STARTCHAR 01E6
ENCODING 486
SWIDTH 648 0
DWIDTH 9 0
BBX 9 12 0 0
BITMAP
1E00
0C00
0400
3B80
6180
6000
6000
E380
6180
6180
3180
1F00
ENDCHAR
STARTCHAR 01E7
ENCODING 487
SWIDTH 504 0
DWIDTH 7 0
BBX 7 13 0 -3
BITMAP
44
38
10
00
7E
66
64
7C
40
7E
7E
C6
7C
ENDCHAR
STARTCHAR 01E8
ENCODING 488
SWIDTH 720 0
DWIDTH 10 0
BBX 9 12 1 0
BITMAP
3C00
1800
0000
E700
6400
6800
7000
7800
7C00
6E00
6600
F380
ENDCHAR
STARTCHAR 01E9
ENCODING 489
SWIDTH 576 0
DWIDTH 8 0
BBX 8 12 0 0
BITMAP
3C
18
60
60
60
60
67
64
6C
6C
66
F3
ENDCHAR
STARTCHAR 01EA
ENCODING 490
SWIDTH 720 0
DWIDTH 10 0
BBX 10 13 0 -4
BITMAP
0400
3B00
6180
61C0
60C0
E0C0
60C0
6180
3180
1F00
0400
0C00
0F00
ENDCHAR
STARTCHAR 01EB
ENCODING 491
SWIDTH 504 0
DWIDTH 7 0
BBX 6 9 1 -3
BITMAP
FC
CC
CC
CC
CC
78
20
60
70
ENDCHAR
STARTCHAR 01EE
ENCODING 494
SWIDTH 576 0
DWIDTH 8 0
BBX 7 12 1 0
BITMAP
78
30
00
FC
9C
18
30
3C
0E
86
8E
FC
ENDCHAR
STARTCHAR 01EF
ENCODING 495
SWIDTH 504 0
DWIDTH 7 0
BBX 6 13 1 -3
BITMAP
88
70
20
00
F8
98
30
70
78
1C
0C
88
F8
ENDCHAR
STARTCHAR 01F1
ENCODING 497
SWIDTH 1296 0
DWIDTH 18 0
BBX 17 9 1 0
BITMAP
FE3F80
632300
638700
618600
618E00
639C00
631880
633980
FC3F80
ENDCHAR
STARTCHAR 01F2
ENCODING 498
SWIDTH 1224 0
DWIDTH 17 0
BBX 16 9 1 0
BITMAP
FE00
6300
6380
61BE
61A6
638C
6318
6339
FC3F
ENDCHAR
STARTCHAR 01F3
ENCODING 499
SWIDTH 1080 0
DWIDTH 15 0
BBX 15 10 0 0
BITMAP
0E00
0600
0600
0600
3E7E
664C
6618
E638
6632
7F7E
ENDCHAR
STARTCHAR 01FA
ENCODING 506
SWIDTH 648 0
DWIDTH 9 0
BBX 10 15 0 0
BITMAP
0400
0800
0000
1C00
1C00
0000
0C00
0C00
1E00
1600
2600
2300
3F00
4380
E3C0
ENDCHAR
STARTCHAR 01FB
ENCODING 507
SWIDTH 504 0
DWIDTH 7 0
BBX 6 12 1 0
BITMAP
30
20
00
70
70
00
78
D8
18
F8
DC
EC
ENDCHAR
STARTCHAR 01FC
ENCODING 508
SWIDTH 936 0
DWIDTH 13 0
BBX 13 12 0 0
BITMAP
0180
0100
0000
07F0
0710
0B00
0B20
1FE0
1320
2300
6398
E7F8
ENDCHAR
STARTCHAR 01FD
ENCODING 509
SWIDTH 720 0
DWIDTH 10 0
BBX 9 10 1 0
BITMAP
0C00
0800
0800
0000
FF00
9900
7F80
D800
9800
EF00
ENDCHAR
STARTCHAR 01FE
ENCODING 510
SWIDTH 720 0
DWIDTH 10 0
BBX 10 12 0 0
BITMAP
0600
0400
00C0
3B80
6180
63C0
64C0
ECC0
68C0
7180
3180
7F00
ENDCHAR
STARTCHAR 01FF
ENCODING 511
SWIDTH 504 0
DWIDTH 7 0
BBX 7 10 1 0
BITMAP
18
10
20
06
FC
DC
DC
EC
CC
F8
ENDCHAR
STARTCHAR 0200
ENCODING 512
SWIDTH 648 0
DWIDTH 9 0
BBX 10 12 0 0
BITMAP
3C00
1600
0000
0C00
0C00
1E00
1600
2600
2300
3F00
4380
E3C0
ENDCHAR
STARTCHAR 0201
ENCODING 513
SWIDTH 504 0
DWIDTH 7 0
BBX 6 10 1 0
BITMAP
F0
50
48
00
78
D8
18
F8
DC
EC
ENDCHAR
STARTCHAR 0202
ENCODING 514
SWIDTH 648 0
DWIDTH 9 0
BBX 10 12 0 0
BITMAP
1E00
1200
0000
0C00
0C00
1E00
1600
2600
2300
3F00
4380
E3C0
ENDCHAR
STARTCHAR 0203
ENCODING 515
SWIDTH 504 0
DWIDTH 7 0
BBX 6 10 1 0
BITMAP
70
D8
88
00
78
D8
18
F8
DC
EC
ENDCHAR
STARTCHAR 0204
ENCODING 516
SWIDTH 576 0
DWIDTH 8 0
BBX 7 12 1 0
BITMAP
D0
48
00
FE
62
60
68
78
68
62
62
FE
ENDCHAR
STARTCHAR 0205
ENCODING 517
SWIDTH 504 0
DWIDTH 7 0
BBX 7 10 0 0
BITMAP
78
2C
24
00
7C
64
FE
60
60
3C
ENDCHAR
STARTCHAR 0206
ENCODING 518
SWIDTH 576 0
DWIDTH 8 0
BBX 7 12 1 0
BITMAP
78
48
00
FE
62
60
68
78
68
62
62
FE
ENDCHAR
STARTCHAR 0207
ENCODING 519
SWIDTH 504 0
DWIDTH 7 0
BBX 7 10 0 0
BITMAP
38
6C
44
00
7C
64
FE
60
60
3C
ENDCHAR
STARTCHAR 0208
ENCODING 520
SWIDTH 360 0
DWIDTH 5 0
BBX 5 12 0 0
BITMAP
F0
50
00
70
30
30
30
30
30
30
30
78
ENDCHAR
STARTCHAR 0209
ENCODING 521
SWIDTH 288 0
DWIDTH 4 0
BBX 4 10 0 0
BITMAP
B0
D0
50
00
E0
60
60
60
70
70
ENDCHAR
STARTCHAR 020A
ENCODING 522
SWIDTH 360 0
DWIDTH 5 0
BBX 5 12 0 0
BITMAP
70
88
00
70
30
30
30
30
30
30
30
78
ENDCHAR
STARTCHAR 020B
ENCODING 523
SWIDTH 288 0
DWIDTH 4 0
BBX 5 10 0 0
BITMAP
70
D0
88
00
E0
60
60
60
70
70
ENDCHAR
STARTCHAR 020C
ENCODING 524
SWIDTH 720 0
DWIDTH 10 0
BBX 10 12 0 0
BITMAP
3400
1200
0400
3B00
6180
61C0
60C0
E0C0
60C0
6180
3180
1F00
ENDCHAR
STARTCHAR 020D
ENCODING 525
SWIDTH 504 0
DWIDTH 7 0
BBX 6 10 1 0
BITMAP
D0
58
28
00
FC
CC
CC
CC
CC
78
ENDCHAR
STARTCHAR 020E
ENCODING 526
SWIDTH 720 0
DWIDTH 10 0
BBX 10 12 0 0
BITMAP
1E00
1200
0400
3B00
6180
61C0
60C0
E0C0
60C0
6180
3180
1F00
ENDCHAR
STARTCHAR 020F
ENCODING 527
SWIDTH 504 0
DWIDTH 7 0
BBX 6 10 1 0
BITMAP
70
58
8C
00
FC
CC
CC
CC
CC
78
ENDCHAR
STARTCHAR 0210
ENCODING 528
SWIDTH 648 0
DWIDTH 9 0
BBX 8 12 1 0
BITMAP
58
28
00
FE
66
66
66
7C
6C
6E
66
F7
ENDCHAR
STARTCHAR 0211
ENCODING 529
SWIDTH 432 0
DWIDTH 6 0
BBX 6 10 0 0
BITMAP
58
28
24
00
EC
74
60
60
70
F8
ENDCHAR
STARTCHAR 0212
ENCODING 530
SWIDTH 648 0
DWIDTH 9 0
BBX 8 12 1 0
BITMAP
38
44
00
FE
66
66
66
7C
6C
6E
66
F7
ENDCHAR
STARTCHAR 0213
ENCODING 531
SWIDTH 432 0
DWIDTH 6 0
BBX 6 10 0 0
BITMAP
38
6C
44
00
EC
74
60
60
70
F8
ENDCHAR
STARTCHAR 0214
ENCODING 532
SWIDTH 648 0
DWIDTH 9 0
BBX 8 12 1 0
BITMAP
6C
34
00
E3
C2
C2
C2
C2
C2
E2
62
7C
ENDCHAR
STARTCHAR 0215
ENCODING 533
SWIDTH 576 0
DWIDTH 8 0
BBX 8 10 0 0
BITMAP
6C
24
14
00
EE
66
66
66
66
3F
ENDCHAR
STARTCHAR 0216
ENCODING 534
SWIDTH 648 0
DWIDTH 9 0
BBX 8 12 1 0
BITMAP
3C
26
00
E3
C2
C2
C2
C2
C2
E2
62
7C
ENDCHAR
STARTCHAR 0217
ENCODING 535
SWIDTH 576 0
DWIDTH 8 0
BBX 8 10 0 0
BITMAP
1C
26
02
00
EE
66
66
66
66
3F
ENDCHAR
STARTCHAR 0218
ENCODING 536
SWIDTH 504 0
DWIDTH 7 0
BBX 6 13 1 -3
BITMAP
FC
CC
C0
F0
7C
1C
8C
8C
F8
00
30
10
20
ENDCHAR
STARTCHAR 0219
ENCODING 537
SWIDTH 432 0
DWIDTH 6 0
BBX 5 10 1 -4
BITMAP
F0
D0
F0
38
98
F0
00
60
20
40
ENDCHAR
STARTCHAR 021A
ENCODING 538
SWIDTH 648 0
DWIDTH 9 0
BBX 9 13 0 -4
BITMAP
7F80
CC80
0C00
0C00
0C00
0C00
0C00
1C00
3E00
0000
1C00
0800
0800
ENDCHAR
STARTCHAR 021B
ENCODING 539
SWIDTH 360 0
DWIDTH 5 0
BBX 5 12 0 -3
BITMAP
60
60
F8
60
60
60
60
38
00
30
10
20
ENDCHAR
STARTCHAR 021C
ENCODING 540
SWIDTH 576 0
DWIDTH 8 0
BBX 6 12 1 -2
BITMAP
20
DC
8C
0C
18
30
7C
0C
0C
0C
0C
F8
ENDCHAR
STARTCHAR 021D
ENCODING 541
SWIDTH 504 0
DWIDTH 7 0
BBX 6 9 1 -3
BITMAP
F8
98
18
30
78
18
1C
18
F8
ENDCHAR
STARTCHAR 021E
ENCODING 542
SWIDTH 720 0
DWIDTH 10 0
BBX 9 12 1 0
BITMAP
3400
1800
0000
E380
6300
6300
6300
7F00
6300
6300
6300
F780
ENDCHAR
STARTCHAR 021F
ENCODING 543
SWIDTH 648 0
DWIDTH 9 0
BBX 9 12 0 0
BITMAP
3C00
1800
6000
6000
6000
6000
7E00
6300
6300
6300
6300
F780
ENDCHAR
STARTCHAR 0228
ENCODING 552
SWIDTH 576 0
DWIDTH 8 0
BBX 7 12 1 -3
BITMAP
FE
62
60
68
78
68
62
62
FE
10
18
10
ENDCHAR
STARTCHAR 0229
ENCODING 553
SWIDTH 504 0
DWIDTH 7 0
BBX 7 9 0 -3
BITMAP
7C
64
FE
60
60
3C
10
18
18
ENDCHAR
STARTCHAR 022A
ENCODING 554
SWIDTH 720 0
DWIDTH 10 0
BBX 10 14 0 0
BITMAP
1F00
0000
1B00
1B00
0400
3B00
6180
61C0
60C0
E0C0
60C0
6180
3180
1F00
ENDCHAR
STARTCHAR 022B
ENCODING 555
SWIDTH 504 0
DWIDTH 7 0
BBX 6 11 1 0
BITMAP
FC
00
C8
C8
00
FC
CC
CC
CC
CC
78
ENDCHAR
STARTCHAR 022C
ENCODING 556
SWIDTH 720 0
DWIDTH 10 0
BBX 10 14 0 0
BITMAP
1F00
0000
1F00
0600
0400
3B00
6180
61C0
60C0
E0C0
60C0
6180
3180
1F00
ENDCHAR
STARTCHAR 022D
ENCODING 557
SWIDTH 504 0
DWIDTH 7 0
BBX 6 11 1 0
BITMAP
FC
00
78
18
00
FC
CC
CC
CC
CC
78
ENDCHAR
STARTCHAR 0230
ENCODING 560
SWIDTH 720 0
DWIDTH 10 0
BBX 10 13 0 0
BITMAP
1E00
0C00
0C00
0400
3B00
6180
61C0
60C0
E0C0
60C0
6180
3180
1F00
ENDCHAR
STARTCHAR 0231
ENCODING 561
SWIDTH 504 0
DWIDTH 7 0
BBX 6 10 1 0
BITMAP
F8
30
30
00
FC
CC
CC
CC
CC
78
ENDCHAR
STARTCHAR 0232
ENCODING 562
SWIDTH 576 0
DWIDTH 8 0
BBX 7 11 1 0
BITMAP
7C
00
E6
E4
64
78
38
30
30
38
7C
ENDCHAR
STARTCHAR 0233
ENCODING 563
SWIDTH 504 0
DWIDTH 7 0
BBX 7 12 0 -3
BITMAP
3E
00
00
F6
62
34
34
18
18
10
10
60
ENDCHAR
STARTCHAR 0237
ENCODING 567
SWIDTH 288 0
DWIDTH 4 0
BBX 3 9 0 -3
BITMAP
E0
60
60
60
60
60
60
60
C0
ENDCHAR
STARTCHAR 0258
ENCODING 600
SWIDTH 504 0
DWIDTH 7 0
BBX 6 6 1 0
BITMAP
F8
98
FC
0C
98
F0
ENDCHAR
STARTCHAR 0259
ENCODING 601
SWIDTH 504 0
DWIDTH 7 0
BBX 6 6 1 0
BITMAP
F8
18
3C
CC
D8
F0
ENDCHAR
STARTCHAR 0272
ENCODING 626
SWIDTH 648 0
DWIDTH 9 0
BBX 9 9 0 -3
BITMAP
EF00
7300
6300
6300
6300
6780
6000
6000
C000
ENDCHAR
STARTCHAR 0292
ENCODING 658
SWIDTH 504 0
DWIDTH 7 0
BBX 6 9 1 -3
BITMAP
F8
98
30
70
78
1C
0C
88
F8
ENDCHAR
STARTCHAR 02B9
ENCODING 697
SWIDTH 288 0
DWIDTH 4 0
BBX 2 4 1 6
BITMAP
40
C0
80
80
ENDCHAR
STARTCHAR 02BA
ENCODING 698
SWIDTH 432 0
DWIDTH 6 0
BBX 5 4 1 6
BITMAP
58
D0
90
A0
ENDCHAR
STARTCHAR 02BB
ENCODING 699
SWIDTH 216 0
DWIDTH 3 0
BBX 2 4 1 6
BITMAP
40
80
C0
C0
ENDCHAR
STARTCHAR 02BC
ENCODING 700
SWIDTH 288 0
DWIDTH 4 0
BBX 2 4 1 6
BITMAP
C0
C0
40
80
ENDCHAR
STARTCHAR 02BE
ENCODING 702
SWIDTH 216 0
DWIDTH 3 0
BBX 2 4 1 6
BITMAP
80
40
C0
80
ENDCHAR
STARTCHAR 02BF
ENCODING 703
SWIDTH 216 0
DWIDTH 3 0
BBX 2 4 1 6
BITMAP
C0
80
80
C0
ENDCHAR
STARTCHAR 02C6
ENCODING 710
SWIDTH 288 0
DWIDTH 4 0
BBX 4 3 0 7
BITMAP
60
F0
10
ENDCHAR
STARTCHAR 02C7
ENCODING 711
SWIDTH 288 0
DWIDTH 4 0
BBX 5 3 0 7
BITMAP
98
F0
60
ENDCHAR
STARTCHAR 02C8
ENCODING 712
SWIDTH 216 0
DWIDTH 3 0
BBX 1 4 1 6
BITMAP
80
80
80
80
ENDCHAR
STARTCHAR 02C9
ENCODING 713
SWIDTH 432 0
DWIDTH 6 0
BBX 5 1 1 8
BITMAP
F8
ENDCHAR
STARTCHAR 02CA
ENCODING 714
SWIDTH 288 0
DWIDTH 4 0
BBX 2 3 2 7
BITMAP
40
40
80
ENDCHAR
STARTCHAR 02CB
ENCODING 715
SWIDTH 288 0
DWIDTH 4 0
BBX 3 3 2 7
BITMAP
C0
40
20
ENDCHAR
STARTCHAR 02CC
ENCODING 716
SWIDTH 216 0
DWIDTH 3 0
BBX 1 3 1 -2
BITMAP
80
80
80
ENDCHAR
STARTCHAR 02D8
ENCODING 728
SWIDTH 288 0
DWIDTH 4 0
BBX 6 3 -1 7
BITMAP
C4
78
30
ENDCHAR
STARTCHAR 02D9
ENCODING 729
SWIDTH 288 0
DWIDTH 4 0
BBX 2 2 1 7
BITMAP
C0
C0
ENDCHAR
STARTCHAR 02DA
ENCODING 730
SWIDTH 288 0
DWIDTH 4 0
BBX 4 3 0 7
BITMAP
60
D0
60
ENDCHAR
STARTCHAR 02DB
ENCODING 731
SWIDTH 288 0
DWIDTH 4 0
BBX 4 4 0 -4
BITMAP
20
40
C0
F0
ENDCHAR
STARTCHAR 02DC
ENCODING 732
SWIDTH 288 0
DWIDTH 4 0
BBX 4 1 0 8
BITMAP
F0
ENDCHAR
STARTCHAR 02DD
ENCODING 733
SWIDTH 288 0
DWIDTH 4 0
BBX 4 3 0 7
BITMAP
D0
B0
20
ENDCHAR
STARTCHAR 0300
ENCODING 768
SWIDTH 0 0
DWIDTH 0 0
BBX 2 3 1 7
BITMAP
C0
40
40
ENDCHAR
STARTCHAR 0301
ENCODING 769
SWIDTH 0 0
DWIDTH 0 0
BBX 2 3 1 7
BITMAP
C0
80
80
ENDCHAR
STARTCHAR 0302
ENCODING 770
SWIDTH 0 0
DWIDTH 0 0
BBX 5 3 1 7
BITMAP
20
70
88
ENDCHAR
STARTCHAR 0303
ENCODING 771
SWIDTH 0 0
DWIDTH 0 0
BBX 5 1 1 8
BITMAP
F8
ENDCHAR
STARTCHAR 0304
ENCODING 772
SWIDTH 0 0
DWIDTH 0 0
BBX 5 1 1 8
BITMAP
F8
ENDCHAR
STARTCHAR 0306
ENCODING 774
SWIDTH 0 0
DWIDTH 0 0
BBX 5 3 1 7
BITMAP
88
F8
70
ENDCHAR
STARTCHAR 0307
ENCODING 775
SWIDTH 0 0
DWIDTH 0 0
BBX 2 2 1 7
BITMAP
C0
C0
ENDCHAR
STARTCHAR 0308
ENCODING 776
SWIDTH 0 0
DWIDTH 0 0
BBX 5 2 1 7
BITMAP
D8
D8
ENDCHAR
STARTCHAR 0309
ENCODING 777
SWIDTH 0 0
DWIDTH 0 0
BBX 3 3 1 7
BITMAP
E0
A0
40
ENDCHAR
STARTCHAR 030A
ENCODING 778
SWIDTH 0 0
DWIDTH 0 0
BBX 3 3 1 7
BITMAP
E0
A0
C0
ENDCHAR
STARTCHAR 030B
ENCODING 779
SWIDTH 0 0
DWIDTH 0 0
BBX 5 3 1 7
BITMAP
D8
90
A0
ENDCHAR
STARTCHAR 030C
ENCODING 780
SWIDTH 0 0
DWIDTH 0 0
BBX 5 3 1 7
BITMAP
88
70
60
ENDCHAR
STARTCHAR 030F
ENCODING 783
SWIDTH 0 0
DWIDTH 0 0
BBX 5 3 1 7
BITMAP
F0
58
48
ENDCHAR
STARTCHAR 0311
ENCODING 785
SWIDTH 0 0
DWIDTH 0 0
BBX 5 3 1 7
BITMAP
70
D8
88
ENDCHAR
STARTCHAR 0312
ENCODING 786
SWIDTH 0 0
DWIDTH 0 0
BBX 2 3 1 7
BITMAP
80
C0
C0
ENDCHAR
STARTCHAR 0313
ENCODING 787
SWIDTH 0 0
DWIDTH 0 0
BBX 2 3 1 7
BITMAP
C0
C0
80
ENDCHAR
STARTCHAR 031B
ENCODING 795
SWIDTH 0 0
DWIDTH 0 0
BBX 3 3 -1 5
BITMAP
60
60
80
ENDCHAR
STARTCHAR 0323
ENCODING 803
SWIDTH 0 0
DWIDTH 0 0
BBX 2 2 1 -3
BITMAP
C0
C0
ENDCHAR
STARTCHAR 0324
ENCODING 804
SWIDTH 0 0
DWIDTH 0 0
BBX 5 2 1 -3
BITMAP
D8
D8
ENDCHAR
STARTCHAR 0325
ENCODING 805
SWIDTH 0 0
DWIDTH 0 0
BBX 3 2 1 -3
BITMAP
E0
E0
ENDCHAR
STARTCHAR 0326
ENCODING 806
SWIDTH 0 0
DWIDTH 0 0
BBX 2 3 1 -4
BITMAP
C0
40
80
ENDCHAR
STARTCHAR 0327
ENCODING 807
SWIDTH 0 0
DWIDTH 0 0
BBX 2 3 1 -3
BITMAP
80
C0
C0
ENDCHAR
STARTCHAR 0328
ENCODING 808
SWIDTH 0 0
DWIDTH 0 0
BBX 3 3 1 -3
BITMAP
C0
80
E0
ENDCHAR
STARTCHAR 032E
ENCODING 814
SWIDTH 0 0
DWIDTH 0 0
BBX 4 2 1 -3
BITMAP
90
60
ENDCHAR
STARTCHAR 0331
ENCODING 817
SWIDTH 0 0
DWIDTH 0 0
BBX 5 1 1 -2
BITMAP
F8
ENDCHAR
STARTCHAR 0335
ENCODING 821
SWIDTH 0 0
DWIDTH 0 0
BBX 4 1 1 4
BITMAP
F0
ENDCHAR
STARTCHAR 0336
ENCODING 822
SWIDTH 0 0
DWIDTH 0 0
BBX 8 1 1 3
BITMAP
FF
ENDCHAR
STARTCHAR 0337
ENCODING 823
SWIDTH 0 0
DWIDTH 0 0
BBX 6 4 1 3
BITMAP
04
0C
30
C0
ENDCHAR
STARTCHAR 0338
ENCODING 824
SWIDTH 0 0
DWIDTH 0 0
BBX 6 4 1 3
BITMAP
04
0C
30
C0
ENDCHAR
STARTCHAR 0374
ENCODING 884
SWIDTH 288 0
DWIDTH 4 0
BBX 2 4 1 6
BITMAP
40
C0
80
80
ENDCHAR
STARTCHAR 0375
ENCODING 885
SWIDTH 288 0
DWIDTH 4 0
BBX 2 4 1 -3
BITMAP
40
40
C0
80
ENDCHAR
STARTCHAR 037E
ENCODING 894
SWIDTH 288 0
DWIDTH 4 0
BBX 2 9 1 -3
BITMAP
C0
C0
00
00
40
C0
40
40
80
ENDCHAR
STARTCHAR 0384
ENCODING 900
SWIDTH 288 0
DWIDTH 4 0
BBX 2 3 1 7
BITMAP
C0
80
80
ENDCHAR
STARTCHAR 0385
ENCODING 901
SWIDTH 288 0
DWIDTH 4 0
BBX 6 3 -1 7
BITMAP
10
DC
6C
ENDCHAR
STARTCHAR 0386
ENCODING 902
SWIDTH 648 0
DWIDTH 9 0
BBX 10 9 0 1
BITMAP
4C00
4C00
1E00
1600
2600
2300
3F00
4380
E3C0
ENDCHAR
STARTCHAR 0387
ENCODING 903
SWIDTH 216 0
DWIDTH 3 0
BBX 2 2 1 4
BITMAP
C0
C0
ENDCHAR
STARTCHAR 0388
ENCODING 904
SWIDTH 576 0
DWIDTH 8 0
BBX 10 10 -2 0
BITMAP
4000
DFC0
8C40
0C00
0D00
0F00
0D00
0C40
0C40
1FC0
ENDCHAR
STARTCHAR 0389
ENCODING 905
SWIDTH 720 0
DWIDTH 10 0
BBX 12 9 -2 1
BITMAP
DC70
8C60
0C60
0C60
0FE0
0C60
0C60
0C60
1EF0
ENDCHAR
STARTCHAR 038A
ENCODING 906
SWIDTH 360 0
DWIDTH 5 0
BBX 7 9 -2 1
BITMAP
DC
8C
0C
0C
0C
0C
0C
0C
1E
ENDCHAR
STARTCHAR 038C
ENCODING 908
SWIDTH 720 0
DWIDTH 10 0
BBX 11 10 -1 0
BITMAP
0200
9D80
B0C0
30E0
3060
7060
3060
30C0
18C0
0F80
ENDCHAR
STARTCHAR 038E
ENCODING 910
SWIDTH 576 0
DWIDTH 8 0
BBX 10 9 -2 1
BITMAP
9CC0
9C80
0C80
0F00
0700
0600
0600
0700
0F80
ENDCHAR
STARTCHAR 038F
ENCODING 911
SWIDTH 792 0
DWIDTH 11 0
BBX 11 10 0 0
BITMAP
8000
9B80
B0C0
60C0
60E0
60C0
30C0
5080
79E0
79E0
ENDCHAR
STARTCHAR 0390
ENCODING 912
SWIDTH 288 0
DWIDTH 4 0
BBX 5 10 0 0
BITMAP
30
E8
A8
00
E0
60
60
60
20
38
ENDCHAR
STARTCHAR 0391
ENCODING 913
SWIDTH 648 0
DWIDTH 9 0
BBX 10 9 0 0
BITMAP
0C00
0C00
1E00
1600
2600
2300
3F00
4380
E3C0
ENDCHAR
STARTCHAR 0392
ENCODING 914
SWIDTH 648 0
DWIDTH 9 0
BBX 8 9 1 0
BITMAP
FE
66
66
6C
7E
67
67
66
FC
ENDCHAR
STARTCHAR 0393
ENCODING 915
SWIDTH 576 0
DWIDTH 8 0
BBX 7 9 1 0
BITMAP
FE
62
60
60
60
60
60
60
F0
ENDCHAR
STARTCHAR 0394
ENCODING 916
SWIDTH 648 0
DWIDTH 9 0
BBX 9 9 0 1
BITMAP
0800
1C00
1C00
2600
2600
4700
4300
8380
FF80
ENDCHAR
STARTCHAR 0395
ENCODING 917
SWIDTH 576 0
DWIDTH 8 0
BBX 7 9 1 0
BITMAP
FE
62
60
68
78
68
62
62
FE
ENDCHAR
STARTCHAR 0396
ENCODING 918
SWIDTH 576 0
DWIDTH 8 0
BBX 7 9 1 0
BITMAP
FC
8C
18
38
30
70
60
E6
FE
ENDCHAR
STARTCHAR 0397
ENCODING 919
SWIDTH 720 0
DWIDTH 10 0
BBX 9 9 1 0
BITMAP
E380
6300
6300
6300
7F00
6300
6300
6300
F780
ENDCHAR
STARTCHAR 0398
ENCODING 920
SWIDTH 720 0
DWIDTH 10 0
BBX 10 10 0 0
BITMAP
0400
3B00
6180
61C0
60C0
FEC0
60C0
6180
3180
1F00
ENDCHAR
STARTCHAR 0399
ENCODING 921
SWIDTH 360 0
DWIDTH 5 0
BBX 4 9 1 0
BITMAP
E0
60
60
60
60
60
60
60
F0
ENDCHAR
STARTCHAR 039A
ENCODING 922
SWIDTH 720 0
DWIDTH 10 0
BBX 9 9 1 0
BITMAP
E700
6400
6800
7000
7800
7C00
6E00
6600
F380
ENDCHAR
STARTCHAR 039B
ENCODING 923
SWIDTH 648 0
DWIDTH 9 0
BBX 9 9 0 0
BITMAP
0800
1C00
1C00
2E00
2600
2600
4300
4300
E780
ENDCHAR
STARTCHAR 039C
ENCODING 924
SWIDTH 936 0
DWIDTH 13 0
BBX 13 9 0 0
BITMAP
7070
3870
38F0
3CB0
2CB0
4F30
4730
4630
E278
ENDCHAR
STARTCHAR 039D
ENCODING 925
SWIDTH 720 0
DWIDTH 10 0
BBX 8 9 1 0
BITMAP
E3
71
71
79
5D
4F
47
C7
E3
ENDCHAR
STARTCHAR 039E
ENCODING 926
SWIDTH 576 0
DWIDTH 8 0
BBX 7 9 1 0
BITMAP
FE
82
00
4C
7C
44
02
86
FE
ENDCHAR
STARTCHAR 039F
ENCODING 927
SWIDTH 720 0
DWIDTH 10 0
BBX 10 10 0 0
BITMAP
0400
3B00
6180
61C0
60C0
E0C0
60C0
6180
3180
1F00
ENDCHAR
STARTCHAR 03A0
ENCODING 928
SWIDTH 720 0
DWIDTH 10 0
BBX 9 9 1 0
BITMAP
FF80
6300
6300
6300
6300
6300
6300
6300
F780
ENDCHAR
STARTCHAR 03A1
ENCODING 929
SWIDTH 576 0
DWIDTH 8 0
BBX 7 9 1 0
BITMAP
FE
66
66
66
66
78
60
60
F0
ENDCHAR
STARTCHAR 03A3
ENCODING 931
SWIDTH 576 0
DWIDTH 8 0
BBX 7 9 1 0
BITMAP
FC
66
70
38
18
30
62
E2
FE
ENDCHAR
STARTCHAR 03A4
ENCODING 932
SWIDTH 648 0
DWIDTH 9 0
BBX 9 9 0 0
BITMAP
7F80
CC80
0C00
0C00
0C00
0C00
0C00
1C00
3E00
ENDCHAR
STARTCHAR 03A5
ENCODING 933
SWIDTH 576 0
DWIDTH 8 0
BBX 7 9 1 0
BITMAP
E6
E4
64
78
38
30
30
38
7C
ENDCHAR
STARTCHAR 03A6
ENCODING 934
SWIDTH 720 0
DWIDTH 10 0
BBX 10 9 0 0
BITMAP
0E00
1F00
6DC0
6CC0
ECC0
6CC0
7D80
0E00
1E00
ENDCHAR
STARTCHAR 03A7
ENCODING 935
SWIDTH 648 0
DWIDTH 9 0
BBX 9 9 0 0
BITMAP
7180
3100
1A00
1C00
0C00
1E00
3700
2300
F780
ENDCHAR
STARTCHAR 03A8
ENCODING 936
SWIDTH 792 0
DWIDTH 11 0
BBX 11 9 0 1
BITMAP
EE60
66C0
66C0
66C0
76C0
1F80
0600
0600
1F00
ENDCHAR
STARTCHAR 03A9
ENCODING 937
SWIDTH 792 0
DWIDTH 11 0
BBX 10 9 1 1
BITMAP
3700
6180
C180
C1C0
C180
6180
A100
F3C0
F3C0
ENDCHAR
STARTCHAR 03AA
ENCODING 938
SWIDTH 360 0
DWIDTH 5 0
BBX 5 12 0 0
BITMAP
D8
D8
00
70
30
30
30
30
30
30
30
78
ENDCHAR
STARTCHAR 03AB
ENCODING 939
SWIDTH 576 0
DWIDTH 8 0
BBX 7 12 1 0
BITMAP
26
26
00
E6
E4
64
78
38
30
30
38
7C
ENDCHAR
STARTCHAR 03AC
ENCODING 940
SWIDTH 648 0
DWIDTH 9 0
BBX 9 10 0 0
BITMAP
1800
1800
1000
0000
7B00
6600
6600
E600
6600
7B80
ENDCHAR
STARTCHAR 03AD
ENCODING 941
SWIDTH 432 0
DWIDTH 6 0
BBX 6 10 0 0
BITMAP
18
10
10
00
78
60
30
60
E4
7C
ENDCHAR
STARTCHAR 03AE
ENCODING 942
SWIDTH 576 0
DWIDTH 8 0
BBX 8 13 0 -3
BITMAP
0C
08
08
00
EE
73
63
63
63
63
03
03
03
ENDCHAR
STARTCHAR 03AF
ENCODING 943
SWIDTH 288 0
DWIDTH 4 0
BBX 5 10 0 0
BITMAP
30
20
20
00
E0
60
60
60
20
38
ENDCHAR
STARTCHAR 03B0
ENCODING 944
SWIDTH 504 0
DWIDTH 7 0
BBX 7 10 0 0
BITMAP
18
74
54
00
EE
62
62
62
64
38
ENDCHAR
STARTCHAR 03B1
ENCODING 945
SWIDTH 648 0
DWIDTH 9 0
BBX 9 6 0 0
BITMAP
7B00
6600
6600
E600
6600
7B80
ENDCHAR
STARTCHAR 03B2
ENCODING 946
SWIDTH 576 0
DWIDTH 8 0
BBX 7 13 1 -3
BITMAP
78
CC
CC
CC
F8
DC
CC
CE
CC
F8
C0
C0
C0
ENDCHAR
STARTCHAR 03B3
ENCODING 947
SWIDTH 504 0
DWIDTH 7 0
BBX 6 9 1 -3
BITMAP
CC
68
68
30
30
30
30
58
70
ENDCHAR
STARTCHAR 03B4
ENCODING 948
SWIDTH 504 0
DWIDTH 7 0
BBX 7 10 0 0
BITMAP
3C
3C
20
30
3C
6E
66
E6
66
7C
ENDCHAR
STARTCHAR 03B5
ENCODING 949
SWIDTH 432 0
DWIDTH 6 0
BBX 6 6 0 0
BITMAP
78
60
30
60
E4
7C
ENDCHAR
STARTCHAR 03B6
ENCODING 950
SWIDTH 432 0
DWIDTH 6 0
BBX 5 13 1 -3
BITMAP
F8
F8
90
20
40
C0
C0
C0
F0
78
18
18
30
ENDCHAR
STARTCHAR 03B7
ENCODING 951
SWIDTH 576 0
DWIDTH 8 0
BBX 8 9 0 -3
BITMAP
EE
73
63
63
63
63
03
03
03
ENDCHAR
STARTCHAR 03B8
ENCODING 952
SWIDTH 504 0
DWIDTH 7 0
BBX 7 10 0 0
BITMAP
3C
66
66
66
FE
F6
66
66
66
3C
ENDCHAR
STARTCHAR 03B9
ENCODING 953
SWIDTH 288 0
DWIDTH 4 0
BBX 5 6 0 0
BITMAP
E0
60
60
60
20
38
ENDCHAR
STARTCHAR 03BA
ENCODING 954
SWIDTH 576 0
DWIDTH 8 0
BBX 8 6 0 0
BITMAP
E6
6C
78
6C
66
67
ENDCHAR
STARTCHAR 03BB
ENCODING 955
SWIDTH 504 0
DWIDTH 7 0
BBX 8 10 0 0
BITMAP
70
30
18
18
38
3C
2C
6C
6C
C7
ENDCHAR
STARTCHAR 03BC
ENCODING 956
SWIDTH 576 0
DWIDTH 8 0
BBX 8 9 0 -3
BITMAP
E7
63
63
63
67
7B
60
60
60
ENDCHAR
STARTCHAR 03BD
ENCODING 957
SWIDTH 504 0
DWIDTH 7 0
BBX 7 6 0 0
BITMAP
EE
62
34
34
38
10
ENDCHAR
STARTCHAR 03BE
ENCODING 958
SWIDTH 432 0
DWIDTH 6 0
BBX 5 13 1 -3
BITMAP
F8
F8
60
C0
C0
70
E0
C0
C0
F8
18
18
30
ENDCHAR
STARTCHAR 03BF
ENCODING 959
SWIDTH 504 0
DWIDTH 7 0
BBX 6 6 1 0
BITMAP
FC
CC
CC
CC
CC
78
ENDCHAR
STARTCHAR 03C0
ENCODING 960
SWIDTH 576 0
DWIDTH 8 0
BBX 7 7 1 0
BITMAP
02
FE
48
48
48
48
CE
ENDCHAR
STARTCHAR 03C1
ENCODING 961
SWIDTH 504 0
DWIDTH 7 0
BBX 6 9 1 -3
BITMAP
FC
CC
CC
CC
CC
F8
C0
C0
C0
ENDCHAR
STARTCHAR 03C2
ENCODING 962
SWIDTH 432 0
DWIDTH 6 0
BBX 6 9 0 -3
BITMAP
7C
44
C0
60
78
3C
0C
0C
18
ENDCHAR
STARTCHAR 03C3
ENCODING 963
SWIDTH 576 0
DWIDTH 8 0
BBX 8 7 1 0
BITMAP
01
FF
CC
CC
CC
CC
78
ENDCHAR
STARTCHAR 03C4
ENCODING 964
SWIDTH 360 0
DWIDTH 5 0
BBX 5 7 0 0
BITMAP
08
F8
B0
30
30
30
38
ENDCHAR
STARTCHAR 03C5
ENCODING 965
SWIDTH 504 0
DWIDTH 7 0
BBX 7 6 0 0
BITMAP
EE
62
62
62
64
38
ENDCHAR
STARTCHAR 03C6
ENCODING 966
SWIDTH 720 0
DWIDTH 10 0
BBX 9 9 1 -3
BITMAP
4F80
CD80
D980
D980
D980
7F00
1800
1C00
1C00
ENDCHAR
STARTCHAR 03C7
ENCODING 967
SWIDTH 504 0
DWIDTH 7 0
BBX 7 9 0 -3
BITMAP
E6
34
34
18
18
38
2C
4C
6E
ENDCHAR
STARTCHAR 03C8
ENCODING 968
SWIDTH 720 0
DWIDTH 10 0
BBX 10 13 0 -3
BITMAP
0E00
0E00
0600
0600
E7C0
66C0
6640
66C0
7680
3F00
0600
0600
0600
ENDCHAR
STARTCHAR 03C9
ENCODING 969
SWIDTH 720 0
DWIDTH 10 0
BBX 9 6 1 0
BITMAP
C300
C980
C980
C980
C980
7700
ENDCHAR
STARTCHAR 03CA
ENCODING 970
SWIDTH 288 0
DWIDTH 4 0
BBX 5 9 0 0
BITMAP
D8
D8
00
E0
60
60
60
20
38
ENDCHAR
STARTCHAR 03CB
ENCODING 971
SWIDTH 504 0
DWIDTH 7 0
BBX 7 9 0 0
BITMAP
6C
6C
00
EE
62
62
62
64
38
ENDCHAR
STARTCHAR 03CC
ENCODING 972
SWIDTH 504 0
DWIDTH 7 0
BBX 6 10 1 0
BITMAP
30
30
20
00
FC
CC
CC
CC
CC
78
ENDCHAR
STARTCHAR 03CD
ENCODING 973
SWIDTH 504 0
DWIDTH 7 0
BBX 7 10 0 0
BITMAP
18
10
10
00
EE
62
62
62
64
38
ENDCHAR
STARTCHAR 03CE
ENCODING 974
SWIDTH 720 0
DWIDTH 10 0
BBX 9 10 1 0
BITMAP
0800
0800
0800
0000
C300
C980
C980
C980
C980
7700
ENDCHAR
STARTCHAR 03CF
ENCODING 975
SWIDTH 720 0
DWIDTH 10 0
BBX 9 12 1 -3
BITMAP
E700
6400
6800
7000
7800
7C00
6E00
6600
F780
0600
0C00
0E00
ENDCHAR
STARTCHAR 03D1
ENCODING 977
SWIDTH 576 0
DWIDTH 8 0
BBX 8 10 0 0
BITMAP
3C
66
66
66
3E
07
E6
66
66
3C
ENDCHAR
STARTCHAR 03D2
ENCODING 978
SWIDTH 648 0
DWIDTH 9 0
BBX 9 9 0 1
BITMAP
F380
3280
1C00
1C00
0C00
0C00
0C00
0C00
3E00
ENDCHAR
STARTCHAR 03D5
ENCODING 981
SWIDTH 720 0
DWIDTH 10 0
BBX 9 13 1 -3
BITMAP
1800
1800
1800
1800
FF00
D980
D980
D980
D980
7F00
1800
1800
1C00
ENDCHAR
STARTCHAR 03D6
ENCODING 982
SWIDTH 792 0
DWIDTH 11 0
BBX 10 7 1 0
BITMAP
0040
FFC0
A100
6580
6DC0
6580
3B80
ENDCHAR
STARTCHAR 03D7
ENCODING 983
SWIDTH 576 0
DWIDTH 8 0
BBX 8 9 0 -3
BITMAP
E6
6C
78
6C
66
67
01
03
3E
ENDCHAR
STARTCHAR 03F0
ENCODING 1008
SWIDTH 576 0
DWIDTH 8 0
BBX 8 6 0 0
BITMAP
E7
2E
3C
3C
77
67
ENDCHAR
STARTCHAR 03F1
ENCODING 1009
SWIDTH 504 0
DWIDTH 7 0
BBX 7 9 0 -3
BITMAP
7E
66
66
E6
E6
7C
40
7C
3E
ENDCHAR
STARTCHAR 03F2
ENCODING 1010
SWIDTH 432 0
DWIDTH 6 0
BBX 6 6 0 0
BITMAP
7C
64
C0
60
60
3C
ENDCHAR
STARTCHAR 03F4
ENCODING 1012
SWIDTH 720 0
DWIDTH 10 0
BBX 10 10 0 0
BITMAP
0400
3B00
6180
61C0
60C0
FFC0
60C0
6180
3180
1F00
ENDCHAR
STARTCHAR 03F6
ENCODING 1014
SWIDTH 432 0
DWIDTH 6 0
BBX 6 6 0 0
BITMAP
78
CC
3C
0C
CC
F8
ENDCHAR
STARTCHAR 03F7
ENCODING 1015
SWIDTH 576 0
DWIDTH 8 0
BBX 7 9 1 0
BITMAP
E0
78
6E
66
66
66
7C
60
F0
ENDCHAR
STARTCHAR 03F8
ENCODING 1016
SWIDTH 576 0
DWIDTH 8 0
BBX 7 13 1 -3
BITMAP
C0
C0
C0
C0
FE
E6
C6
C6
C6
FC
C0
C0
E0
ENDCHAR
STARTCHAR 03F9
ENCODING 1017
SWIDTH 576 0
DWIDTH 8 0
BBX 8 9 0 1
BITMAP
3B
61
60
60
E0
60
60
30
1F
ENDCHAR
STARTCHAR 0400
ENCODING 1024
SWIDTH 576 0
DWIDTH 8 0
BBX 7 12 1 0
BITMAP
20
10
00
FE
62
60
68
78
68
62
62
FE
ENDCHAR
STARTCHAR 0401
ENCODING 1025
SWIDTH 576 0
DWIDTH 8 0
BBX 7 12 1 0
BITMAP
6C
4C
00
FE
62
60
68
78
68
62
62
FE
ENDCHAR
STARTCHAR 0402
ENCODING 1026
SWIDTH 792 0
DWIDTH 11 0
BBX 11 9 0 0
BITMAP
7F80
CC80
0C00
0C00
0FC0
0CE0
0C60
1CC0
1DC0
ENDCHAR
STARTCHAR 0403
ENCODING 1027
SWIDTH 576 0
DWIDTH 8 0
BBX 7 13 1 0
BITMAP
18
10
00
00
FE
62
60
60
60
60
60
60
F0
ENDCHAR
STARTCHAR 0404
ENCODING 1028
SWIDTH 576 0
DWIDTH 8 0
BBX 8 9 0 1
BITMAP
3B
61
60
60
FE
60
61
71
1F
ENDCHAR
STARTCHAR 0405
ENCODING 1029
SWIDTH 504 0
DWIDTH 7 0
BBX 6 9 1 1
BITMAP
FC
CC
C0
F0
7C
1C
8C
8C
F8
ENDCHAR
STARTCHAR 0406
ENCODING 1030
SWIDTH 360 0
DWIDTH 5 0
BBX 4 9 1 0
BITMAP
E0
60
60
60
60
60
60
60
F0
ENDCHAR
STARTCHAR 0407
ENCODING 1031
SWIDTH 360 0
DWIDTH 5 0
BBX 5 12 0 0
BITMAP
D8
D8
00
70
30
30
30
30
30
30
30
78
ENDCHAR
STARTCHAR 0408
ENCODING 1032
SWIDTH 360 0
DWIDTH 5 0
BBX 4 12 0 -3
BITMAP
70
70
70
70
70
70
70
70
60
60
60
C0
ENDCHAR
STARTCHAR 0409
ENCODING 1033
SWIDTH 936 0
DWIDTH 13 0
BBX 13 9 0 0
BITMAP
3F80
1300
1300
1300
13F0
1330
2338
E330
E7E0
ENDCHAR
STARTCHAR 040A
ENCODING 1034
SWIDTH 1008 0
DWIDTH 14 0
BBX 13 9 1 0
BITMAP
E780
6300
6300
6300
7FF0
6330
6338
6330
F7E0
ENDCHAR
STARTCHAR 040B
ENCODING 1035
SWIDTH 864 0
DWIDTH 12 0
BBX 12 9 0 0
BITMAP
7F80
CC80
0C00
0C00
0FC0
0CC0
0C60
1C60
1EF0
ENDCHAR
STARTCHAR 040C
ENCODING 1036
SWIDTH 720 0
DWIDTH 10 0
BBX 9 13 1 0
BITMAP
0C00
0800
0000
0000
E300
6600
6400
6800
7C00
6C00
6600
6700
F380
ENDCHAR
STARTCHAR 040D
ENCODING 1037
SWIDTH 720 0
DWIDTH 10 0
BBX 9 12 1 0
BITMAP
1800
0800
0000
E380
6700
6700
6B00
6B00
7300
7300
6300
E780
ENDCHAR
STARTCHAR 040E
ENCODING 1038
SWIDTH 648 0
DWIDTH 9 0
BBX 8 12 1 0
BITMAP
66
3C
00
E3
E2
62
34
3C
18
18
F0
E0
ENDCHAR
STARTCHAR 040F
ENCODING 1039
SWIDTH 720 0
DWIDTH 10 0
BBX 9 11 1 -2
BITMAP
E780
6300
6300
6300
6300
6300
6300
6300
FF80
0800
0800
ENDCHAR
STARTCHAR 0410
ENCODING 1040
SWIDTH 648 0
DWIDTH 9 0
BBX 10 9 0 0
BITMAP
0C00
0C00
1E00
1600
2600
2300
3F00
4380
E3C0
ENDCHAR
STARTCHAR 0411
ENCODING 1041
SWIDTH 648 0
DWIDTH 9 0
BBX 8 9 1 0
BITMAP
FE
62
60
60
7E
67
67
66
FC
ENDCHAR
STARTCHAR 0412
ENCODING 1042
SWIDTH 648 0
DWIDTH 9 0
BBX 8 9 1 0
BITMAP
FE
66
66
6C
7E
67
67
66
FC
ENDCHAR
STARTCHAR 0413
ENCODING 1043
SWIDTH 576 0
DWIDTH 8 0
BBX 7 9 1 0
BITMAP
FE
62
60
60
60
60
60
60
F0
ENDCHAR
STARTCHAR 0414
ENCODING 1044
SWIDTH 720 0
DWIDTH 10 0
BBX 10 11 0 -2
BITMAP
3F80
1300
1300
1300
1300
1300
2300
2300
FFC0
C0C0
C0C0
ENDCHAR
STARTCHAR 0415
ENCODING 1045
SWIDTH 576 0
DWIDTH 8 0
BBX 7 9 1 0
BITMAP
FE
62
60
68
78
68
62
62
FE
ENDCHAR
STARTCHAR 0416
ENCODING 1046
SWIDTH 1008 0
DWIDTH 14 0
BBX 15 9 0 0
BITMAP
739C
1310
0B20
0F60
1F60
1B30
3B30
3318
F79E
ENDCHAR
STARTCHAR 0417
ENCODING 1047
SWIDTH 576 0
DWIDTH 8 0
BBX 7 9 1 1
BITMAP
DC
8C
0C
18
3C
0C
8E
8C
F8
ENDCHAR
STARTCHAR 0418
ENCODING 1048
SWIDTH 720 0
DWIDTH 10 0
BBX 9 9 1 0
BITMAP
E380
6700
6700
6B00
6B00
7300
7300
6300
E780
ENDCHAR
STARTCHAR 0419
ENCODING 1049
SWIDTH 720 0
DWIDTH 10 0
BBX 9 12 1 0
BITMAP
2200
3C00
0000
E380
6700
6700
6B00
6B00
7300
7300
6300
E780
ENDCHAR
STARTCHAR 041A
ENCODING 1050
SWIDTH 720 0
DWIDTH 10 0
BBX 9 9 1 0
BITMAP
E300
6600
6400
6800
7C00
6C00
6600
6700
F380
ENDCHAR
STARTCHAR 041B
ENCODING 1051
SWIDTH 648 0
DWIDTH 9 0
BBX 9 9 0 0
BITMAP
3F80
1300
1300
1300
1300
1300
2300
E300
E780
ENDCHAR
STARTCHAR 041C
ENCODING 1052
SWIDTH 936 0
DWIDTH 13 0
BBX 13 9 0 0
BITMAP
7070
3870
38F0
3CB0
2CB0
4F30
4730
4630
E278
ENDCHAR
STARTCHAR 041D
ENCODING 1053
SWIDTH 720 0
DWIDTH 10 0
BBX 9 9 1 0
BITMAP
E380
6300
6300
6300
7F00
6300
6300
6300
F780
ENDCHAR
STARTCHAR 041E
ENCODING 1054
SWIDTH 720 0
DWIDTH 10 0
BBX 10 10 0 0
BITMAP
0400
3B00
6180
61C0
60C0
E0C0
60C0
6180
3180
1F00
ENDCHAR
STARTCHAR 041F
ENCODING 1055
SWIDTH 720 0
DWIDTH 10 0
BBX 9 9 1 0
BITMAP
FF80
6300
6300
6300
6300
6300
6300
6300
F780
ENDCHAR
STARTCHAR 0420
ENCODING 1056
SWIDTH 576 0
DWIDTH 8 0
BBX 7 9 1 0
BITMAP
FE
66
66
66
66
78
60
60
F0
ENDCHAR
STARTCHAR 0421
ENCODING 1057
SWIDTH 576 0
DWIDTH 8 0
BBX 8 9 0 1
BITMAP
3B
61
60
60
E0
60
60
30
1F
ENDCHAR
STARTCHAR 0422
ENCODING 1058
SWIDTH 648 0
DWIDTH 9 0
BBX 9 9 0 0
BITMAP
7F80
CC80
0C00
0C00
0C00
0C00
0C00
1C00
3E00
ENDCHAR
STARTCHAR 0423
ENCODING 1059
SWIDTH 648 0
DWIDTH 9 0
BBX 8 9 1 0
BITMAP
E3
E2
62
34
3C
18
18
F0
E0
ENDCHAR
STARTCHAR 0424
ENCODING 1060
SWIDTH 864 0
DWIDTH 12 0
BBX 11 10 1 0
BITMAP
1E00
0C00
7F80
CCC0
CCE0
CCC0
CCC0
7F80
0C00
1E00
ENDCHAR
STARTCHAR 0425
ENCODING 1061
SWIDTH 648 0
DWIDTH 9 0
BBX 9 9 0 0
BITMAP
7180
3100
1A00
1C00
0C00
1E00
3700
2300
F780
ENDCHAR
STARTCHAR 0426
ENCODING 1062
SWIDTH 792 0
DWIDTH 11 0
BBX 10 11 1 -2
BITMAP
E780
6300
6300
6300
6300
6300
6300
6300
FFC0
00C0
00C0
ENDCHAR
STARTCHAR 0427
ENCODING 1063
SWIDTH 720 0
DWIDTH 10 0
BBX 9 9 1 0
BITMAP
E700
E300
E300
6300
7F00
0300
0300
0700
0F80
ENDCHAR
STARTCHAR 0428
ENCODING 1064
SWIDTH 1008 0
DWIDTH 14 0
BBX 13 9 1 0
BITMAP
E738
6630
6630
6630
6630
6630
6630
6630
FFF8
ENDCHAR
STARTCHAR 0429
ENCODING 1065
SWIDTH 1080 0
DWIDTH 15 0
BBX 14 11 1 -2
BITMAP
E738
6630
6630
6630
6630
6630
6630
6630
FFFC
000C
000C
ENDCHAR
STARTCHAR 042A
ENCODING 1066
SWIDTH 720 0
DWIDTH 10 0
BBX 10 9 0 0
BITMAP
7C00
D800
1800
1800
1FC0
18C0
18C0
1CC0
3F80
ENDCHAR
STARTCHAR 042B
ENCODING 1067
SWIDTH 936 0
DWIDTH 13 0
BBX 11 9 1 0
BITMAP
F0E0
60E0
60E0
60E0
7EE0
66E0
66E0
66E0
FDE0
ENDCHAR
STARTCHAR 042C
ENCODING 1068
SWIDTH 648 0
DWIDTH 9 0
BBX 8 9 1 0
BITMAP
F0
60
60
60
7E
67
67
66
FC
ENDCHAR
STARTCHAR 042D
ENCODING 1069
SWIDTH 576 0
DWIDTH 8 0
BBX 7 9 1 1
BITMAP
DC
86
06
06
7E
06
86
8C
F8
ENDCHAR
STARTCHAR 042E
ENCODING 1070
SWIDTH 1008 0
DWIDTH 14 0
BBX 13 10 1 0
BITMAP
0080
E370
6630
6C18
6C18
7C18
6C18
6E18
6630
F3E0
ENDCHAR
STARTCHAR 042F
ENCODING 1071
SWIDTH 648 0
DWIDTH 9 0
BBX 9 9 0 0
BITMAP
3F80
7300
7300
3300
1F00
1B00
3300
7300
E780
ENDCHAR
STARTCHAR 0430
ENCODING 1072
SWIDTH 432 0
DWIDTH 6 0
BBX 7 6 0 1
BITMAP
7C
CC
1C
6C
CC
7E
ENDCHAR
STARTCHAR 0431
ENCODING 1073
SWIDTH 504 0
DWIDTH 7 0
BBX 7 10 0 0
BITMAP
02
1E
2C
60
5C
C6
C6
C6
66
3C
ENDCHAR
STARTCHAR 0432
ENCODING 1074
SWIDTH 504 0
DWIDTH 7 0
BBX 7 6 0 0
BITMAP
7E
66
78
66
66
FE
ENDCHAR
STARTCHAR 0433
ENCODING 1075
SWIDTH 432 0
DWIDTH 6 0
BBX 6 6 0 0
BITMAP
7C
64
60
60
60
F0
ENDCHAR
STARTCHAR 0434
ENCODING 1076
SWIDTH 576 0
DWIDTH 8 0
BBX 8 8 0 -2
BITMAP
3E
26
26
26
26
FF
C1
C1
ENDCHAR
STARTCHAR 0435
ENCODING 1077
SWIDTH 504 0
DWIDTH 7 0
BBX 7 6 0 0
BITMAP
7C
64
FE
60
60
3C
ENDCHAR
STARTCHAR 0436
ENCODING 1078
SWIDTH 864 0
DWIDTH 12 0
BBX 12 6 0 0
BITMAP
6760
1640
1E80
1EC0
36E0
EF70
ENDCHAR
STARTCHAR 0437
ENCODING 1079
SWIDTH 432 0
DWIDTH 6 0
BBX 5 6 1 0
BITMAP
F8
98
70
18
98
F8
ENDCHAR
STARTCHAR 0438
ENCODING 1080
SWIDTH 576 0
DWIDTH 8 0
BBX 8 6 0 0
BITMAP
77
67
6B
6B
73
E7
ENDCHAR
STARTCHAR 0439
ENCODING 1081
SWIDTH 576 0
DWIDTH 8 0
BBX 8 10 0 0
BITMAP
22
32
1C
00
77
67
6B
6B
73
E7
ENDCHAR
STARTCHAR 043A
ENCODING 1082
SWIDTH 576 0
DWIDTH 8 0
BBX 7 6 1 0
BITMAP
EE
C8
D0
D8
CC
EE
ENDCHAR
STARTCHAR 043B
ENCODING 1083
SWIDTH 576 0
DWIDTH 8 0
BBX 8 6 0 0
BITMAP
3E
26
26
26
E6
CF
ENDCHAR
STARTCHAR 043C
ENCODING 1084
SWIDTH 720 0
DWIDTH 10 0
BBX 10 6 0 0
BITMAP
7180
3380
5D80
5D80
4D80
E9C0
ENDCHAR
STARTCHAR 043D
ENCODING 1085
SWIDTH 648 0
DWIDTH 9 0
BBX 9 6 0 0
BITMAP
7700
6300
7F00
6300
6300
F780
ENDCHAR
STARTCHAR 043E
ENCODING 1086
SWIDTH 504 0
DWIDTH 7 0
BBX 6 6 1 0
BITMAP
FC
CC
CC
CC
CC
78
ENDCHAR
STARTCHAR 043F
ENCODING 1087
SWIDTH 576 0
DWIDTH 8 0
BBX 8 6 0 0
BITMAP
7F
63
63
63
63
F7
ENDCHAR
STARTCHAR 0440
ENCODING 1088
SWIDTH 576 0
DWIDTH 8 0
BBX 8 9 0 -3
BITMAP
EF
73
63
63
63
7E
60
70
70
ENDCHAR
STARTCHAR 0441
ENCODING 1089
SWIDTH 432 0
DWIDTH 6 0
BBX 6 6 0 0
BITMAP
7C
64
C0
60
60
3C
ENDCHAR
STARTCHAR 0442
ENCODING 1090
SWIDTH 504 0
DWIDTH 7 0
BBX 7 6 0 0
BITMAP
FE
9A
18
18
18
3C
ENDCHAR
STARTCHAR 0443
ENCODING 1091
SWIDTH 504 0
DWIDTH 7 0
BBX 7 9 0 -3
BITMAP
F6
62
34
34
18
18
10
10
60
ENDCHAR
STARTCHAR 0444
ENCODING 1092
SWIDTH 792 0
DWIDTH 11 0
BBX 10 13 1 -3
BITMAP
1800
1800
0800
0800
7F80
C980
C9C0
C980
C980
7F00
0800
0800
1C00
ENDCHAR
STARTCHAR 0445
ENCODING 1093
SWIDTH 504 0
DWIDTH 7 0
BBX 7 6 0 0
BITMAP
76
34
18
3C
2C
EE
ENDCHAR
STARTCHAR 0446
ENCODING 1094
SWIDTH 648 0
DWIDTH 9 0
BBX 9 8 0 -2
BITMAP
7700
6300
6300
6300
6300
FF80
0080
0080
ENDCHAR
STARTCHAR 0447
ENCODING 1095
SWIDTH 576 0
DWIDTH 8 0
BBX 7 6 1 0
BITMAP
CC
CC
CC
7C
0C
1E
ENDCHAR
STARTCHAR 0448
ENCODING 1096
SWIDTH 864 0
DWIDTH 12 0
BBX 12 6 0 0
BITMAP
7660
6660
6660
6660
6660
FFF0
ENDCHAR
STARTCHAR 0449
ENCODING 1097
SWIDTH 864 0
DWIDTH 12 0
BBX 13 8 0 -2
BITMAP
7660
6660
6660
6660
6660
FFF8
0018
0018
ENDCHAR
STARTCHAR 044A
ENCODING 1098
SWIDTH 576 0
DWIDTH 8 0
BBX 8 6 0 0
BITMAP
F8
90
1E
13
13
3E
ENDCHAR
STARTCHAR 044B
ENCODING 1099
SWIDTH 792 0
DWIDTH 11 0
BBX 11 6 0 0
BITMAP
70E0
60C0
7CC0
66C0
66C0
FCE0
ENDCHAR
STARTCHAR 044C
ENCODING 1100
SWIDTH 504 0
DWIDTH 7 0
BBX 7 6 0 0
BITMAP
70
60
7E
66
66
FE
ENDCHAR
STARTCHAR 044D
ENCODING 1101
SWIDTH 432 0
DWIDTH 6 0
BBX 6 6 0 0
BITMAP
78
CC
3C
0C
CC
F8
ENDCHAR
STARTCHAR 044E
ENCODING 1102
SWIDTH 792 0
DWIDTH 11 0
BBX 11 6 0 0
BITMAP
77C0
6460
7C60
6C60
6660
F7C0
ENDCHAR
STARTCHAR 044F
ENCODING 1103
SWIDTH 504 0
DWIDTH 7 0
BBX 7 6 0 0
BITMAP
7E
66
66
3E
26
EE
ENDCHAR
STARTCHAR 0450
ENCODING 1104
SWIDTH 504 0
DWIDTH 7 0
BBX 7 10 0 0
BITMAP
20
10
10
00
7C
64
FE
60
60
3C
ENDCHAR
STARTCHAR 0451
ENCODING 1105
SWIDTH 504 0
DWIDTH 7 0
BBX 7 9 0 0
BITMAP
6C
6C
00
7C
64
FE
60
60
3C
ENDCHAR
STARTCHAR 0452
ENCODING 1106
SWIDTH 576 0
DWIDTH 8 0
BBX 8 13 0 -3
BITMAP
E0
60
F8
60
6E
73
63
63
63
F3
02
06
0C
ENDCHAR
STARTCHAR 0453
ENCODING 1107
SWIDTH 432 0
DWIDTH 6 0
BBX 6 10 0 0
BITMAP
08
10
10
00
7C
64
60
60
60
F0
ENDCHAR
STARTCHAR 0454
ENCODING 1108
SWIDTH 432 0
DWIDTH 6 0
BBX 6 6 0 0
BITMAP
7C
64
F8
60
64
3C
ENDCHAR
STARTCHAR 0455
ENCODING 1109
SWIDTH 432 0
DWIDTH 6 0
BBX 5 6 1 0
BITMAP
F0
D0
F0
38
98
F0
ENDCHAR
STARTCHAR 0456
ENCODING 1110
SWIDTH 288 0
DWIDTH 4 0
BBX 4 10 0 0
BITMAP
20
70
00
00
E0
60
60
60
70
70
ENDCHAR
STARTCHAR 0457
ENCODING 1111
SWIDTH 288 0
DWIDTH 4 0
BBX 5 9 0 0
BITMAP
D8
D8
00
E0
60
60
60
70
70
ENDCHAR
STARTCHAR 0458
ENCODING 1112
SWIDTH 288 0
DWIDTH 4 0
BBX 4 13 0 -3
BITMAP
20
70
00
00
E0
60
60
60
60
60
60
60
C0
ENDCHAR
STARTCHAR 0459
ENCODING 1113
SWIDTH 792 0
DWIDTH 11 0
BBX 11 6 0 0
BITMAP
3E00
2600
27C0
2660
E660
CFC0
ENDCHAR
STARTCHAR 045A
ENCODING 1114
SWIDTH 792 0
DWIDTH 11 0
BBX 11 6 0 0
BITMAP
7700
6600
7FC0
6660
6660
F7E0
ENDCHAR
STARTCHAR 045B
ENCODING 1115
SWIDTH 648 0
DWIDTH 9 0
BBX 9 10 0 0
BITMAP
6000
6000
F800
6000
6E00
7300
6300
6300
6300
F780
ENDCHAR
STARTCHAR 045C
ENCODING 1116
SWIDTH 576 0
DWIDTH 8 0
BBX 7 10 1 0
BITMAP
0C
08
10
00
EE
C8
D0
D8
CC
EE
ENDCHAR
STARTCHAR 045D
ENCODING 1117
SWIDTH 576 0
DWIDTH 8 0
BBX 8 10 0 0
BITMAP
10
18
08
00
77
67
6B
6B
73
E7
ENDCHAR
STARTCHAR 045E
ENCODING 1118
SWIDTH 504 0
DWIDTH 7 0
BBX 7 13 0 -3
BITMAP
22
26
1C
00
F6
62
34
34
18
18
10
10
60
ENDCHAR
STARTCHAR 045F
ENCODING 1119
SWIDTH 576 0
DWIDTH 8 0
BBX 8 8 0 -2
BITMAP
77
63
63
63
63
FF
08
08
ENDCHAR
STARTCHAR 0462
ENCODING 1122
SWIDTH 720 0
DWIDTH 10 0
BBX 10 10 0 0
BITMAP
3C00
1800
FF00
DB00
1800
1F00
1980
19C0
1980
3F00
ENDCHAR
STARTCHAR 0463
ENCODING 1123
SWIDTH 576 0
DWIDTH 8 0
BBX 8 10 0 0
BITMAP
30
30
30
30
FE
B2
3E
33
33
3F
ENDCHAR
STARTCHAR 046A
ENCODING 1130
SWIDTH 936 0
DWIDTH 13 0
BBX 13 9 0 0
BITMAP
3FE0
1C40
0C80
0680
1FC0
3B60
3360
3370
E7B8
ENDCHAR
STARTCHAR 046B
ENCODING 1131
SWIDTH 792 0
DWIDTH 11 0
BBX 11 6 0 0
BITMAP
3FC0
1900
0E00
3780
66C0
EEE0
ENDCHAR
STARTCHAR 0472
ENCODING 1138
SWIDTH 720 0
DWIDTH 10 0
BBX 10 10 0 0
BITMAP
0400
3B00
6180
61C0
78C0
FFC0
60C0
6180
3180
1F00
ENDCHAR
STARTCHAR 0473
ENCODING 1139
SWIDTH 504 0
DWIDTH 7 0
BBX 6 6 1 0
BITMAP
FC
CC
FC
CC
CC
78
ENDCHAR
STARTCHAR 0474
ENCODING 1140
SWIDTH 720 0
DWIDTH 10 0
BBX 9 9 1 1
BITMAP
E380
E200
6400
6400
3400
3800
3800
1800
1000
ENDCHAR
STARTCHAR 0475
ENCODING 1141
SWIDTH 504 0
DWIDTH 7 0
BBX 7 6 0 0
BITMAP
E6
64
38
38
38
10
ENDCHAR
STARTCHAR 048A
ENCODING 1162
SWIDTH 792 0
DWIDTH 11 0
BBX 10 14 1 -2
BITMAP
2200
3C00
0000
E380
6700
6700
6B00
6B00
7300
7300
6300
E7C0
00C0
0080
ENDCHAR
STARTCHAR 048B
ENCODING 1163
SWIDTH 648 0
DWIDTH 9 0
BBX 9 12 0 -2
BITMAP
2200
3200
1C00
0000
7700
6700
6B00
6B00
7300
E780
0180
0100
ENDCHAR
STARTCHAR 048C
ENCODING 1164
SWIDTH 648 0
DWIDTH 9 0
BBX 9 9 0 0
BITMAP
7800
3000
F800
3000
3F00
3380
3380
3300
7E00
ENDCHAR
STARTCHAR 048D
ENCODING 1165
SWIDTH 576 0
DWIDTH 8 0
BBX 7 10 0 0
BITMAP
E0
60
60
60
78
60
7E
66
66
FE
ENDCHAR
STARTCHAR 048E
ENCODING 1166
SWIDTH 576 0
DWIDTH 8 0
BBX 7 9 1 0
BITMAP
FE
66
62
6A
6E
7A
60
60
F0
ENDCHAR
STARTCHAR 048F
ENCODING 1167
SWIDTH 576 0
DWIDTH 8 0
BBX 8 9 0 -3
BITMAP
EF
73
63
63
67
7E
60
70
70
ENDCHAR
STARTCHAR 0490
ENCODING 1168
SWIDTH 504 0
DWIDTH 7 0
BBX 6 12 1 0
BITMAP
04
04
04
F8
60
60
60
60
60
60
60
F0
ENDCHAR
STARTCHAR 0491
ENCODING 1169
SWIDTH 432 0
DWIDTH 6 0
BBX 6 9 0 0
BITMAP
04
04
04
78
60
60
60
60
F0
ENDCHAR
STARTCHAR 0492
ENCODING 1170
SWIDTH 576 0
DWIDTH 8 0
BBX 8 9 0 0
BITMAP
7F
31
30
30
FC
30
30
30
78
ENDCHAR
STARTCHAR 0493
ENCODING 1171
SWIDTH 432 0
DWIDTH 6 0
BBX 6 6 0 0
BITMAP
7C
64
60
78
60
F0
ENDCHAR
STARTCHAR 0494
ENCODING 1172
SWIDTH 648 0
DWIDTH 9 0
BBX 7 12 1 -3
BITMAP
FE
62
60
60
7E
66
66
66
F6
06
04
0C
ENDCHAR
STARTCHAR 0495
ENCODING 1173
SWIDTH 504 0
DWIDTH 7 0
BBX 7 9 0 -3
BITMAP
7E
62
68
76
66
F6
06
06
0C
ENDCHAR
STARTCHAR 0496
ENCODING 1174
SWIDTH 1080 0
DWIDTH 15 0
BBX 15 11 0 -2
BITMAP
7398
1310
0B20
0B60
1F60
1B70
3B30
7318
E79E
0006
0006
ENDCHAR
STARTCHAR 0497
ENCODING 1175
SWIDTH 864 0
DWIDTH 12 0
BBX 12 8 0 -2
BITMAP
6660
1640
1680
3EC0
36E0
EF70
0010
0010
ENDCHAR
STARTCHAR 0498
ENCODING 1176
SWIDTH 576 0
DWIDTH 8 0
BBX 7 11 1 -1
BITMAP
DC
8C
0C
18
3C
0C
8E
8C
F8
20
20
ENDCHAR
STARTCHAR 0499
ENCODING 1177
SWIDTH 432 0
DWIDTH 6 0
BBX 5 8 1 -2
BITMAP
F8
98
70
18
98
F8
60
60
ENDCHAR
STARTCHAR 049A
ENCODING 1178
SWIDTH 720 0
DWIDTH 10 0
BBX 9 11 1 -2
BITMAP
E300
6600
6400
6800
7C00
6C00
6600
6700
F380
0080
0080
ENDCHAR
STARTCHAR 049B
ENCODING 1179
SWIDTH 576 0
DWIDTH 8 0
BBX 8 8 1 -2
BITMAP
EE
C8
D0
D8
CC
EF
03
02
ENDCHAR
STARTCHAR 049C
ENCODING 1180
SWIDTH 720 0
DWIDTH 10 0
BBX 9 9 1 0
BITMAP
E380
6280
7400
7400
7C00
7600
7600
6300
F380
ENDCHAR
STARTCHAR 049D
ENCODING 1181
SWIDTH 648 0
DWIDTH 9 0
BBX 8 6 1 0
BITMAP
E7
D4
F8
DC
C6
E7
ENDCHAR
STARTCHAR 049E
ENCODING 1182
SWIDTH 720 0
DWIDTH 10 0
BBX 10 9 0 0
BITMAP
7180
FA80
3200
3400
3E00
3700
3300
3380
79C0
ENDCHAR
STARTCHAR 049F
ENCODING 1183
SWIDTH 576 0
DWIDTH 8 0
BBX 8 10 0 0
BITMAP
60
60
FC
60
67
64
78
6C
66
F7
ENDCHAR
STARTCHAR 04A0
ENCODING 1184
SWIDTH 792 0
DWIDTH 11 0
BBX 12 9 0 0
BITMAP
7CE0
CCA0
0D00
0F00
0F80
0D80
0CC0
0CC0
3E70
ENDCHAR
STARTCHAR 04A1
ENCODING 1185
SWIDTH 648 0
DWIDTH 9 0
BBX 9 6 0 0
BITMAP
F980
9A00
1E00
1B00
1B00
3980
ENDCHAR
STARTCHAR 04A2
ENCODING 1186
SWIDTH 792 0
DWIDTH 11 0
BBX 10 11 1 -2
BITMAP
E380
6300
6300
6300
7F00
6300
6300
6300
F7C0
00C0
0040
ENDCHAR
STARTCHAR 04A3
ENCODING 1187
SWIDTH 648 0
DWIDTH 9 0
BBX 9 8 0 -2
BITMAP
7700
6300
7F00
6300
6300
F780
0080
0080
ENDCHAR
STARTCHAR 04A4
ENCODING 1188
SWIDTH 864 0
DWIDTH 12 0
BBX 11 9 1 0
BITMAP
E7E0
6320
6300
6300
7F00
6300
6300
6300
F780
ENDCHAR
STARTCHAR 04A5
ENCODING 1189
SWIDTH 720 0
DWIDTH 10 0
BBX 10 6 0 0
BITMAP
77C0
6340
7F00
6300
6300
F780
ENDCHAR
STARTCHAR 04A8
ENCODING 1192
SWIDTH 864 0
DWIDTH 12 0
BBX 12 9 0 0
BITMAP
33C0
6660
6660
6670
E670
6660
6660
33C0
1FF0
ENDCHAR
STARTCHAR 04A9
ENCODING 1193
SWIDTH 720 0
DWIDTH 10 0
BBX 10 6 0 0
BITMAP
6780
6CC0
ECC0
6C80
6D80
3FC0
ENDCHAR
STARTCHAR 04AA
ENCODING 1194
SWIDTH 576 0
DWIDTH 8 0
BBX 8 11 0 -1
BITMAP
3B
61
60
60
E0
60
60
30
1F
0C
0C
ENDCHAR
STARTCHAR 04AB
ENCODING 1195
SWIDTH 432 0
DWIDTH 6 0
BBX 6 8 0 -2
BITMAP
7C
64
C0
60
60
3C
18
10
ENDCHAR
STARTCHAR 04AC
ENCODING 1196
SWIDTH 648 0
DWIDTH 9 0
BBX 9 11 0 -2
BITMAP
7F80
CC80
0C00
0C00
0C00
0C00
0C00
1C00
3E00
0200
0200
ENDCHAR
STARTCHAR 04AD
ENCODING 1197
SWIDTH 504 0
DWIDTH 7 0
BBX 7 8 0 -2
BITMAP
FE
9A
18
18
18
3C
04
04
ENDCHAR
STARTCHAR 04AE
ENCODING 1198
SWIDTH 576 0
DWIDTH 8 0
BBX 7 9 1 0
BITMAP
E6
E4
64
78
38
30
30
38
7C
ENDCHAR
STARTCHAR 04AF
ENCODING 1199
SWIDTH 504 0
DWIDTH 7 0
BBX 7 9 0 -3
BITMAP
F6
62
34
34
18
18
18
18
3C
ENDCHAR
STARTCHAR 04B0
ENCODING 1200
SWIDTH 576 0
DWIDTH 8 0
BBX 7 9 1 0
BITMAP
E6
E4
64
78
38
7C
30
38
7C
ENDCHAR
STARTCHAR 04B1
ENCODING 1201
SWIDTH 504 0
DWIDTH 7 0
BBX 7 9 0 -3
BITMAP
F6
62
34
34
18
7E
18
18
3C
ENDCHAR
STARTCHAR 04B2
ENCODING 1202
SWIDTH 720 0
DWIDTH 10 0
BBX 10 11 0 -2
BITMAP
7180
3100
1A00
1C00
0C00
1E00
3700
2300
F7C0
00C0
00C0
ENDCHAR
STARTCHAR 04B3
ENCODING 1203
SWIDTH 504 0
DWIDTH 7 0
BBX 8 8 0 -2
BITMAP
76
34
18
3C
2C
EF
03
01
ENDCHAR
STARTCHAR 04B4
ENCODING 1204
SWIDTH 1008 0
DWIDTH 14 0
BBX 14 11 0 -2
BITMAP
7F70
CD30
0C30
0C30
0C30
0C30
0C30
0C30
1FFC
000C
000C
ENDCHAR
STARTCHAR 04B5
ENCODING 1205
SWIDTH 792 0
DWIDTH 11 0
BBX 11 8 0 -2
BITMAP
FEC0
9AC0
18C0
18C0
18C0
3FE0
0020
0020
ENDCHAR
STARTCHAR 04B6
ENCODING 1206
SWIDTH 720 0
DWIDTH 10 0
BBX 9 11 1 -2
BITMAP
E700
E300
E300
6300
7F00
0300
0300
0700
0F80
0080
0080
ENDCHAR
STARTCHAR 04B7
ENCODING 1207
SWIDTH 576 0
DWIDTH 8 0
BBX 7 8 1 -2
BITMAP
CC
CC
CC
7C
0C
1E
02
02
ENDCHAR
STARTCHAR 04B8
ENCODING 1208
SWIDTH 720 0
DWIDTH 10 0
BBX 9 9 1 0
BITMAP
E380
E300
6B00
6B00
7F00
0B00
0B00
0300
0780
ENDCHAR
STARTCHAR 04B9
ENCODING 1209
SWIDTH 648 0
DWIDTH 9 0
BBX 8 6 1 0
BITMAP
CE
D6
F6
1E
16
0F
ENDCHAR
STARTCHAR 04BA
ENCODING 1210
SWIDTH 720 0
DWIDTH 10 0
BBX 9 9 1 0
BITMAP
F000
6000
6000
7C00
6600
6300
6300
6300
F780
ENDCHAR
STARTCHAR 04BB
ENCODING 1211
SWIDTH 648 0
DWIDTH 9 0
BBX 9 10 0 0
BITMAP
6000
6000
6000
6000
7E00
6300
6300
6300
6300
F780
ENDCHAR
STARTCHAR 04BC
ENCODING 1212
SWIDTH 792 0
DWIDTH 11 0
BBX 11 9 0 0
BITMAP
0FC0
58C0
D860
5860
3FE0
1800
1800
0C20
07C0
ENDCHAR
STARTCHAR 04BD
ENCODING 1213
SWIDTH 648 0
DWIDTH 9 0
BBX 8 6 1 0
BITMAP
BE
B3
FF
30
30
1E
ENDCHAR
STARTCHAR 04BE
ENCODING 1214
SWIDTH 792 0
DWIDTH 11 0
BBX 11 11 0 -2
BITMAP
0FC0
58C0
D860
5860
3FE0
1800
1800
0C20
07C0
0100
0100
ENDCHAR
STARTCHAR 04BF
ENCODING 1215
SWIDTH 648 0
DWIDTH 9 0
BBX 8 8 1 -2
BITMAP
BE
B3
FF
30
30
1E
0C
0C
ENDCHAR
STARTCHAR 04C0
ENCODING 1216
SWIDTH 360 0
DWIDTH 5 0
BBX 4 9 1 0
BITMAP
E0
60
60
60
60
60
60
60
F0
ENDCHAR
STARTCHAR 04C1
ENCODING 1217
SWIDTH 1008 0
DWIDTH 14 0
BBX 14 12 0 0
BITMAP
0CC0
0780
0000
7398
1310
0B20
0B60
1F60
1B70
3B30
7318
E79C
ENDCHAR
STARTCHAR 04C2
ENCODING 1218
SWIDTH 864 0
DWIDTH 12 0
BBX 12 10 0 0
BITMAP
1980
1980
0700
0000
6660
1640
1680
3EC0
36E0
EF70
ENDCHAR
STARTCHAR 04C3
ENCODING 1219
SWIDTH 648 0
DWIDTH 9 0
BBX 8 12 1 -3
BITMAP
E7
65
68
78
7E
67
63
63
F3
03
06
0C
ENDCHAR
STARTCHAR 04C4
ENCODING 1220
SWIDTH 576 0
DWIDTH 8 0
BBX 8 9 0 -3
BITMAP
76
68
78
66
63
F3
02
06
0C
ENDCHAR
STARTCHAR 04C5
ENCODING 1221
SWIDTH 720 0
DWIDTH 10 0
BBX 10 11 0 -2
BITMAP
3F80
1300
1300
1300
1300
1300
2300
E300
E7C0
00C0
0080
ENDCHAR
STARTCHAR 04C6
ENCODING 1222
SWIDTH 576 0
DWIDTH 8 0
BBX 8 8 0 -2
BITMAP
3E
26
26
26
E6
CF
03
02
ENDCHAR
STARTCHAR 04C7
ENCODING 1223
SWIDTH 720 0
DWIDTH 10 0
BBX 9 12 1 -3
BITMAP
E380
6300
6300
6300
7F00
6300
6300
6300
F300
0300
0300
0600
ENDCHAR
STARTCHAR 04C8
ENCODING 1224
SWIDTH 576 0
DWIDTH 8 0
BBX 8 9 0 -3
BITMAP
77
63
7F
63
63
F3
02
06
04
ENDCHAR
STARTCHAR 04C9
ENCODING 1225
SWIDTH 792 0
DWIDTH 11 0
BBX 10 11 1 -2
BITMAP
E380
6300
6300
6300
7F00
6300
6300
6300
F7C0
00C0
0080
ENDCHAR
STARTCHAR 04CA
ENCODING 1226
SWIDTH 648 0
DWIDTH 9 0
BBX 9 8 0 -2
BITMAP
7700
6300
7F00
6300
6300
F780
0180
0100
ENDCHAR
STARTCHAR 04CB
ENCODING 1227
SWIDTH 720 0
DWIDTH 10 0
BBX 9 11 1 -2
BITMAP
E700
E300
E300
6300
7F00
0300
0300
0700
0F80
0800
0800
ENDCHAR
STARTCHAR 04CC
ENCODING 1228
SWIDTH 576 0
DWIDTH 8 0
BBX 7 8 1 -2
BITMAP
CC
CC
CC
7C
0C
3E
30
30
ENDCHAR
STARTCHAR 04CD
ENCODING 1229
SWIDTH 1008 0
DWIDTH 14 0
BBX 14 11 0 -2
BITMAP
7070
3870
38F0
3CB0
2CB0
4F30
4730
4630
E27C
000C
0018
ENDCHAR
STARTCHAR 04CE
ENCODING 1230
SWIDTH 720 0
DWIDTH 10 0
BBX 11 8 0 -2
BITMAP
7180
3380
5D80
5D80
4D80
E9E0
0060
0040
ENDCHAR
STARTCHAR 04CF
ENCODING 1231
SWIDTH 288 0
DWIDTH 4 0
BBX 4 10 0 0
BITMAP
60
60
60
60
60
60
60
60
60
F0
ENDCHAR
STARTCHAR 04D0
ENCODING 1232
SWIDTH 648 0
DWIDTH 9 0
BBX 10 12 0 0
BITMAP
3300
1E00
0000
0C00
0C00
1E00
1600
2600
2300
3F00
4380
E3C0
ENDCHAR
STARTCHAR 04D1
ENCODING 1233
SWIDTH 504 0
DWIDTH 7 0
BBX 6 10 1 0
BITMAP
C8
D8
70
00
78
D8
18
F8
DC
EC
ENDCHAR
STARTCHAR 04D2
ENCODING 1234
SWIDTH 648 0
DWIDTH 9 0
BBX 10 12 0 0
BITMAP
3600
3600
0000
0C00
0C00
1E00
1600
2600
2300
3F00
4380
E3C0
ENDCHAR
STARTCHAR 04D3
ENCODING 1235
SWIDTH 504 0
DWIDTH 7 0
BBX 6 9 1 0
BITMAP
D8
D8
00
78
D8
18
F8
DC
EC
ENDCHAR
STARTCHAR 04D4
ENCODING 1236
SWIDTH 936 0
DWIDTH 13 0
BBX 13 9 0 0
BITMAP
07F0
0710
0B00
0B20
1FE0
1320
2300
6398
E7F8
ENDCHAR
STARTCHAR 04D5
ENCODING 1237
SWIDTH 720 0
DWIDTH 10 0
BBX 9 6 1 0
BITMAP
FF00
9900
7F80
D800
9800
EF00
ENDCHAR
STARTCHAR 04D6
ENCODING 1238
SWIDTH 576 0
DWIDTH 8 0
BBX 7 12 1 0
BITMAP
44
78
00
FE
62
60
68
78
68
62
62
FE
ENDCHAR
STARTCHAR 04D7
ENCODING 1239
SWIDTH 504 0
DWIDTH 7 0
BBX 7 10 0 0
BITMAP
64
6C
38
00
7C
64
FE
60
60
3C
ENDCHAR
STARTCHAR 04D8
ENCODING 1240
SWIDTH 648 0
DWIDTH 9 0
BBX 8 9 1 1
BITMAP
EC
86
07
03
FF
C3
C6
C6
7C
ENDCHAR
STARTCHAR 04D9
ENCODING 1241
SWIDTH 504 0
DWIDTH 7 0
BBX 7 6 0 0
BITMAP
7C
4C
7E
C6
6C
78
ENDCHAR
STARTCHAR 04DA
ENCODING 1242
SWIDTH 648 0
DWIDTH 9 0
BBX 8 12 1 0
BITMAP
6C
6C
00
EC
86
07
03
FF
C3
C6
C6
7C
ENDCHAR
STARTCHAR 04DB
ENCODING 1243
SWIDTH 504 0
DWIDTH 7 0
BBX 7 9 0 0
BITMAP
6C
6C
00
7C
4C
7E
C6
6C
78
ENDCHAR
STARTCHAR 04DC
ENCODING 1244
SWIDTH 1008 0
DWIDTH 14 0
BBX 14 12 0 0
BITMAP
06C0
06C0
0000
7398
1310
0B20
0B60
1F60
1B70
3B30
7318
E79C
ENDCHAR
STARTCHAR 04DD
ENCODING 1245
SWIDTH 864 0
DWIDTH 12 0
BBX 12 9 0 0
BITMAP
0D80
0980
0000
6660
1640
1680
3EC0
36E0
EF70
ENDCHAR
STARTCHAR 04DE
ENCODING 1246
SWIDTH 576 0
DWIDTH 8 0
BBX 7 12 1 0
BITMAP
CC
48
00
DC
8C
0C
18
3C
0C
8E
8C
F8
ENDCHAR
STARTCHAR 04DF
ENCODING 1247
SWIDTH 432 0
DWIDTH 6 0
BBX 5 9 1 0
BITMAP
D8
D8
00
F8
98
70
18
98
F8
ENDCHAR
STARTCHAR 04E0
ENCODING 1248
SWIDTH 504 0
DWIDTH 7 0
BBX 6 9 1 0
BITMAP
FC
C8
10
20
3C
0C
8C
8C
F8
ENDCHAR
STARTCHAR 04E1
ENCODING 1249
SWIDTH 432 0
DWIDTH 6 0
BBX 5 9 1 -3
BITMAP
F8
98
10
20
78
18
18
98
F8
ENDCHAR
STARTCHAR 04E2
ENCODING 1250
SWIDTH 720 0
DWIDTH 10 0
BBX 9 11 1 0
BITMAP
3E00
0000
E380
6700
6700
6B00
6B00
7300
7300
6300
E780
ENDCHAR
STARTCHAR 04E3
ENCODING 1251
SWIDTH 576 0
DWIDTH 8 0
BBX 8 9 0 0
BITMAP
3E
00
00
77
67
6B
6B
73
E7
ENDCHAR
STARTCHAR 04E4
ENCODING 1252
SWIDTH 720 0
DWIDTH 10 0
BBX 9 12 1 0
BITMAP
3600
3600
0000
E380
6700
6700
6B00
6B00
7300
7300
6300
E780
ENDCHAR
STARTCHAR 04E5
ENCODING 1253
SWIDTH 576 0
DWIDTH 8 0
BBX 8 9 0 0
BITMAP
36
36
00
77
67
6B
6B
73
E7
ENDCHAR
STARTCHAR 04E6
ENCODING 1254
SWIDTH 720 0
DWIDTH 10 0
BBX 10 12 0 0
BITMAP
1B00
1B00
0400
3B00
6180
61C0
60C0
E0C0
60C0
6180
3180
1F00
ENDCHAR
STARTCHAR 04E7
ENCODING 1255
SWIDTH 504 0
DWIDTH 7 0
BBX 6 9 1 0
BITMAP
DC
48
00
FC
CC
CC
CC
CC
78
ENDCHAR
STARTCHAR 04E8
ENCODING 1256
SWIDTH 720 0
DWIDTH 10 0
BBX 10 10 0 0
BITMAP
0400
3B00
6180
61C0
60C0
FFC0
60C0
6180
3180
1F00
ENDCHAR
STARTCHAR 04E9
ENCODING 1257
SWIDTH 504 0
DWIDTH 7 0
BBX 6 6 1 0
BITMAP
FC
CC
FC
CC
CC
78
ENDCHAR
STARTCHAR 04EA
ENCODING 1258
SWIDTH 720 0
DWIDTH 10 0
BBX 10 12 0 0
BITMAP
1B00
1B00
0400
3B00
6180
61C0
60C0
FFC0
60C0
6180
3180
1F00
ENDCHAR
STARTCHAR 04EB
ENCODING 1259
SWIDTH 504 0
DWIDTH 7 0
BBX 6 9 1 0
BITMAP
DC
48
00
FC
CC
FC
CC
CC
78
ENDCHAR
STARTCHAR 04EC
ENCODING 1260
SWIDTH 576 0
DWIDTH 8 0
BBX 7 12 1 0
BITMAP
CC
48
00
DC
86
06
06
7E
06
86
8C
F8
ENDCHAR
STARTCHAR 04ED
ENCODING 1261
SWIDTH 432 0
DWIDTH 6 0
BBX 6 9 0 0
BITMAP
D8
C8
00
78
CC
3C
0C
CC
F8
ENDCHAR
STARTCHAR 04EE
ENCODING 1262
SWIDTH 648 0
DWIDTH 9 0
BBX 8 11 1 0
BITMAP
3C
00
E3
E2
62
34
3C
18
18
F0
E0
ENDCHAR
STARTCHAR 04EF
ENCODING 1263
SWIDTH 504 0
DWIDTH 7 0
BBX 7 12 0 -3
BITMAP
3E
00
00
F6
62
34
34
18
18
10
10
60
ENDCHAR
STARTCHAR 04F0
ENCODING 1264
SWIDTH 648 0
DWIDTH 9 0
BBX 8 12 1 0
BITMAP
36
36
00
E3
E2
62
34
3C
18
18
F0
E0
ENDCHAR
STARTCHAR 04F1
ENCODING 1265
SWIDTH 504 0
DWIDTH 7 0
BBX 7 12 0 -3
BITMAP
36
36
00
F6
62
34
34
18
18
10
10
60
ENDCHAR
STARTCHAR 04F2
ENCODING 1266
SWIDTH 648 0
DWIDTH 9 0
BBX 8 12 1 0
BITMAP
16
24
00
E3
E2
62
34
3C
18
18
F0
E0
ENDCHAR
STARTCHAR 04F3
ENCODING 1267
SWIDTH 504 0
DWIDTH 7 0
BBX 7 13 0 -3
BITMAP
1A
16
14
00
F6
62
34
34
18
18
10
10
60
ENDCHAR
STARTCHAR 04F4
ENCODING 1268
SWIDTH 720 0
DWIDTH 10 0
BBX 9 12 1 0
BITMAP
2600
2600
0000
E700
E300
E300
6300
7F00
0300
0300
0700
0F80
ENDCHAR
STARTCHAR 04F5
ENCODING 1269
SWIDTH 576 0
DWIDTH 8 0
BBX 7 9 1 0
BITMAP
DC
48
00
CC
CC
CC
7C
0C
1E
ENDCHAR
STARTCHAR 04F6
ENCODING 1270
SWIDTH 576 0
DWIDTH 8 0
BBX 7 11 1 -2
BITMAP
FE
62
60
60
60
60
60
60
F8
18
18
ENDCHAR
STARTCHAR 04F7
ENCODING 1271
SWIDTH 432 0
DWIDTH 6 0
BBX 6 8 0 -2
BITMAP
7C
64
60
60
60
F8
18
08
ENDCHAR
STARTCHAR 04F8
ENCODING 1272
SWIDTH 936 0
DWIDTH 13 0
BBX 11 12 1 0
BITMAP
1B00
1B00
0000
F0E0
60E0
60E0
60E0
7EE0
66E0
66E0
66E0
FDE0
ENDCHAR
STARTCHAR 04F9
ENCODING 1273
SWIDTH 792 0
DWIDTH 11 0
BBX 11 9 0 0
BITMAP
1B00
1900
0000
70E0
60C0
7CC0
66C0
66C0
FCE0
ENDCHAR
STARTCHAR 04FA
ENCODING 1274
SWIDTH 576 0
DWIDTH 8 0
BBX 8 12 0 -3
BITMAP
7F
31
30
30
FC
30
30
30
7C
0C
0C
18
ENDCHAR
STARTCHAR 04FB
ENCODING 1275
SWIDTH 432 0
DWIDTH 6 0
BBX 6 9 0 -3
BITMAP
7C
64
60
78
60
F8
08
18
30
ENDCHAR
STARTCHAR 04FC
ENCODING 1276
SWIDTH 648 0
DWIDTH 9 0
BBX 9 12 0 -3
BITMAP
7380
3300
1A00
1C00
0E00
1600
3300
2380
F180
0180
0180
0300
ENDCHAR
STARTCHAR 04FD
ENCODING 1277
SWIDTH 504 0
DWIDTH 7 0
BBX 8 9 0 -3
BITMAP
76
34
18
1C
2E
E6
03
02
06
ENDCHAR
STARTCHAR 04FE
ENCODING 1278
SWIDTH 648 0
DWIDTH 9 0
BBX 9 9 0 0
BITMAP
7180
3100
1A00
1C00
7F80
1E00
3700
2300
F780
ENDCHAR
STARTCHAR 04FF
ENCODING 1279
SWIDTH 504 0
DWIDTH 7 0
BBX 7 6 0 0
BITMAP
76
34
7E
3C
2C
EE
ENDCHAR
STARTCHAR 0510
ENCODING 1296
SWIDTH 576 0
DWIDTH 8 0
BBX 7 10 1 0
BITMAP
10
EC
C4
C0
60
70
C0
C6
C4
7C
ENDCHAR
STARTCHAR 0511
ENCODING 1297
SWIDTH 432 0
DWIDTH 6 0
BBX 6 6 0 0
BITMAP
7C
64
38
60
E4
7C
ENDCHAR
STARTCHAR 0512
ENCODING 1298
SWIDTH 648 0
DWIDTH 9 0
BBX 9 12 0 -3
BITMAP
3F80
1300
1300
1300
1300
1300
2300
E300
E300
0300
0300
0600
ENDCHAR
STARTCHAR 0513
ENCODING 1299
SWIDTH 576 0
DWIDTH 8 0
BBX 7 9 0 -3
BITMAP
3E
26
26
26
E6
C6
06
04
0C
ENDCHAR
STARTCHAR 051A
ENCODING 1306
SWIDTH 720 0
DWIDTH 10 0
BBX 11 13 0 -3
BITMAP
0400
3B00
6180
61C0
60C0
E0C0
60C0
6180
3180
1F00
0300
01E0
0080
ENDCHAR
STARTCHAR 051B
ENCODING 1307
SWIDTH 576 0
DWIDTH 8 0
BBX 7 9 1 -3
BITMAP
7E
CC
CC
CC
CC
FC
0C
0C
1E
ENDCHAR
STARTCHAR 051C
ENCODING 1308
SWIDTH 936 0
DWIDTH 13 0
BBX 12 9 1 1
BITMAP
E230
C710
6720
6720
69A0
79C0
39C0
30C0
3080
ENDCHAR
STARTCHAR 051D
ENCODING 1309
SWIDTH 720 0
DWIDTH 10 0
BBX 10 6 0 0
BITMAP
E640
6640
3B80
3B80
3B80
1100
ENDCHAR
STARTCHAR 0524
ENCODING 1316
SWIDTH 792 0
DWIDTH 11 0
BBX 10 11 1 -2
BITMAP
FF80
6300
6300
6300
6300
6300
6300
6300
F7C0
00C0
00C0
ENDCHAR
STARTCHAR 0525
ENCODING 1317
SWIDTH 648 0
DWIDTH 9 0
BBX 9 8 0 -2
BITMAP
7F00
6300
6300
6300
6300
F780
0080
0080
ENDCHAR
STARTCHAR 0526
ENCODING 1318
SWIDTH 720 0
DWIDTH 10 0
BBX 10 11 1 -2
BITMAP
F000
6000
6000
7C00
6600
6300
6300
6300
F7C0
00C0
0080
ENDCHAR
STARTCHAR 0527
ENCODING 1319
SWIDTH 648 0
DWIDTH 9 0
BBX 9 12 0 -2
BITMAP
6000
6000
6000
6000
7E00
6300
6300
6300
6300
F780
0080
0080
ENDCHAR
STARTCHAR 0528
ENCODING 1320
SWIDTH 720 0
DWIDTH 10 0
BBX 9 12 1 -3
BITMAP
E380
6300
6300
6300
7F00
6300
6300
6300
6780
4000
C000
8000
ENDCHAR
STARTCHAR 0529
ENCODING 1321
SWIDTH 648 0
DWIDTH 9 0
BBX 9 9 0 -3
BITMAP
7700
6300
7F00
6300
6300
6780
6000
6000
C000
ENDCHAR
STARTCHAR 052E
ENCODING 1326
SWIDTH 720 0
DWIDTH 10 0
BBX 10 11 0 -2
BITMAP
3F80
1300
1300
1300
1300
1300
2300
E300
E7C0
00C0
00C0
ENDCHAR
STARTCHAR 052F
ENCODING 1327
SWIDTH 576 0
DWIDTH 8 0
BBX 8 8 0 -2
BITMAP
3E
26
26
26
E6
CF
01
01
ENDCHAR
STARTCHAR 058F
ENCODING 1423
SWIDTH 576 0
DWIDTH 8 0
BBX 8 9 0 0
BITMAP
7C
4E
C6
06
3F
3F
06
06
1F
ENDCHAR
STARTCHAR 1E08
ENCODING 7688
SWIDTH 576 0
DWIDTH 8 0
BBX 8 15 0 -3
BITMAP
06
04
00
3B
61
60
60
E0
60
60
30
1F
08
0C
0C
ENDCHAR
STARTCHAR 1E09
ENCODING 7689
SWIDTH 432 0
DWIDTH 6 0
BBX 6 13 0 -3
BITMAP
08
18
10
00
7C
64
C0
60
60
3C
10
18
18
ENDCHAR
STARTCHAR 1E0C
ENCODING 7692
SWIDTH 720 0
DWIDTH 10 0
BBX 9 12 1 -3
BITMAP
FE00
6300
6380
6180
6180
6380
6300
6300
FC00
0000
1800
3800
ENDCHAR
STARTCHAR 1E0D
ENCODING 7693
SWIDTH 576 0
DWIDTH 8 0
BBX 8 13 0 -3
BITMAP
0E
06
06
06
3E
66
66
E6
66
7F
00
18
18
ENDCHAR
STARTCHAR 1E0E
ENCODING 7694
SWIDTH 720 0
DWIDTH 10 0
BBX 9 11 1 -2
BITMAP
FE00
6300
6380
6180
6180
6380
6300
6300
FC00
0000
7C00
ENDCHAR
STARTCHAR 1E0F
ENCODING 7695
SWIDTH 576 0
DWIDTH 8 0
BBX 8 12 0 -2
BITMAP
0E
06
06
06
3E
66
66
E6
66
7F
00
3E
ENDCHAR
STARTCHAR 1E10
ENCODING 7696
SWIDTH 720 0
DWIDTH 10 0
BBX 9 13 1 -4
BITMAP
FE00
6300
6380
6180
6180
6380
6300
6300
FC00
0000
3800
1800
1000
ENDCHAR
STARTCHAR 1E11
ENCODING 7697
SWIDTH 576 0
DWIDTH 8 0
BBX 8 14 0 -4
BITMAP
0E
06
06
06
3E
66
66
E6
66
7F
00
18
08
10
ENDCHAR
STARTCHAR 1E14
ENCODING 7700
SWIDTH 576 0
DWIDTH 8 0
BBX 7 14 1 0
BITMAP
20
10
00
78
00
FE
62
60
68
78
68
62
62
FE
ENDCHAR
STARTCHAR 1E15
ENCODING 7701
SWIDTH 504 0
DWIDTH 7 0
BBX 7 11 0 0
BITMAP
30
10
00
7C
00
7C
64
FE
60
60
3C
ENDCHAR
STARTCHAR 1E16
ENCODING 7702
SWIDTH 576 0
DWIDTH 8 0
BBX 7 14 1 0
BITMAP
18
10
00
78
00
FE
62
60
68
78
68
62
62
FE
ENDCHAR
STARTCHAR 1E17
ENCODING 7703
SWIDTH 504 0
DWIDTH 7 0
BBX 7 11 0 0
BITMAP
08
10
00
7C
00
7C
64
FE
60
60
3C
ENDCHAR
STARTCHAR 1E1C
ENCODING 7708
SWIDTH 576 0
DWIDTH 8 0
BBX 7 15 1 -3
BITMAP
48
38
00
FE
62
60
68
78
68
62
62
FE
10
18
10
ENDCHAR
STARTCHAR 1E1D
ENCODING 7709
SWIDTH 504 0
DWIDTH 7 0
BBX 7 13 0 -3
BITMAP
44
7C
38
00
7C
64
FE
60
60
3C
10
18
18
ENDCHAR
STARTCHAR 1E20
ENCODING 7712
SWIDTH 648 0
DWIDTH 9 0
BBX 9 11 0 0
BITMAP
1E00
0400
3B80
6180
6000
6000
E380
6180
6180
3180
1F00
ENDCHAR
STARTCHAR 1E21
ENCODING 7713
SWIDTH 504 0
DWIDTH 7 0
BBX 7 12 0 -3
BITMAP
7C
00
00
7E
66
64
7C
40
7E
7E
C6
7C
ENDCHAR
STARTCHAR 1E24
ENCODING 7716
SWIDTH 720 0
DWIDTH 10 0
BBX 9 12 1 -3
BITMAP
E380
6300
6300
6300
7F00
6300
6300
6300
F780
0000
1800
1800
ENDCHAR
STARTCHAR 1E25
ENCODING 7717
SWIDTH 648 0
DWIDTH 9 0
BBX 9 13 0 -3
BITMAP
6000
6000
6000
6000
7E00
6300
6300
6300
6300
F780
0000
0C00
1C00
ENDCHAR
STARTCHAR 1E2A
ENCODING 7722
SWIDTH 720 0
DWIDTH 10 0
BBX 9 12 1 -3
BITMAP
E380
6300
6300
6300
7F00
6300
6300
6300
F780
0000
3600
1C00
ENDCHAR
STARTCHAR 1E2B
ENCODING 7723
SWIDTH 648 0
DWIDTH 9 0
BBX 9 13 0 -3
BITMAP
6000
6000
6000
6000
7E00
6300
6300
6300
6300
F780
0000
3600
1C00
ENDCHAR
STARTCHAR 1E2E
ENCODING 7726
SWIDTH 360 0
DWIDTH 5 0
BBX 5 14 0 0
BITMAP
30
20
D8
D8
00
70
30
30
30
30
30
30
30
78
ENDCHAR
STARTCHAR 1E2F
ENCODING 7727
SWIDTH 288 0
DWIDTH 4 0
BBX 5 11 0 0
BITMAP
30
20
D8
D8
00
E0
60
60
60
70
70
ENDCHAR
STARTCHAR 1E36
ENCODING 7734
SWIDTH 576 0
DWIDTH 8 0
BBX 7 12 1 -3
BITMAP
E0
60
60
60
60
60
62
62
FE
00
30
30
ENDCHAR
STARTCHAR 1E37
ENCODING 7735
SWIDTH 288 0
DWIDTH 4 0
BBX 4 13 0 -3
BITMAP
60
60
60
60
60
60
60
60
60
F0
00
60
60
ENDCHAR
STARTCHAR 1E3A
ENCODING 7738
SWIDTH 576 0
DWIDTH 8 0
BBX 7 11 1 -2
BITMAP
E0
60
60
60
60
60
62
62
FE
00
7C
ENDCHAR
STARTCHAR 1E3B
ENCODING 7739
SWIDTH 288 0
DWIDTH 4 0
BBX 4 12 0 -2
BITMAP
60
60
60
60
60
60
60
60
60
F0
00
F0
ENDCHAR
STARTCHAR 1E42
ENCODING 7746
SWIDTH 936 0
DWIDTH 13 0
BBX 13 12 0 -3
BITMAP
7070
3870
38F0
3CB0
2CB0
4F30
4730
4630
E278
0000
0600
0600
ENDCHAR
STARTCHAR 1E43
ENCODING 7747
SWIDTH 936 0
DWIDTH 13 0
BBX 13 9 0 -3
BITMAP
EFF0
7330
6330
6330
6330
77F8
0000
0300
0300
ENDCHAR
STARTCHAR 1E44
ENCODING 7748
SWIDTH 720 0
DWIDTH 10 0
BBX 8 12 1 0
BITMAP
18
18
00
E3
71
71
79
5D
4F
47
C7
E3
ENDCHAR
STARTCHAR 1E45
ENCODING 7749
SWIDTH 648 0
DWIDTH 9 0
BBX 9 9 0 0
BITMAP
1C00
0800
0000
EF00
7300
6300
6300
7300
7780
ENDCHAR
STARTCHAR 1E46
ENCODING 7750
SWIDTH 720 0
DWIDTH 10 0
BBX 8 12 1 -3
BITMAP
E3
71
71
79
5D
4F
47
C7
E3
00
18
1C
ENDCHAR
STARTCHAR 1E47
ENCODING 7751
SWIDTH 648 0
DWIDTH 9 0
BBX 9 9 0 -3
BITMAP
EF00
7300
6300
6300
7300
7780
0000
0C00
0C00
ENDCHAR
STARTCHAR 1E48
ENCODING 7752
SWIDTH 720 0
DWIDTH 10 0
BBX 8 11 1 -2
BITMAP
E3
71
71
79
5D
4F
47
C7
E3
00
3E
ENDCHAR
STARTCHAR 1E49
ENCODING 7753
SWIDTH 648 0
DWIDTH 9 0
BBX 9 8 0 -2
BITMAP
EF00
7300
6300
6300
7300
7780
0000
3E00
ENDCHAR
STARTCHAR 1E4C
ENCODING 7756
SWIDTH 720 0
DWIDTH 10 0
BBX 10 15 0 0
BITMAP
0600
0400
0000
1F00
0600
0400
3B00
6180
61C0
60C0
E0C0
60C0
6180
3180
1F00
ENDCHAR
STARTCHAR 1E4D
ENCODING 7757
SWIDTH 504 0
DWIDTH 7 0
BBX 6 12 1 0
BITMAP
18
10
00
78
18
00
FC
CC
CC
CC
CC
78
ENDCHAR
STARTCHAR 1E4E
ENCODING 7758
SWIDTH 720 0
DWIDTH 10 0
BBX 10 15 0 0
BITMAP
1200
1B00
0000
1F00
0600
0400
3B00
6180
61C0
60C0
E0C0
60C0
6180
3180
1F00
ENDCHAR
STARTCHAR 1E4F
ENCODING 7759
SWIDTH 504 0
DWIDTH 7 0
BBX 6 12 1 0
BITMAP
48
DC
00
78
18
00
FC
CC
CC
CC
CC
78
ENDCHAR
STARTCHAR 1E50
ENCODING 7760
SWIDTH 720 0
DWIDTH 10 0
BBX 10 14 0 0
BITMAP
0800
0400
0000
1E00
0400
3B00
6180
61C0
60C0
E0C0
60C0
6180
3180
1F00
ENDCHAR
STARTCHAR 1E51
ENCODING 7761
SWIDTH 504 0
DWIDTH 7 0
BBX 6 11 1 0
BITMAP
60
30
00
F8
00
FC
CC
CC
CC
CC
78
ENDCHAR
STARTCHAR 1E52
ENCODING 7762
SWIDTH 720 0
DWIDTH 10 0
BBX 10 14 0 0
BITMAP
0600
0400
0000
1E00
0400
3B00
6180
61C0
60C0
E0C0
60C0
6180
3180
1F00
ENDCHAR
STARTCHAR 1E53
ENCODING 7763
SWIDTH 504 0
DWIDTH 7 0
BBX 6 11 1 0
BITMAP
10
20
00
F8
00
FC
CC
CC
CC
CC
78
ENDCHAR
STARTCHAR 1E5A
ENCODING 7770
SWIDTH 648 0
DWIDTH 9 0
BBX 8 12 1 -3
BITMAP
FE
66
66
66
7C
6C
6E
66
F7
00
18
18
ENDCHAR
STARTCHAR 1E5B
ENCODING 7771
SWIDTH 432 0
DWIDTH 6 0
BBX 6 9 0 -3
BITMAP
EC
74
60
60
70
F8
00
30
30
ENDCHAR
STARTCHAR 1E5E
ENCODING 7774
SWIDTH 648 0
DWIDTH 9 0
BBX 8 11 1 -2
BITMAP
FE
66
66
66
7C
6C
6E
66
F7
00
3E
ENDCHAR
STARTCHAR 1E5F
ENCODING 7775
SWIDTH 432 0
DWIDTH 6 0
BBX 6 8 0 -2
BITMAP
EC
74
60
60
70
F8
00
F8
ENDCHAR
STARTCHAR 1E60
ENCODING 7776
SWIDTH 504 0
DWIDTH 7 0
BBX 6 12 1 0
BITMAP
30
30
00
FC
CC
C0
F0
7C
1C
8C
8C
F8
ENDCHAR
STARTCHAR 1E61
ENCODING 7777
SWIDTH 432 0
DWIDTH 6 0
BBX 5 9 1 0
BITMAP
60
60
00
F0
D0
F0
38
98
F0
ENDCHAR
STARTCHAR 1E62
ENCODING 7778
SWIDTH 504 0
DWIDTH 7 0
BBX 6 12 1 -2
BITMAP
FC
CC
C0
F0
7C
1C
8C
8C
F8
00
30
30
ENDCHAR
STARTCHAR 1E63
ENCODING 7779
SWIDTH 432 0
DWIDTH 6 0
BBX 5 9 1 -3
BITMAP
F0
D0
F0
38
98
F0
00
60
60
ENDCHAR
STARTCHAR 1E64
ENCODING 7780
SWIDTH 504 0
DWIDTH 7 0
BBX 6 15 1 0
BITMAP
30
30
00
10
20
00
FC
CC
C0
F0
7C
1C
8C
8C
F8
ENDCHAR
STARTCHAR 1E65
ENCODING 7781
SWIDTH 432 0
DWIDTH 6 0
BBX 5 12 1 0
BITMAP
20
60
00
30
60
00
F0
D0
F0
38
98
F0
ENDCHAR
STARTCHAR 1E66
ENCODING 7782
SWIDTH 504 0
DWIDTH 7 0
BBX 6 15 1 0
BITMAP
30
30
00
78
30
00
FC
CC
C0
F0
7C
1C
8C
8C
F8
ENDCHAR
STARTCHAR 1E67
ENCODING 7783
SWIDTH 432 0
DWIDTH 6 0
BBX 5 12 1 0
BITMAP
60
60
00
F0
60
00
F0
D0
F0
38
98
F0
ENDCHAR
STARTCHAR 1E68
ENCODING 7784
SWIDTH 504 0
DWIDTH 7 0
BBX 6 15 1 -3
BITMAP
30
30
00
FC
CC
C0
F0
7C
1C
8C
8C
F8
00
30
30
ENDCHAR
STARTCHAR 1E69
ENCODING 7785
SWIDTH 432 0
DWIDTH 6 0
BBX 5 12 1 -3
BITMAP
60
60
00
F0
D0
F0
38
98
F0
00
60
60
ENDCHAR
STARTCHAR 1E6C
ENCODING 7788
SWIDTH 648 0
DWIDTH 9 0
BBX 9 12 0 -3
BITMAP
7F80
CC80
0C00
0C00
0C00
0C00
0C00
1C00
3E00
0000
0C00
1C00
ENDCHAR
STARTCHAR 1E6D
ENCODING 7789
SWIDTH 360 0
DWIDTH 5 0
BBX 5 11 0 -2
BITMAP
60
60
F8
60
60
60
60
38
00
30
30
ENDCHAR
STARTCHAR 1E6E
ENCODING 7790
SWIDTH 648 0
DWIDTH 9 0
BBX 9 11 0 -2
BITMAP
7F80
CC80
0C00
0C00
0C00
0C00
0C00
1C00
3E00
0000
3E00
ENDCHAR
STARTCHAR 1E6F
ENCODING 7791
SWIDTH 360 0
DWIDTH 5 0
BBX 6 10 0 -1
BITMAP
60
60
F8
60
60
60
60
38
00
7C
ENDCHAR
STARTCHAR 1E78
ENCODING 7800
SWIDTH 648 0
DWIDTH 9 0
BBX 8 15 1 0
BITMAP
0C
08
00
3E
0C
00
E3
C2
C2
C2
C2
C2
E2
62
7C
ENDCHAR
STARTCHAR 1E79
ENCODING 7801
SWIDTH 576 0
DWIDTH 8 0
BBX 8 13 0 0
BITMAP
0C
08
08
00
3E
00
00
EE
66
66
66
66
3F
ENDCHAR
STARTCHAR 1E7A
ENCODING 7802
SWIDTH 648 0
DWIDTH 9 0
BBX 8 14 1 0
BITMAP
36
36
00
3C
00
E3
C2
C2
C2
C2
C2
E2
62
7C
ENDCHAR
STARTCHAR 1E7B
ENCODING 7803
SWIDTH 576 0
DWIDTH 8 0
BBX 8 11 0 0
BITMAP
36
36
00
3C
00
EE
66
66
66
66
3F
ENDCHAR
STARTCHAR 1E80
ENCODING 7808
SWIDTH 936 0
DWIDTH 13 0
BBX 12 12 1 0
BITMAP
0600
0200
0000
E230
C710
6720
6720
69A0
79C0
39C0
30C0
3080
ENDCHAR
STARTCHAR 1E81
ENCODING 7809
SWIDTH 720 0
DWIDTH 10 0
BBX 10 10 0 0
BITMAP
0C00
0400
0200
0000
E640
6640
3B80
3B80
3B80
1100
ENDCHAR
STARTCHAR 1E82
ENCODING 7810
SWIDTH 936 0
DWIDTH 13 0
BBX 12 12 1 0
BITMAP
0300
0200
0000
E230
C710
6720
6720
69A0
79C0
39C0
30C0
3080
ENDCHAR
STARTCHAR 1E83
ENCODING 7811
SWIDTH 720 0
DWIDTH 10 0
BBX 10 10 0 0
BITMAP
0300
0200
0000
0000
E640
6640
3B80
3B80
3B80
1100
ENDCHAR
STARTCHAR 1E84
ENCODING 7812
SWIDTH 936 0
DWIDTH 13 0
BBX 12 12 1 0
BITMAP
0D80
0D80
0000
E230
C710
6720
6720
69A0
79C0
39C0
30C0
3080
ENDCHAR
STARTCHAR 1E85
ENCODING 7813
SWIDTH 720 0
DWIDTH 10 0
BBX 10 9 0 0
BITMAP
1980
0900
0000
E640
6640
3B80
3B80
3B80
1100
ENDCHAR
STARTCHAR 1E8E
ENCODING 7822
SWIDTH 576 0
DWIDTH 8 0
BBX 7 12 1 0
BITMAP
18
18
00
E6
E4
64
78
38
30
30
38
7C
ENDCHAR
STARTCHAR 1E8F
ENCODING 7823
SWIDTH 504 0
DWIDTH 7 0
BBX 7 12 0 -3
BITMAP
1C
08
00
F6
62
34
34
18
18
10
10
60
ENDCHAR
STARTCHAR 1E90
ENCODING 7824
SWIDTH 576 0
DWIDTH 8 0
BBX 7 12 1 0
BITMAP
38
4C
00
FC
8C
18
38
30
70
60
E6
FE
ENDCHAR
STARTCHAR 1E91
ENCODING 7825
SWIDTH 504 0
DWIDTH 7 0
BBX 6 10 1 0
BITMAP
30
70
88
00
F8
B8
30
60
EC
FC
ENDCHAR
STARTCHAR 1E92
ENCODING 7826
SWIDTH 576 0
DWIDTH 8 0
BBX 7 12 1 -3
BITMAP
FC
8C
18
38
30
70
60
E6
FE
00
30
30
ENDCHAR
STARTCHAR 1E93
ENCODING 7827
SWIDTH 504 0
DWIDTH 7 0
BBX 6 9 1 -3
BITMAP
F8
B8
30
60
EC
FC
00
30
70
ENDCHAR
STARTCHAR 1E97
ENCODING 7831
SWIDTH 360 0
DWIDTH 5 0
BBX 5 11 0 0
BITMAP
D8
D8
00
60
60
F8
60
60
60
60
38
ENDCHAR
STARTCHAR 1E9E
ENCODING 7838
SWIDTH 720 0
DWIDTH 10 0
BBX 10 9 0 0
BITMAP
3F80
3380
7300
7600
7380
70C0
74C0
7CC0
FF80
ENDCHAR
STARTCHAR 1EA0
ENCODING 7840
SWIDTH 648 0
DWIDTH 9 0
BBX 10 12 0 -3
BITMAP
0C00
0C00
1E00
1600
2600
2300
3F00
4380
E3C0
0000
1800
1800
ENDCHAR
STARTCHAR 1EA1
ENCODING 7841
SWIDTH 504 0
DWIDTH 7 0
BBX 6 9 1 -2
BITMAP
78
D8
18
F8
DC
EC
00
30
30
ENDCHAR
STARTCHAR 1EA2
ENCODING 7842
SWIDTH 648 0
DWIDTH 9 0
BBX 10 12 0 0
BITMAP
1C00
0800
0000
0C00
0C00
1E00
1600
2600
2300
3F00
4380
E3C0
ENDCHAR
STARTCHAR 1EA3
ENCODING 7843
SWIDTH 504 0
DWIDTH 7 0
BBX 6 10 1 0
BITMAP
70
50
20
00
78
D8
18
F8
DC
EC
ENDCHAR
STARTCHAR 1EA4
ENCODING 7844
SWIDTH 648 0
DWIDTH 9 0
BBX 10 14 0 0
BITMAP
0180
0100
0C00
3200
0000
0C00
0C00
1E00
1600
2600
2300
3F00
4380
E3C0
ENDCHAR
STARTCHAR 1EA5
ENCODING 7845
SWIDTH 504 0
DWIDTH 7 0
BBX 6 11 1 0
BITMAP
04
08
70
D8
00
78
D8
18
F8
DC
EC
ENDCHAR
STARTCHAR 1EA6
ENCODING 7846
SWIDTH 648 0
DWIDTH 9 0
BBX 10 14 0 0
BITMAP
0600
0200
0C00
3200
0000
0C00
0C00
1E00
1600
2600
2300
3F00
4380
E3C0
ENDCHAR
STARTCHAR 1EA7
ENCODING 7847
SWIDTH 504 0
DWIDTH 7 0
BBX 6 11 1 0
BITMAP
18
08
70
D8
00
78
D8
18
F8
DC
EC
ENDCHAR
STARTCHAR 1EA8
ENCODING 7848
SWIDTH 648 0
DWIDTH 9 0
BBX 10 14 0 0
BITMAP
0700
0200
0C00
3200
0000
0C00
0C00
1E00
1600
2600
2300
3F00
4380
E3C0
ENDCHAR
STARTCHAR 1EA9
ENCODING 7849
SWIDTH 504 0
DWIDTH 7 0
BBX 6 11 1 0
BITMAP
1C
08
70
D8
00
78
D8
18
F8
DC
EC
ENDCHAR
STARTCHAR 1EAA
ENCODING 7850
SWIDTH 648 0
DWIDTH 9 0
BBX 10 15 0 0
BITMAP
1800
2E00
0000
0C00
3200
0000
0C00
0C00
1E00
1600
2600
2300
3F00
4380
E3C0
ENDCHAR
STARTCHAR 1EAB
ENCODING 7851
SWIDTH 504 0
DWIDTH 7 0
BBX 6 12 1 0
BITMAP
68
F8
00
70
D8
00
78
D8
18
F8
DC
EC
ENDCHAR
STARTCHAR 1EAC
ENCODING 7852
SWIDTH 648 0
DWIDTH 9 0
BBX 10 15 0 -3
BITMAP
0C00
3200
0000
0C00
0C00
1E00
1600
2600
2300
3F00
4380
E3C0
0000
1800
1800
ENDCHAR
STARTCHAR 1EAD
ENCODING 7853
SWIDTH 504 0
DWIDTH 7 0
BBX 6 13 1 -3
BITMAP
30
70
88
00
78
D8
18
F8
DC
EC
00
30
30
ENDCHAR
STARTCHAR 1EAE
ENCODING 7854
SWIDTH 648 0
DWIDTH 9 0
BBX 10 14 0 0
BITMAP
0400
0800
1200
1C00
0000
0C00
0C00
1E00
1600
2600
2300
3F00
4380
E3C0
ENDCHAR
STARTCHAR 1EAF
ENCODING 7855
SWIDTH 504 0
DWIDTH 7 0
BBX 6 11 1 0
BITMAP
10
20
C8
70
00
78
D8
18
F8
DC
EC
ENDCHAR
STARTCHAR 1EB0
ENCODING 7856
SWIDTH 648 0
DWIDTH 9 0
BBX 10 14 0 0
BITMAP
1800
0800
1200
1C00
0000
0C00
0C00
1E00
1600
2600
2300
3F00
4380
E3C0
ENDCHAR
STARTCHAR 1EB1
ENCODING 7857
SWIDTH 504 0
DWIDTH 7 0
BBX 6 11 1 0
BITMAP
60
20
C8
70
00
78
D8
18
F8
DC
EC
ENDCHAR
STARTCHAR 1EB2
ENCODING 7858
SWIDTH 648 0
DWIDTH 9 0
BBX 10 14 0 0
BITMAP
1C00
0800
1200
1C00
0000
0C00
0C00
1E00
1600
2600
2300
3F00
4380
E3C0
ENDCHAR
STARTCHAR 1EB3
ENCODING 7859
SWIDTH 504 0
DWIDTH 7 0
BBX 6 11 1 0
BITMAP
70
20
C8
70
00
78
D8
18
F8
DC
EC
ENDCHAR
STARTCHAR 1EB4
ENCODING 7860
SWIDTH 648 0
DWIDTH 9 0
BBX 10 14 0 0
BITMAP
3E00
0000
1200
1C00
0000
0C00
0C00
1E00
1600
2600
2300
3F00
4380
E3C0
ENDCHAR
STARTCHAR 1EB5
ENCODING 7861
SWIDTH 504 0
DWIDTH 7 0
BBX 6 11 1 0
BITMAP
F8
00
C8
70
00
78
D8
18
F8
DC
EC
ENDCHAR
STARTCHAR 1EB6
ENCODING 7862
SWIDTH 648 0
DWIDTH 9 0
BBX 10 15 0 -3
BITMAP
1200
1C00
0000
0C00
0C00
1E00
1600
2600
2300
3F00
4380
E3C0
0000
1800
1800
ENDCHAR
STARTCHAR 1EB7
ENCODING 7863
SWIDTH 504 0
DWIDTH 7 0
BBX 6 13 1 -3
BITMAP
88
F8
70
00
78
D8
18
F8
DC
EC
00
30
30
ENDCHAR
STARTCHAR 1EB8
ENCODING 7864
SWIDTH 576 0
DWIDTH 8 0
BBX 7 12 1 -3
BITMAP
FE
62
60
68
78
68
62
62
FE
00
18
38
ENDCHAR
STARTCHAR 1EB9
ENCODING 7865
SWIDTH 504 0
DWIDTH 7 0
BBX 7 9 0 -3
BITMAP
7C
64
FE
60
60
3C
00
18
18
ENDCHAR
STARTCHAR 1EBA
ENCODING 7866
SWIDTH 576 0
DWIDTH 8 0
BBX 7 12 1 0
BITMAP
38
10
00
FE
62
60
68
78
68
62
62
FE
ENDCHAR
STARTCHAR 1EBB
ENCODING 7867
SWIDTH 504 0
DWIDTH 7 0
BBX 7 10 0 0
BITMAP
38
28
10
00
7C
64
FE
60
60
3C
ENDCHAR
STARTCHAR 1EBC
ENCODING 7868
SWIDTH 576 0
DWIDTH 8 0
BBX 7 12 1 0
BITMAP
7C
18
00
FE
62
60
68
78
68
62
62
FE
ENDCHAR
STARTCHAR 1EBD
ENCODING 7869
SWIDTH 504 0
DWIDTH 7 0
BBX 7 9 0 0
BITMAP
7C
00
00
7C
64
FE
60
60
3C
ENDCHAR
STARTCHAR 1EBE
ENCODING 7870
SWIDTH 576 0
DWIDTH 8 0
BBX 7 14 1 0
BITMAP
06
04
38
48
00
FE
62
60
68
78
68
62
62
FE
ENDCHAR
STARTCHAR 1EBF
ENCODING 7871
SWIDTH 504 0
DWIDTH 7 0
BBX 7 11 0 0
BITMAP
02
06
38
6C
00
7C
64
FE
60
60
3C
ENDCHAR
STARTCHAR 1EC0
ENCODING 7872
SWIDTH 576 0
DWIDTH 8 0
BBX 7 14 1 0
BITMAP
08
0C
38
48
00
FE
62
60
68
78
68
62
62
FE
ENDCHAR
STARTCHAR 1EC1
ENCODING 7873
SWIDTH 504 0
DWIDTH 7 0
BBX 7 11 0 0
BITMAP
0C
04
38
6C
00
7C
64
FE
60
60
3C
ENDCHAR
STARTCHAR 1EC2
ENCODING 7874
SWIDTH 576 0
DWIDTH 8 0
BBX 7 14 1 0
BITMAP
0E
04
38
48
00
FE
62
60
68
78
68
62
62
FE
ENDCHAR
STARTCHAR 1EC3
ENCODING 7875
SWIDTH 504 0
DWIDTH 7 0
BBX 7 11 0 0
BITMAP
0E
04
38
6C
00
7C
64
FE
60
60
3C
ENDCHAR
STARTCHAR 1EC4
ENCODING 7876
SWIDTH 576 0
DWIDTH 8 0
BBX 7 15 1 0
BITMAP
20
78
00
38
48
00
FE
62
60
68
78
68
62
62
FE
ENDCHAR
STARTCHAR 1EC5
ENCODING 7877
SWIDTH 504 0
DWIDTH 7 0
BBX 7 12 0 0
BITMAP
30
7C
00
38
6C
00
7C
64
FE
60
60
3C
ENDCHAR
STARTCHAR 1EC6
ENCODING 7878
SWIDTH 576 0
DWIDTH 8 0
BBX 7 15 1 -3
BITMAP
38
48
00
FE
62
60
68
78
68
62
62
FE
00
18
38
ENDCHAR
STARTCHAR 1EC7
ENCODING 7879
SWIDTH 504 0
DWIDTH 7 0
BBX 7 13 0 -3
BITMAP
18
3C
44
00
7C
64
FE
60
60
3C
00
18
18
ENDCHAR
STARTCHAR 1EC8
ENCODING 7880
SWIDTH 360 0
DWIDTH 5 0
BBX 4 12 1 0
BITMAP
E0
40
00
E0
60
60
60
60
60
60
60
F0
ENDCHAR
STARTCHAR 1EC9
ENCODING 7881
SWIDTH 288 0
DWIDTH 4 0
BBX 4 10 0 0
BITMAP
70
70
20
00
E0
60
60
60
70
70
ENDCHAR
STARTCHAR 1ECA
ENCODING 7882
SWIDTH 360 0
DWIDTH 5 0
BBX 4 12 1 -3
BITMAP
E0
60
60
60
60
60
60
60
F0
00
60
60
ENDCHAR
STARTCHAR 1ECB
ENCODING 7883
SWIDTH 288 0
DWIDTH 4 0
BBX 4 13 0 -3
BITMAP
20
70
00
00
E0
60
60
60
70
70
00
60
70
ENDCHAR
STARTCHAR 1ECC
ENCODING 7884
SWIDTH 720 0
DWIDTH 10 0
BBX 10 13 0 -3
BITMAP
0400
3B00
6180
61C0
60C0
E0C0
60C0
6180
3180
1F00
0000
0C00
0C00
ENDCHAR
STARTCHAR 1ECD
ENCODING 7885
SWIDTH 504 0
DWIDTH 7 0
BBX 6 9 1 -3
BITMAP
FC
CC
CC
CC
CC
78
00
30
30
ENDCHAR
STARTCHAR 1ECE
ENCODING 7886
SWIDTH 720 0
DWIDTH 10 0
BBX 10 12 0 0
BITMAP
0E00
0400
0400
3B00
6180
61C0
60C0
E0C0
60C0
6180
3180
1F00
ENDCHAR
STARTCHAR 1ECF
ENCODING 7887
SWIDTH 504 0
DWIDTH 7 0
BBX 6 10 1 0
BITMAP
30
50
20
00
FC
CC
CC
CC
CC
78
ENDCHAR
STARTCHAR 1ED0
ENCODING 7888
SWIDTH 720 0
DWIDTH 10 0
BBX 10 14 0 0
BITMAP
0180
0100
0E00
1200
0400
3B00
6180
61C0
60C0
E0C0
60C0
6180
3180
1F00
ENDCHAR
STARTCHAR 1ED1
ENCODING 7889
SWIDTH 504 0
DWIDTH 7 0
BBX 7 11 1 0
BITMAP
06
04
30
48
00
FC
CC
CC
CC
CC
78
ENDCHAR
STARTCHAR 1ED2
ENCODING 7890
SWIDTH 720 0
DWIDTH 10 0
BBX 10 14 0 0
BITMAP
0200
0300
0E00
1200
0400
3B00
6180
61C0
60C0
E0C0
60C0
6180
3180
1F00
ENDCHAR
STARTCHAR 1ED3
ENCODING 7891
SWIDTH 504 0
DWIDTH 7 0
BBX 6 11 1 0
BITMAP
18
08
30
48
00
FC
CC
CC
CC
CC
78
ENDCHAR
STARTCHAR 1ED4
ENCODING 7892
SWIDTH 720 0
DWIDTH 10 0
BBX 10 14 0 0
BITMAP
0380
0100
0E00
1200
0400
3B00
6180
61C0
60C0
E0C0
60C0
6180
3180
1F00
ENDCHAR
STARTCHAR 1ED5
ENCODING 7893
SWIDTH 504 0
DWIDTH 7 0
BBX 6 11 1 0
BITMAP
1C
0C
30
48
00
FC
CC
CC
CC
CC
78
ENDCHAR
STARTCHAR 1ED6
ENCODING 7894
SWIDTH 720 0
DWIDTH 10 0
BBX 10 15 0 0
BITMAP
0800
1E00
0000
0E00
1200
0400
3B00
6180
61C0
60C0
E0C0
60C0
6180
3180
1F00
ENDCHAR
STARTCHAR 1ED7
ENCODING 7895
SWIDTH 504 0
DWIDTH 7 0
BBX 6 12 1 0
BITMAP
60
F8
00
30
48
00
FC
CC
CC
CC
CC
78
ENDCHAR
STARTCHAR 1ED8
ENCODING 7896
SWIDTH 720 0
DWIDTH 10 0
BBX 10 15 0 -3
BITMAP
0E00
1200
0400
3B00
6180
61C0
60C0
E0C0
60C0
6180
3180
1F00
0000
0C00
0C00
ENDCHAR
STARTCHAR 1ED9
ENCODING 7897
SWIDTH 504 0
DWIDTH 7 0
BBX 6 13 1 -3
BITMAP
30
78
08
00
FC
CC
CC
CC
CC
78
00
30
30
ENDCHAR
STARTCHAR 1EDA
ENCODING 7898
SWIDTH 720 0
DWIDTH 10 0
BBX 10 12 0 0
BITMAP
0600
04C0
04C0
3B00
6180
61C0
60C0
E0C0
60C0
6180
3180
1F00
ENDCHAR
STARTCHAR 1EDB
ENCODING 7899
SWIDTH 576 0
DWIDTH 8 0
BBX 7 10 1 0
BITMAP
18
10
26
06
FC
CC
CC
CC
CC
78
ENDCHAR
STARTCHAR 1EDC
ENCODING 7900
SWIDTH 720 0
DWIDTH 10 0
BBX 10 12 0 0
BITMAP
0800
04C0
04C0
3B00
6180
61C0
60C0
E0C0
60C0
6180
3180
1F00
ENDCHAR
STARTCHAR 1EDD
ENCODING 7901
SWIDTH 576 0
DWIDTH 8 0
BBX 7 10 1 0
BITMAP
60
20
16
06
FC
CC
CC
CC
CC
78
ENDCHAR
STARTCHAR 1EDE
ENCODING 7902
SWIDTH 720 0
DWIDTH 10 0
BBX 10 12 0 0
BITMAP
0E00
04C0
04C0
3B00
6180
61C0
60C0
E0C0
60C0
6180
3180
1F00
ENDCHAR
STARTCHAR 1EDF
ENCODING 7903
SWIDTH 576 0
DWIDTH 8 0
BBX 7 10 1 0
BITMAP
30
50
26
06
FC
CC
CC
CC
CC
78
ENDCHAR
STARTCHAR 1EE0
ENCODING 7904
SWIDTH 720 0
DWIDTH 10 0
BBX 10 12 0 0
BITMAP
1F00
06C0
04C0
3B00
6180
61C0
60C0
E0C0
60C0
6180
3180
1F00
ENDCHAR
STARTCHAR 1EE1
ENCODING 7905
SWIDTH 576 0
DWIDTH 8 0
BBX 7 9 1 0
BITMAP
F8
06
06
FC
CC
CC
CC
CC
78
ENDCHAR
STARTCHAR 1EE2
ENCODING 7906
SWIDTH 720 0
DWIDTH 10 0
BBX 10 14 0 -3
BITMAP
00C0
04C0
3B00
6180
61C0
60C0
E0C0
60C0
6180
3180
1F00
0000
0C00
0C00
ENDCHAR
STARTCHAR 1EE3
ENCODING 7907
SWIDTH 576 0
DWIDTH 8 0
BBX 7 11 1 -3
BITMAP
06
06
FC
CC
CC
CC
CC
78
00
30
30
ENDCHAR
STARTCHAR 1EE4
ENCODING 7908
SWIDTH 648 0
DWIDTH 9 0
BBX 8 12 1 -3
BITMAP
E3
C2
C2
C2
C2
C2
E2
62
7C
00
18
18
ENDCHAR
STARTCHAR 1EE5
ENCODING 7909
SWIDTH 576 0
DWIDTH 8 0
BBX 8 9 0 -3
BITMAP
EE
66
66
66
66
3F
00
18
18
ENDCHAR
STARTCHAR 1EE6
ENCODING 7910
SWIDTH 648 0
DWIDTH 9 0
BBX 8 12 1 0
BITMAP
1C
08
00
E3
C2
C2
C2
C2
C2
E2
62
7C
ENDCHAR
STARTCHAR 1EE7
ENCODING 7911
SWIDTH 576 0
DWIDTH 8 0
BBX 8 10 0 0
BITMAP
1C
2C
08
00
EE
66
66
66
66
3F
ENDCHAR
STARTCHAR 1EE8
ENCODING 7912
SWIDTH 720 0
DWIDTH 10 0
BBX 9 12 1 0
BITMAP
0C00
0880
0180
E300
C200
C200
C200
C200
C200
E200
6200
7C00
ENDCHAR
STARTCHAR 1EE9
ENCODING 7913
SWIDTH 648 0
DWIDTH 9 0
BBX 9 10 0 0
BITMAP
0C00
0800
0980
0100
EE00
6600
6600
6600
6600
3F00
ENDCHAR
STARTCHAR 1EEA
ENCODING 7914
SWIDTH 720 0
DWIDTH 10 0
BBX 9 12 1 0
BITMAP
1000
0880
0180
E300
C200
C200
C200
C200
C200
E200
6200
7C00
ENDCHAR
STARTCHAR 1EEB
ENCODING 7915
SWIDTH 648 0
DWIDTH 9 0
BBX 9 10 0 0
BITMAP
3000
1000
0980
0100
EE00
6600
6600
6600
6600
3F00
ENDCHAR
STARTCHAR 1EEC
ENCODING 7916
SWIDTH 720 0
DWIDTH 10 0
BBX 9 12 1 0
BITMAP
1C00
0880
0180
E300
C200
C200
C200
C200
C200
E200
6200
7C00
ENDCHAR
STARTCHAR 1EED
ENCODING 7917
SWIDTH 648 0
DWIDTH 9 0
BBX 9 10 0 0
BITMAP
1C00
2C00
0980
0100
EE00
6600
6600
6600
6600
3F00
ENDCHAR
STARTCHAR 1EEE
ENCODING 7918
SWIDTH 720 0
DWIDTH 10 0
BBX 9 12 1 0
BITMAP
3E00
0C80
0180
E300
C200
C200
C200
C200
C200
E200
6200
7C00
ENDCHAR
STARTCHAR 1EEF
ENCODING 7919
SWIDTH 648 0
DWIDTH 9 0
BBX 9 9 0 0
BITMAP
3E00
0180
0100
EE00
6600
6600
6600
6600
3F00
ENDCHAR
STARTCHAR 1EF0
ENCODING 7920
SWIDTH 720 0
DWIDTH 10 0
BBX 9 14 1 -3
BITMAP
0080
0180
E300
C200
C200
C200
C200
C200
E200
6200
7C00
0000
1800
1800
ENDCHAR
STARTCHAR 1EF1
ENCODING 7921
SWIDTH 648 0
DWIDTH 9 0
BBX 9 11 0 -3
BITMAP
0180
0100
EE00
6600
6600
6600
6600
3F00
0000
1800
1800
ENDCHAR
STARTCHAR 1EF2
ENCODING 7922
SWIDTH 576 0
DWIDTH 8 0
BBX 7 12 1 0
BITMAP
10
18
00
E6
E4
64
78
38
30
30
38
7C
ENDCHAR
STARTCHAR 1EF3
ENCODING 7923
SWIDTH 504 0
DWIDTH 7 0
BBX 7 13 0 -3
BITMAP
10
18
08
00
F6
62
34
34
18
18
10
10
60
ENDCHAR
STARTCHAR 1EF4
ENCODING 7924
SWIDTH 576 0
DWIDTH 8 0
BBX 7 12 1 -3
BITMAP
E6
E4
64
78
38
30
30
38
7C
00
30
30
ENDCHAR
STARTCHAR 1EF5
ENCODING 7925
SWIDTH 504 0
DWIDTH 7 0
BBX 7 9 0 -3
BITMAP
F6
62
34
34
18
18
10
16
66
ENDCHAR
STARTCHAR 1EF6
ENCODING 7926
SWIDTH 576 0
DWIDTH 8 0
BBX 7 12 1 0
BITMAP
28
08
00
E6
E4
64
78
38
30
30
38
7C
ENDCHAR
STARTCHAR 1EF7
ENCODING 7927
SWIDTH 504 0
DWIDTH 7 0
BBX 7 13 0 -3
BITMAP
1C
14
08
00
F6
62
34
34
18
18
10
10
60
ENDCHAR
STARTCHAR 1EF8
ENCODING 7928
SWIDTH 576 0
DWIDTH 8 0
BBX 7 12 1 0
BITMAP
3E
0C
00
E6
E4
64
78
38
30
30
38
7C
ENDCHAR
STARTCHAR 1EF9
ENCODING 7929
SWIDTH 504 0
DWIDTH 7 0
BBX 7 12 0 -3
BITMAP
3E
00
00
F6
62
34
34
18
18
10
10
60
ENDCHAR
STARTCHAR 2007
ENCODING 8199
SWIDTH 504 0
DWIDTH 7 0
BBX 0 0 0 0
BITMAP
ENDCHAR
STARTCHAR 2008
ENCODING 8200
SWIDTH 144 0
DWIDTH 2 0
BBX 0 0 0 0
BITMAP
ENDCHAR
STARTCHAR 2009
ENCODING 8201
SWIDTH 72 0
DWIDTH 1 0
BBX 0 0 0 0
BITMAP
ENDCHAR
STARTCHAR 200A
ENCODING 8202
SWIDTH 0 0
DWIDTH 0 0
BBX 0 0 0 0
BITMAP
ENDCHAR
STARTCHAR 200B
ENCODING 8203
SWIDTH 0 0
DWIDTH 0 0
BBX 0 0 0 0
BITMAP
ENDCHAR
STARTCHAR 2010
ENCODING 8208
SWIDTH 360 0
DWIDTH 5 0
BBX 4 1 1 3
BITMAP
F0
ENDCHAR
STARTCHAR 2011
ENCODING 8209
SWIDTH 360 0
DWIDTH 5 0
BBX 4 1 1 3
BITMAP
F0
ENDCHAR
STARTCHAR 2012
ENCODING 8210
SWIDTH 504 0
DWIDTH 7 0
BBX 6 1 1 3
BITMAP
FC
ENDCHAR
STARTCHAR 2013
ENCODING 8211
SWIDTH 576 0
DWIDTH 8 0
BBX 6 1 1 3
BITMAP
FC
ENDCHAR
STARTCHAR 2014
ENCODING 8212
SWIDTH 1008 0
DWIDTH 14 0
BBX 12 1 1 3
BITMAP
FFF0
ENDCHAR
STARTCHAR 2015
ENCODING 8213
SWIDTH 1008 0
DWIDTH 14 0
BBX 12 1 1 3
BITMAP
FFF0
ENDCHAR
STARTCHAR 2016
ENCODING 8214
SWIDTH 288 0
DWIDTH 4 0
BBX 3 13 1 -3
BITMAP
A0
A0
A0
A0
A0
A0
A0
A0
A0
A0
A0
A0
A0
ENDCHAR
STARTCHAR 2018
ENCODING 8216
SWIDTH 216 0
DWIDTH 3 0
BBX 2 4 1 6
BITMAP
40
80
C0
C0
ENDCHAR
STARTCHAR 2019
ENCODING 8217
SWIDTH 216 0
DWIDTH 3 0
BBX 2 4 1 6
BITMAP
C0
C0
40
80
ENDCHAR
STARTCHAR 201A
ENCODING 8218
SWIDTH 216 0
DWIDTH 3 0
BBX 2 4 1 -2
BITMAP
40
C0
40
80
ENDCHAR
STARTCHAR 201B
ENCODING 8219
SWIDTH 216 0
DWIDTH 3 0
BBX 2 4 1 6
BITMAP
C0
C0
80
40
ENDCHAR
STARTCHAR 201C
ENCODING 8220
SWIDTH 432 0
DWIDTH 6 0
BBX 4 4 1 6
BITMAP
50
90
F0
F0
ENDCHAR
STARTCHAR 201D
ENCODING 8221
SWIDTH 432 0
DWIDTH 6 0
BBX 4 4 1 6
BITMAP
D0
F0
50
90
ENDCHAR
STARTCHAR 201E
ENCODING 8222
SWIDTH 432 0
DWIDTH 6 0
BBX 4 4 1 -2
BITMAP
50
F0
50
90
ENDCHAR
STARTCHAR 201F
ENCODING 8223
SWIDTH 432 0
DWIDTH 6 0
BBX 4 4 1 6
BITMAP
F0
F0
90
50
ENDCHAR
STARTCHAR 2020
ENCODING 8224
SWIDTH 432 0
DWIDTH 6 0
BBX 5 12 1 -3
BITMAP
20
20
20
F8
20
20
20
20
20
20
20
20
ENDCHAR
STARTCHAR 2021
ENCODING 8225
SWIDTH 432 0
DWIDTH 6 0
BBX 5 12 1 -3
BITMAP
20
20
20
F8
20
20
20
20
F8
20
20
20
ENDCHAR
STARTCHAR 2022
ENCODING 8226
SWIDTH 360 0
DWIDTH 5 0
BBX 4 3 1 2
BITMAP
E0
F0
E0
ENDCHAR
STARTCHAR 2023
ENCODING 8227
SWIDTH 360 0
DWIDTH 5 0
BBX 3 3 1 2
BITMAP
C0
E0
C0
ENDCHAR
STARTCHAR 2024
ENCODING 8228
SWIDTH 216 0
DWIDTH 3 0
BBX 2 2 1 0
BITMAP
C0
C0
ENDCHAR
STARTCHAR 2025
ENCODING 8229
SWIDTH 576 0
DWIDTH 8 0
BBX 7 2 1 0
BITMAP
C6
C6
ENDCHAR
STARTCHAR 2026
ENCODING 8230
SWIDTH 864 0
DWIDTH 12 0
BBX 11 2 1 0
BITMAP
CE60
CE60
ENDCHAR
STARTCHAR 2027
ENCODING 8231
SWIDTH 216 0
DWIDTH 3 0
BBX 2 2 1 3
BITMAP
C0
C0
ENDCHAR
STARTCHAR 202F
ENCODING 8239
SWIDTH 144 0
DWIDTH 2 0
BBX 0 0 0 0
BITMAP
ENDCHAR
STARTCHAR 2030
ENCODING 8240
SWIDTH 1224 0
DWIDTH 17 0
BBX 15 10 1 0
BITMAP
0080
7080
D900
DA00
7400
0800
1B9E
16D2
26D2
439C
ENDCHAR
STARTCHAR 2031
ENCODING 8241
SWIDTH 1584 0
DWIDTH 22 0
BBX 20 10 1 0
BITMAP
008000
708000
D90000
DA0000
740000
080000
1B9EF0
16D290
26D290
439CE0
ENDCHAR
STARTCHAR 2032
ENCODING 8242
SWIDTH 288 0
DWIDTH 4 0
BBX 2 4 1 6
BITMAP
40
C0
80
80
ENDCHAR
STARTCHAR 2033
ENCODING 8243
SWIDTH 432 0
DWIDTH 6 0
BBX 5 4 1 6
BITMAP
58
D0
90
A0
ENDCHAR
STARTCHAR 2034
ENCODING 8244
SWIDTH 648 0
DWIDTH 9 0
BBX 7 4 1 6
BITMAP
5A
D2
94
A4
ENDCHAR
STARTCHAR 2035
ENCODING 8245
SWIDTH 216 0
DWIDTH 3 0
BBX 2 4 1 6
BITMAP
80
C0
40
40
ENDCHAR
STARTCHAR 2036
ENCODING 8246
SWIDTH 432 0
DWIDTH 6 0
BBX 5 4 1 6
BITMAP
B0
D0
50
48
ENDCHAR
STARTCHAR 2037
ENCODING 8247
SWIDTH 576 0
DWIDTH 8 0
BBX 7 4 1 6
BITMAP
B4
D6
52
4A
ENDCHAR
STARTCHAR 2038
ENCODING 8248
SWIDTH 504 0
DWIDTH 7 0
BBX 6 4 1 0
BITMAP
30
50
88
84
ENDCHAR
STARTCHAR 2039
ENCODING 8249
SWIDTH 288 0
DWIDTH 4 0
BBX 2 4 1 2
BITMAP
40
80
C0
40
ENDCHAR
STARTCHAR 203A
ENCODING 8250
SWIDTH 288 0
DWIDTH 4 0
BBX 3 5 1 1
BITMAP
80
40
60
40
80
ENDCHAR
STARTCHAR 203D
ENCODING 8253
SWIDTH 576 0
DWIDTH 8 0
BBX 6 10 2 0
BITMAP
F8
88
EC
28
30
30
20
00
60
60
ENDCHAR
STARTCHAR 203F
ENCODING 8255
SWIDTH 648 0
DWIDTH 9 0
BBX 8 3 1 -3
BITMAP
81
FF
18
ENDCHAR
STARTCHAR 2040
ENCODING 8256
SWIDTH 648 0
DWIDTH 9 0
BBX 8 2 1 9
BITMAP
3C
FF
ENDCHAR
STARTCHAR 2043
ENCODING 8259
SWIDTH 360 0
DWIDTH 5 0
BBX 4 3 1 2
BITMAP
F0
F0
F0
ENDCHAR
STARTCHAR 2044
ENCODING 8260
SWIDTH 216 0
DWIDTH 3 0
BBX 7 10 -2 0
BITMAP
02
02
04
08
18
10
20
40
C0
80
ENDCHAR
STARTCHAR 204B
ENCODING 8267
SWIDTH 576 0
DWIDTH 8 0
BBX 7 12 1 -3
BITMAP
FC
A6
A6
AC
B8
A0
A0
A0
A0
A0
A0
A0
ENDCHAR
STARTCHAR 2052
ENCODING 8274
SWIDTH 576 0
DWIDTH 8 0
BBX 7 8 1 0
BITMAP
82
C4
08
10
30
60
4C
8C
ENDCHAR
STARTCHAR 205D
ENCODING 8285
SWIDTH 216 0
DWIDTH 3 0
BBX 2 9 1 0
BITMAP
C0
C0
00
C0
C0
00
00
C0
C0
ENDCHAR
STARTCHAR 2070
ENCODING 8304
SWIDTH 432 0
DWIDTH 6 0
BBX 6 5 0 6
BITMAP
30
48
CC
CC
78
ENDCHAR
STARTCHAR 2074
ENCODING 8308
SWIDTH 360 0
DWIDTH 5 0
BBX 6 7 0 4
BITMAP
18
18
38
58
FC
18
18
ENDCHAR
STARTCHAR 2075
ENCODING 8309
SWIDTH 288 0
DWIDTH 4 0
BBX 4 7 0 4
BITMAP
70
70
80
70
10
10
E0
ENDCHAR
STARTCHAR 2076
ENCODING 8310
SWIDTH 360 0
DWIDTH 5 0
BBX 5 6 0 6
BITMAP
10
60
40
F8
C8
78
ENDCHAR
STARTCHAR 2077
ENCODING 8311
SWIDTH 288 0
DWIDTH 4 0
BBX 4 7 0 4
BITMAP
F0
F0
20
20
20
60
40
ENDCHAR
STARTCHAR 2078
ENCODING 8312
SWIDTH 360 0
DWIDTH 5 0
BBX 5 6 0 6
BITMAP
70
58
70
78
D8
78
ENDCHAR
STARTCHAR 2079
ENCODING 8313
SWIDTH 360 0
DWIDTH 5 0
BBX 5 7 0 4
BITMAP
30
58
C8
48
38
10
60
ENDCHAR
STARTCHAR 2080
ENCODING 8320
SWIDTH 432 0
DWIDTH 6 0
BBX 6 5 0 -2
BITMAP
78
4C
CC
4C
78
ENDCHAR
STARTCHAR 2081
ENCODING 8321
SWIDTH 216 0
DWIDTH 3 0
BBX 3 5 0 -2
BITMAP
E0
60
60
60
E0
ENDCHAR
STARTCHAR 2082
ENCODING 8322
SWIDTH 288 0
DWIDTH 4 0
BBX 5 5 0 -2
BITMAP
70
10
30
48
F8
ENDCHAR
STARTCHAR 2083
ENCODING 8323
SWIDTH 288 0
DWIDTH 4 0
BBX 4 7 1 -4
BITMAP
E0
A0
40
60
30
20
C0
ENDCHAR
STARTCHAR 2084
ENCODING 8324
SWIDTH 360 0
DWIDTH 5 0
BBX 5 6 0 -4
BITMAP
18
38
58
58
F8
18
ENDCHAR
STARTCHAR 2085
ENCODING 8325
SWIDTH 288 0
DWIDTH 4 0
BBX 4 7 0 -4
BITMAP
70
80
60
70
10
30
40
ENDCHAR
STARTCHAR 2086
ENCODING 8326
SWIDTH 360 0
DWIDTH 5 0
BBX 5 6 0 -2
BITMAP
30
40
F0
D8
C8
70
ENDCHAR
STARTCHAR 2087
ENCODING 8327
SWIDTH 288 0
DWIDTH 4 0
BBX 4 7 0 -4
BITMAP
F0
D0
20
20
60
60
40
ENDCHAR
STARTCHAR 2088
ENCODING 8328
SWIDTH 360 0
DWIDTH 5 0
BBX 5 6 0 -2
BITMAP
78
58
70
58
D8
70
ENDCHAR
STARTCHAR 2089
ENCODING 8329
SWIDTH 360 0
DWIDTH 5 0
BBX 5 7 0 -4
BITMAP
70
D8
C8
78
18
30
40
ENDCHAR
STARTCHAR 20A1
ENCODING 8353
SWIDTH 576 0
DWIDTH 8 0
BBX 8 11 0 -1
BITMAP
06
3B
61
60
60
E0
60
60
30
1F
14
ENDCHAR
STARTCHAR 20A3
ENCODING 8355
SWIDTH 576 0
DWIDTH 8 0
BBX 8 9 0 0
BITMAP
7F
31
30
32
3E
32
F8
30
78
ENDCHAR
STARTCHAR 20A4
ENCODING 8356
SWIDTH 576 0
DWIDTH 8 0
BBX 6 10 1 0
BITMAP
10
6C
CC
C0
E0
F8
60
40
7C
9C
ENDCHAR
STARTCHAR 20A6
ENCODING 8358
SWIDTH 720 0
DWIDTH 10 0
BBX 10 9 0 0
BITMAP
7180
3880
3880
FFC0
2E80
2780
2380
6180
7180
ENDCHAR
STARTCHAR 20A7
ENCODING 8359
SWIDTH 576 0
DWIDTH 8 0
BBX 10 9 0 0
BITMAP
7F00
3300
FFC0
3300
3300
3C00
3000
3000
7800
ENDCHAR
STARTCHAR 20A9
ENCODING 8361
SWIDTH 936 0
DWIDTH 13 0
BBX 14 9 0 1
BITMAP
7118
6388
3390
FFFC
34D0
FCFC
1CE0
1860
1840
ENDCHAR
STARTCHAR 20AB
ENCODING 8363
SWIDTH 576 0
DWIDTH 8 0
BBX 8 10 0 0
BITMAP
0E
06
1F
06
7E
66
E6
7B
00
7F
ENDCHAR
STARTCHAR 20AC
ENCODING 8364
SWIDTH 720 0
DWIDTH 10 0
BBX 10 10 0 0
BITMAP
0200
1DC0
1880
3080
7E00
3000
FE00
3800
1840
0F80
ENDCHAR
STARTCHAR 20AD
ENCODING 8365
SWIDTH 720 0
DWIDTH 10 0
BBX 10 9 0 0
BITMAP
7380
3200
3400
3800
FF80
3E00
3700
3300
7BC0
ENDCHAR
STARTCHAR 20AE
ENCODING 8366
SWIDTH 648 0
DWIDTH 9 0
BBX 9 9 0 0
BITMAP
7F80
CC80
0C00
0E00
3C00
0E00
3C00
1C00
3E00
ENDCHAR
STARTCHAR 20B1
ENCODING 8369
SWIDTH 576 0
DWIDTH 8 0
BBX 9 9 0 0
BITMAP
7F00
F380
3300
F380
3300
3E00
3000
3000
7800
ENDCHAR
STARTCHAR 20B2
ENCODING 8370
SWIDTH 648 0
DWIDTH 9 0
BBX 9 11 0 -1
BITMAP
0400
3B80
6180
6000
6000
E380
6180
6180
7180
1F00
0400
ENDCHAR
STARTCHAR 20B4
ENCODING 8372
SWIDTH 576 0
DWIDTH 8 0
BBX 7 10 1 0
BITMAP
10
6C
4C
0C
FE
00
FE
C6
C6
7C
ENDCHAR
STARTCHAR 20B5
ENCODING 8373
SWIDTH 576 0
DWIDTH 8 0
BBX 8 11 0 -1
BITMAP
04
3F
65
64
64
E4
64
64
34
1F
04
ENDCHAR
STARTCHAR 20B8
ENCODING 8376
SWIDTH 648 0
DWIDTH 9 0
BBX 9 9 0 0
BITMAP
7F00
7F80
4D80
CC80
0C00
0C00
0C00
1C00
3E00
ENDCHAR
STARTCHAR 20B9
ENCODING 8377
SWIDTH 504 0
DWIDTH 7 0
BBX 6 9 1 0
BITMAP
FC
18
FC
38
F0
60
30
38
1C
ENDCHAR
STARTCHAR 20BA
ENCODING 8378
SWIDTH 576 0
DWIDTH 8 0
BBX 8 9 0 0
BITMAP
70
30
38
30
F8
33
F2
B2
3C
ENDCHAR
STARTCHAR 20BC
ENCODING 8380
SWIDTH 792 0
DWIDTH 11 0
BBX 10 10 1 0
BITMAP
0800
3F00
4B00
4B00
4B80
4B80
4B80
4B80
4B80
E7C0
ENDCHAR
STARTCHAR 20BD
ENCODING 8381
SWIDTH 648 0
DWIDTH 9 0
BBX 8 9 1 0
BITMAP
7E
63
63
63
FE
60
FC
60
F0
ENDCHAR
STARTCHAR 2102
ENCODING 8450
SWIDTH 576 0
DWIDTH 8 0
BBX 8 9 0 1
BITMAP
3B
71
50
50
D0
50
50
30
1F
ENDCHAR
STARTCHAR 210D
ENCODING 8461
SWIDTH 720 0
DWIDTH 10 0
BBX 9 9 1 0
BITMAP
F380
5100
5100
5100
5F00
5100
5100
5100
FB80
ENDCHAR
STARTCHAR 2113
ENCODING 8467
SWIDTH 432 0
DWIDTH 6 0
BBX 6 10 0 0
BITMAP
18
34
34
28
68
70
E0
60
34
38
ENDCHAR
STARTCHAR 2115
ENCODING 8469
SWIDTH 720 0
DWIDTH 10 0
BBX 9 9 1 0
BITMAP
F180
4900
6D00
5500
5B00
4900
4500
4300
E300
ENDCHAR
STARTCHAR 2116
ENCODING 8470
SWIDTH 1152 0
DWIDTH 16 0
BBX 15 9 1 1
BITMAP
E33C
7166
7166
7924
5D18
4F00
477C
C700
E300
ENDCHAR
STARTCHAR 2117
ENCODING 8471
SWIDTH 792 0
DWIDTH 11 0
BBX 9 10 1 -2
BITMAP
1E00
6100
BE80
9380
9380
9680
9880
7C80
2300
1C00
ENDCHAR
STARTCHAR 2119
ENCODING 8473
SWIDTH 648 0
DWIDTH 9 0
BBX 8 9 1 0
BITMAP
FE
53
53
53
52
5C
50
50
F8
ENDCHAR
STARTCHAR 211A
ENCODING 8474
SWIDTH 720 0
DWIDTH 10 0
BBX 11 13 0 -3
BITMAP
0400
3B00
7180
50C0
50C0
D0C0
50C0
5080
3180
1F00
0300
01E0
0080
ENDCHAR
STARTCHAR 211D
ENCODING 8477
SWIDTH 648 0
DWIDTH 9 0
BBX 9 9 1 0
BITMAP
FE00
F300
F300
F200
FC00
F400
F600
F200
F380
ENDCHAR
STARTCHAR 2122
ENCODING 8482
SWIDTH 936 0
DWIDTH 13 0
BBX 12 5 1 6
BITMAP
FE30
AB60
25A0
25A0
75B0
ENDCHAR
STARTCHAR 2124
ENCODING 8484
SWIDTH 648 0
DWIDTH 9 0
BBX 8 9 1 0
BITMAP
FF
8A
14
34
28
78
51
B3
FF
ENDCHAR
STARTCHAR 2126
ENCODING 8486
SWIDTH 792 0
DWIDTH 11 0
BBX 10 9 1 1
BITMAP
3700
6180
C180
C1C0
C180
6180
A100
F3C0
F3C0
ENDCHAR
STARTCHAR 212E
ENCODING 8494
SWIDTH 576 0
DWIDTH 8 0
BBX 8 8 0 0
BITMAP
3C
42
C3
FF
C0
40
42
3C
ENDCHAR
STARTCHAR 2153
ENCODING 8531
SWIDTH 936 0
DWIDTH 13 0
BBX 12 10 1 0
BITMAP
E080
6080
6100
6200
66F0
F4A0
0840
1070
3030
21E0
ENDCHAR
STARTCHAR 2154
ENCODING 8532
SWIDTH 936 0
DWIDTH 13 0
BBX 14 10 0 0
BITMAP
7820
5840
1840
2080
7978
FB58
0210
0418
080C
1878
ENDCHAR
STARTCHAR 215B
ENCODING 8539
SWIDTH 936 0
DWIDTH 13 0
BBX 12 10 1 0
BITMAP
E080
6080
6100
6200
66F0
F5B0
08E0
11F0
31B0
21F0
ENDCHAR
STARTCHAR 215C
ENCODING 8540
SWIDTH 936 0
DWIDTH 13 0
BBX 13 10 0 0
BITMAP
7840
50C0
2080
3900
1AF0
F6D8
04E0
08F8
10D8
30F0
ENDCHAR
STARTCHAR 215D
ENCODING 8541
SWIDTH 936 0
DWIDTH 13 0
BBX 13 11 0 0
BITMAP
0800
7860
6040
7080
1900
1B78
FAD8
0470
08F8
18D8
1078
ENDCHAR
STARTCHAR 215E
ENCODING 8542
SWIDTH 864 0
DWIDTH 12 0
BBX 12 10 0 0
BITMAP
F8C0
D080
3100
2200
66F0
65B0
08E0
10F0
11B0
20F0
ENDCHAR
STARTCHAR 2190
ENCODING 8592
SWIDTH 792 0
DWIDTH 11 0
BBX 10 4 1 2
BITMAP
6000
FFC0
6000
2000
ENDCHAR
STARTCHAR 2191
ENCODING 8593
SWIDTH 432 0
DWIDTH 6 0
BBX 5 10 1 0
BITMAP
20
60
F0
A8
20
20
20
20
20
20
ENDCHAR
STARTCHAR 2192
ENCODING 8594
SWIDTH 792 0
DWIDTH 11 0
BBX 10 5 1 1
BITMAP
0200
0180
FFC0
0180
0100
ENDCHAR
STARTCHAR 2193
ENCODING 8595
SWIDTH 432 0
DWIDTH 6 0
BBX 4 10 1 0
BITMAP
20
20
20
20
20
20
20
F0
70
60
ENDCHAR
STARTCHAR 2194
ENCODING 8596
SWIDTH 936 0
DWIDTH 13 0
BBX 11 4 1 2
BITMAP
60C0
FFE0
60C0
2080
ENDCHAR
STARTCHAR 2195
ENCODING 8597
SWIDTH 432 0
DWIDTH 6 0
BBX 5 10 1 0
BITMAP
20
70
F0
A8
20
20
20
B8
70
60
ENDCHAR
STARTCHAR 2196
ENCODING 8598
SWIDTH 720 0
DWIDTH 10 0
BBX 8 8 1 1
BITMAP
F0
E0
E0
90
08
04
02
01
ENDCHAR
STARTCHAR 2197
ENCODING 8599
SWIDTH 648 0
DWIDTH 9 0
BBX 8 8 1 0
BITMAP
0F
07
07
09
10
20
40
80
ENDCHAR
STARTCHAR 2198
ENCODING 8600
SWIDTH 720 0
DWIDTH 10 0
BBX 8 8 1 0
BITMAP
80
40
20
10
09
05
03
0F
ENDCHAR
STARTCHAR 2199
ENCODING 8601
SWIDTH 720 0
DWIDTH 10 0
BBX 8 8 1 1
BITMAP
01
03
04
08
90
A0
C0
F0
ENDCHAR
STARTCHAR 21A4
ENCODING 8612
SWIDTH 864 0
DWIDTH 12 0
BBX 10 5 1 1
BITMAP
0040
6040
FFC0
6040
2040
ENDCHAR
STARTCHAR 21A5
ENCODING 8613
SWIDTH 432 0
DWIDTH 6 0
BBX 5 10 1 0
BITMAP
20
60
F0
A8
20
20
20
20
20
F8
ENDCHAR
STARTCHAR 21A6
ENCODING 8614
SWIDTH 864 0
DWIDTH 12 0
BBX 10 5 1 1
BITMAP
8100
8180
FFC0
8180
8100
ENDCHAR
STARTCHAR 21A7
ENCODING 8615
SWIDTH 432 0
DWIDTH 6 0
BBX 5 10 1 0
BITMAP
F8
20
20
20
20
20
20
F8
70
60
ENDCHAR
STARTCHAR 21B0
ENCODING 8624
SWIDTH 648 0
DWIDTH 9 0
BBX 7 10 1 0
BITMAP
20
60
FE
62
12
02
02
02
02
02
ENDCHAR
STARTCHAR 21B1
ENCODING 8625
SWIDTH 648 0
DWIDTH 9 0
BBX 8 10 1 0
BITMAP
04
06
FF
86
80
80
80
80
80
80
ENDCHAR
STARTCHAR 21B2
ENCODING 8626
SWIDTH 648 0
DWIDTH 9 0
BBX 7 10 1 -1
BITMAP
02
02
02
02
02
02
22
E2
FE
60
ENDCHAR
STARTCHAR 21B3
ENCODING 8627
SWIDTH 720 0
DWIDTH 10 0
BBX 8 10 1 -1
BITMAP
80
80
80
80
80
80
84
87
FF
04
ENDCHAR
STARTCHAR 21BC
ENCODING 8636
SWIDTH 792 0
DWIDTH 11 0
BBX 10 3 1 3
BITMAP
2000
6000
FFC0
ENDCHAR
STARTCHAR 21BD
ENCODING 8637
SWIDTH 792 0
DWIDTH 11 0
BBX 10 3 1 1
BITMAP
FFC0
E000
2000
ENDCHAR
STARTCHAR 21BE
ENCODING 8638
SWIDTH 360 0
DWIDTH 5 0
BBX 3 10 1 0
BITMAP
80
C0
E0
80
80
80
80
80
C0
C0
ENDCHAR
STARTCHAR 21BF
ENCODING 8639
SWIDTH 360 0
DWIDTH 5 0
BBX 3 10 1 0
BITMAP
20
60
E0
A0
20
20
20
20
20
20
ENDCHAR
STARTCHAR 21C0
ENCODING 8640
SWIDTH 792 0
DWIDTH 11 0
BBX 10 3 1 3
BITMAP
0200
0180
FFC0
ENDCHAR
STARTCHAR 21C1
ENCODING 8641
SWIDTH 792 0
DWIDTH 11 0
BBX 10 3 1 1
BITMAP
FFC0
0180
0100
ENDCHAR
STARTCHAR 21C2
ENCODING 8642
SWIDTH 360 0
DWIDTH 5 0
BBX 3 10 1 0
BITMAP
C0
C0
80
80
80
80
80
A0
C0
C0
ENDCHAR
STARTCHAR 21C3
ENCODING 8643
SWIDTH 360 0
DWIDTH 5 0
BBX 3 10 1 0
BITMAP
20
20
20
20
20
20
20
A0
60
60
ENDCHAR
STARTCHAR 21C4
ENCODING 8644
SWIDTH 792 0
DWIDTH 11 0
BBX 10 9 1 -2
BITMAP
0200
0100
FFC0
8180
0100
2000
FFC0
FFC0
2000
ENDCHAR
STARTCHAR 21C5
ENCODING 8645
SWIDTH 792 0
DWIDTH 11 0
BBX 9 10 1 0
BITMAP
2200
6200
F200
AA00
2200
2200
2200
2F80
2700
2300
ENDCHAR
STARTCHAR 21C6
ENCODING 8646
SWIDTH 792 0
DWIDTH 11 0
BBX 10 8 1 0
BITMAP
2000
FFC0
E040
2000
0100
FFC0
FFC0
0100
ENDCHAR
STARTCHAR 21C7
ENCODING 8647
SWIDTH 792 0
DWIDTH 11 0
BBX 10 9 1 -1
BITMAP
2000
6000
FFC0
6000
3000
6000
FFC0
E000
2000
ENDCHAR
STARTCHAR 21C8
ENCODING 8648
SWIDTH 720 0
DWIDTH 10 0
BBX 9 10 1 0
BITMAP
2200
6700
F780
AA00
2200
2200
2200
2200
2200
2200
ENDCHAR
STARTCHAR 21C9
ENCODING 8649
SWIDTH 792 0
DWIDTH 11 0
BBX 10 9 1 -1
BITMAP
0300
0180
FFC0
0180
0100
0180
FFC0
0180
0100
ENDCHAR
STARTCHAR 21CA
ENCODING 8650
SWIDTH 720 0
DWIDTH 10 0
BBX 9 10 1 0
BITMAP
2200
2200
2200
2200
2200
2200
2200
FF80
7700
6200
ENDCHAR
STARTCHAR 21CB
ENCODING 8651
SWIDTH 864 0
DWIDTH 12 0
BBX 10 9 1 -1
BITMAP
1000
3000
E000
FFC0
0000
0000
FFC0
0180
0300
ENDCHAR
STARTCHAR 21CC
ENCODING 8652
SWIDTH 864 0
DWIDTH 12 0
BBX 10 8 1 0
BITMAP
0100
01C0
FFC0
0000
0000
FFC0
2000
1000
ENDCHAR
STARTCHAR 21D2
ENCODING 8658
SWIDTH 792 0
DWIDTH 11 0
BBX 10 7 1 0
BITMAP
0200
0100
FF80
00C0
00C0
FF80
0100
ENDCHAR
STARTCHAR 21D4
ENCODING 8660
SWIDTH 936 0
DWIDTH 13 0
BBX 11 7 1 -1
BITMAP
2080
2080
7FC0
C060
C060
7FC0
2080
ENDCHAR
STARTCHAR 21F5
ENCODING 8693
SWIDTH 792 0
DWIDTH 11 0
BBX 9 10 1 0
BITMAP
2200
2300
2780
2A00
2200
2200
2200
F300
7300
6300
ENDCHAR
STARTCHAR 2200
ENCODING 8704
SWIDTH 648 0
DWIDTH 9 0
BBX 8 9 1 0
BITMAP
E3
E1
7E
62
34
34
1C
18
18
ENDCHAR
STARTCHAR 2202
ENCODING 8706
SWIDTH 504 0
DWIDTH 7 0
BBX 6 10 1 0
BITMAP
60
38
18
0C
FC
CC
CC
CC
CC
78
ENDCHAR
STARTCHAR 2203
ENCODING 8707
SWIDTH 576 0
DWIDTH 8 0
BBX 7 9 1 0
BITMAP
FE
8C
0C
4C
7C
4C
0C
8C
FE
ENDCHAR
STARTCHAR 2204
ENCODING 8708
SWIDTH 576 0
DWIDTH 8 0
BBX 7 13 1 -2
BITMAP
10
10
FE
AC
2C
6C
7C
6C
2C
CC
FE
40
40
ENDCHAR
STARTCHAR 2205
ENCODING 8709
SWIDTH 504 0
DWIDTH 7 0
BBX 7 7 0 0
BITMAP
3E
46
4A
92
62
46
B8
ENDCHAR
STARTCHAR 2206
ENCODING 8710
SWIDTH 648 0
DWIDTH 9 0
BBX 9 9 0 1
BITMAP
0800
1C00
1C00
2600
2600
4700
4300
8380
FF80
ENDCHAR
STARTCHAR 2207
ENCODING 8711
SWIDTH 648 0
DWIDTH 9 0
BBX 9 10 0 0
BITMAP
7F80
E080
6100
7100
3100
3200
1A00
1C00
0C00
0800
ENDCHAR
STARTCHAR 2208
ENCODING 8712
SWIDTH 504 0
DWIDTH 7 0
BBX 6 7 1 0
BITMAP
7C
80
80
FC
80
C0
3C
ENDCHAR
STARTCHAR 2209
ENCODING 8713
SWIDTH 504 0
DWIDTH 7 0
BBX 6 9 1 0
BITMAP
08
7C
88
90
FC
A0
E0
3C
40
ENDCHAR
STARTCHAR 220B
ENCODING 8715
SWIDTH 504 0
DWIDTH 7 0
BBX 6 7 1 0
BITMAP
F8
0C
04
FC
04
08
F0
ENDCHAR
STARTCHAR 220C
ENCODING 8716
SWIDTH 504 0
DWIDTH 7 0
BBX 6 10 1 -1
BITMAP
08
10
F8
1C
24
FC
24
48
F0
80
ENDCHAR
STARTCHAR 220E
ENCODING 8718
SWIDTH 504 0
DWIDTH 7 0
BBX 6 9 1 0
BITMAP
FC
FC
FC
FC
FC
FC
FC
FC
FC
ENDCHAR
STARTCHAR 220F
ENCODING 8719
SWIDTH 720 0
DWIDTH 10 0
BBX 9 10 1 -1
BITMAP
FF80
6300
6300
6300
6300
6300
6300
6300
6300
E380
ENDCHAR
STARTCHAR 2211
ENCODING 8721
SWIDTH 648 0
DWIDTH 9 0
BBX 8 10 1 -1
BITMAP
FE
E1
60
30
38
10
20
61
C3
FF
ENDCHAR
STARTCHAR 2212
ENCODING 8722
SWIDTH 504 0
DWIDTH 7 0
BBX 6 1 1 3
BITMAP
FC
ENDCHAR
STARTCHAR 2213
ENCODING 8723
SWIDTH 504 0
DWIDTH 7 0
BBX 6 7 1 0
BITMAP
FC
00
20
20
F8
20
20
ENDCHAR
STARTCHAR 2215
ENCODING 8725
SWIDTH 504 0
DWIDTH 7 0
BBX 4 10 2 -1
BITMAP
10
10
20
20
20
40
40
40
80
80
ENDCHAR
STARTCHAR 2216
ENCODING 8726
SWIDTH 504 0
DWIDTH 7 0
BBX 4 9 2 0
BITMAP
80
80
40
40
40
20
20
20
10
ENDCHAR
STARTCHAR 2217
ENCODING 8727
SWIDTH 504 0
DWIDTH 7 0
BBX 6 6 1 1
BITMAP
20
20
FC
30
EC
20
ENDCHAR
STARTCHAR 2218
ENCODING 8728
SWIDTH 504 0
DWIDTH 7 0
BBX 4 4 2 2
BITMAP
40
B0
90
F0
ENDCHAR
STARTCHAR 2219
ENCODING 8729
SWIDTH 504 0
DWIDTH 7 0
BBX 4 3 2 2
BITMAP
E0
F0
E0
ENDCHAR
STARTCHAR 221A
ENCODING 8730
SWIDTH 504 0
DWIDTH 7 0
BBX 9 14 0 -2
BITMAP
0380
0200
0200
0200
0400
0400
0400
0400
E800
3800
3800
3800
1800
1000
ENDCHAR
STARTCHAR 221D
ENCODING 8733
SWIDTH 720 0
DWIDTH 10 0
BBX 9 6 1 1
BITMAP
3080
F900
8E00
8600
8F00
7380
ENDCHAR
STARTCHAR 221E
ENCODING 8734
SWIDTH 936 0
DWIDTH 13 0
BBX 12 6 1 1
BITMAP
30C0
F920
8E20
8610
8F20
73E0
ENDCHAR
STARTCHAR 221F
ENCODING 8735
SWIDTH 504 0
DWIDTH 7 0
BBX 6 6 1 0
BITMAP
80
80
80
80
80
FC
ENDCHAR
STARTCHAR 2220
ENCODING 8736
SWIDTH 504 0
DWIDTH 7 0
BBX 7 6 0 0
BITMAP
0C
08
10
20
40
FE
ENDCHAR
STARTCHAR 2221
ENCODING 8737
SWIDTH 504 0
DWIDTH 7 0
BBX 7 6 0 0
BITMAP
0C
18
18
2C
44
FE
ENDCHAR
STARTCHAR 2222
ENCODING 8738
SWIDTH 504 0
DWIDTH 7 0
BBX 7 7 0 0
BITMAP
08
0E
38
C8
38
0E
08
ENDCHAR
STARTCHAR 2223
ENCODING 8739
SWIDTH 504 0
DWIDTH 7 0
BBX 1 13 3 -3
BITMAP
80
80
80
80
80
80
80
80
80
80
80
80
80
ENDCHAR
STARTCHAR 2224
ENCODING 8740
SWIDTH 504 0
DWIDTH 7 0
BBX 6 13 1 -3
BITMAP
20
20
20
20
20
2C
30
60
A0
20
20
20
20
ENDCHAR
STARTCHAR 2225
ENCODING 8741
SWIDTH 504 0
DWIDTH 7 0
BBX 4 13 2 -3
BITMAP
90
90
90
90
90
90
90
90
90
90
90
90
90
ENDCHAR
STARTCHAR 2226
ENCODING 8742
SWIDTH 504 0
DWIDTH 7 0
BBX 7 13 0 -3
BITMAP
24
24
24
24
26
26
3C
34
E4
24
24
24
24
ENDCHAR
STARTCHAR 2227
ENCODING 8743
SWIDTH 504 0
DWIDTH 7 0
BBX 7 7 0 0
BITMAP
10
18
28
24
44
42
82
ENDCHAR
STARTCHAR 2228
ENCODING 8744
SWIDTH 504 0
DWIDTH 7 0
BBX 7 7 0 0
BITMAP
82
42
44
24
28
18
10
ENDCHAR
STARTCHAR 2229
ENCODING 8745
SWIDTH 504 0
DWIDTH 7 0
BBX 6 7 1 0
BITMAP
70
8C
84
84
84
84
84
ENDCHAR
STARTCHAR 222A
ENCODING 8746
SWIDTH 504 0
DWIDTH 7 0
BBX 6 7 1 0
BITMAP
84
84
84
84
84
8C
70
ENDCHAR
STARTCHAR 222B
ENCODING 8747
SWIDTH 288 0
DWIDTH 4 0
BBX 5 12 0 -2
BITMAP
18
38
60
60
60
60
60
20
20
20
60
C0
ENDCHAR
STARTCHAR 222C
ENCODING 8748
SWIDTH 576 0
DWIDTH 8 0
BBX 8 12 0 -2
BITMAP
1B
3E
66
66
66
66
66
26
26
26
74
DC
ENDCHAR
STARTCHAR 222D
ENCODING 8749
SWIDTH 792 0
DWIDTH 11 0
BBX 12 12 0 -2
BITMAP
1B30
3E70
66C0
66C0
66C0
66C0
66C0
2640
2640
2640
74C0
DD80
ENDCHAR
STARTCHAR 222E
ENCODING 8750
SWIDTH 360 0
DWIDTH 5 0
BBX 6 12 0 -2
BITMAP
18
38
30
30
78
B4
B4
78
30
30
20
E0
ENDCHAR
STARTCHAR 222F
ENCODING 8751
SWIDTH 648 0
DWIDTH 9 0
BBX 9 12 0 -2
BITMAP
1980
3380
3600
3E00
7700
B680
B680
7780
3E00
3200
A600
CC00
ENDCHAR
STARTCHAR 2230
ENCODING 8752
SWIDTH 864 0
DWIDTH 12 0
BBX 12 12 0 -2
BITMAP
19B0
33E0
3660
3FE0
7670
B670
B670
7670
3FE0
3260
A740
CD80
ENDCHAR
STARTCHAR 2234
ENCODING 8756
SWIDTH 504 0
DWIDTH 7 0
BBX 6 5 1 0
BITMAP
30
30
00
CC
CC
ENDCHAR
STARTCHAR 2235
ENCODING 8757
SWIDTH 504 0
DWIDTH 7 0
BBX 6 5 1 0
BITMAP
CC
CC
00
30
30
ENDCHAR
STARTCHAR 2236
ENCODING 8758
SWIDTH 504 0
DWIDTH 7 0
BBX 2 6 3 1
BITMAP
80
C0
80
00
C0
C0
ENDCHAR
STARTCHAR 223C
ENCODING 8764
SWIDTH 504 0
DWIDTH 7 0
BBX 6 2 1 2
BITMAP
40
FC
ENDCHAR
STARTCHAR 223D
ENCODING 8765
SWIDTH 504 0
DWIDTH 7 0
BBX 6 3 1 2
BITMAP
08
FC
40
ENDCHAR
STARTCHAR 2241
ENCODING 8769
SWIDTH 504 0
DWIDTH 7 0
BBX 6 5 1 1
BITMAP
10
50
FC
20
20
ENDCHAR
STARTCHAR 2243
ENCODING 8771
SWIDTH 504 0
DWIDTH 7 0
BBX 6 4 1 2
BITMAP
E4
18
00
FC
ENDCHAR
STARTCHAR 2245
ENCODING 8773
SWIDTH 504 0
DWIDTH 7 0
BBX 6 5 1 2
BITMAP
FC
08
FC
00
FC
ENDCHAR
STARTCHAR 2248
ENCODING 8776
SWIDTH 504 0
DWIDTH 7 0
BBX 6 5 1 1
BITMAP
E4
98
00
F4
18
ENDCHAR
STARTCHAR 2249
ENCODING 8777
SWIDTH 504 0
DWIDTH 7 0
BBX 6 10 1 -1
BITMAP
08
08
10
F4
98
20
F4
38
40
40
ENDCHAR
STARTCHAR 2254
ENCODING 8788
SWIDTH 504 0
DWIDTH 7 0
BBX 7 5 0 1
BITMAP
40
5E
00
DE
40
ENDCHAR
STARTCHAR 2259
ENCODING 8793
SWIDTH 504 0
DWIDTH 7 0
BBX 6 8 1 2
BITMAP
30
30
48
C8
00
FC
00
FC
ENDCHAR
STARTCHAR 225C
ENCODING 8796
SWIDTH 504 0
DWIDTH 7 0
BBX 6 8 1 2
BITMAP
30
50
48
78
00
FC
00
FC
ENDCHAR
STARTCHAR 2260
ENCODING 8800
SWIDTH 504 0
DWIDTH 7 0
BBX 6 10 1 -1
BITMAP
08
08
10
10
FC
20
FC
20
40
40
ENDCHAR
STARTCHAR 2261
ENCODING 8801
SWIDTH 504 0
DWIDTH 7 0
BBX 6 5 1 1
BITMAP
FC
00
FC
00
FC
ENDCHAR
STARTCHAR 2262
ENCODING 8802
SWIDTH 504 0
DWIDTH 7 0
BBX 6 10 1 -1
BITMAP
08
08
10
FC
10
FC
20
FC
40
40
ENDCHAR
STARTCHAR 2263
ENCODING 8803
SWIDTH 504 0
DWIDTH 7 0
BBX 6 7 1 0
BITMAP
FC
00
FC
00
FC
00
FC
ENDCHAR
STARTCHAR 2264
ENCODING 8804
SWIDTH 504 0
DWIDTH 7 0
BBX 6 7 1 0
BITMAP
0C
30
C0
E0
18
04
FC
ENDCHAR
STARTCHAR 2265
ENCODING 8805
SWIDTH 504 0
DWIDTH 7 0
BBX 6 7 1 0
BITMAP
C0
30
0C
1C
60
80
FC
ENDCHAR
STARTCHAR 226A
ENCODING 8810
SWIDTH 504 0
DWIDTH 7 0
BBX 7 7 0 0
BITMAP
12
24
48
90
6C
36
12
ENDCHAR
STARTCHAR 226B
ENCODING 8811
SWIDTH 504 0
DWIDTH 7 0
BBX 8 7 0 0
BITMAP
D8
6C
36
13
26
48
80
ENDCHAR
STARTCHAR 2270
ENCODING 8816
SWIDTH 504 0
DWIDTH 7 0
BBX 6 10 1 -1
BITMAP
08
08
1C
30
D0
E0
38
44
FC
40
ENDCHAR
STARTCHAR 2271
ENCODING 8817
SWIDTH 504 0
DWIDTH 7 0
BBX 6 9 1 0
BITMAP
10
D0
30
2C
3C
60
C0
FC
80
ENDCHAR
STARTCHAR 2282
ENCODING 8834
SWIDTH 504 0
DWIDTH 7 0
BBX 6 7 1 0
BITMAP
7C
80
80
80
80
C0
3C
ENDCHAR
STARTCHAR 2283
ENCODING 8835
SWIDTH 504 0
DWIDTH 7 0
BBX 6 7 1 0
BITMAP
F8
0C
04
04
04
08
F0
ENDCHAR
STARTCHAR 2284
ENCODING 8836
SWIDTH 504 0
DWIDTH 7 0
BBX 6 9 1 0
BITMAP
08
7C
88
90
90
A0
E0
3C
40
ENDCHAR
STARTCHAR 2285
ENCODING 8837
SWIDTH 504 0
DWIDTH 7 0
BBX 6 9 1 0
BITMAP
10
F8
1C
24
24
24
48
F0
80
ENDCHAR
STARTCHAR 2286
ENCODING 8838
SWIDTH 504 0
DWIDTH 7 0
BBX 6 7 1 0
BITMAP
7C
80
80
80
7C
00
FC
ENDCHAR
STARTCHAR 2287
ENCODING 8839
SWIDTH 504 0
DWIDTH 7 0
BBX 6 7 1 0
BITMAP
F8
04
04
0C
F8
00
FC
ENDCHAR
STARTCHAR 2288
ENCODING 8840
SWIDTH 504 0
DWIDTH 7 0
BBX 6 10 1 -1
BITMAP
08
08
7C
90
90
A0
7C
20
FC
40
ENDCHAR
STARTCHAR 2289
ENCODING 8841
SWIDTH 504 0
DWIDTH 7 0
BBX 6 9 1 0
BITMAP
10
F8
14
24
2C
F8
40
FC
80
ENDCHAR
STARTCHAR 2295
ENCODING 8853
SWIDTH 504 0
DWIDTH 7 0
BBX 7 7 0 0
BITMAP
3C
46
52
BE
52
46
38
ENDCHAR
STARTCHAR 22C5
ENCODING 8901
SWIDTH 504 0
DWIDTH 7 0
BBX 2 2 3 3
BITMAP
C0
C0
ENDCHAR
STARTCHAR 2308
ENCODING 8968
SWIDTH 288 0
DWIDTH 4 0
BBX 4 14 0 -4
BITMAP
F0
C0
C0
C0
C0
C0
C0
C0
C0
C0
C0
C0
C0
C0
ENDCHAR
STARTCHAR 2309
ENCODING 8969
SWIDTH 288 0
DWIDTH 4 0
BBX 4 14 0 -4
BITMAP
F0
30
30
30
30
30
30
30
30
30
30
30
30
30
ENDCHAR
STARTCHAR 230A
ENCODING 8970
SWIDTH 288 0
DWIDTH 4 0
BBX 4 14 0 -4
BITMAP
C0
C0
C0
C0
C0
C0
C0
C0
C0
C0
C0
C0
C0
F0
ENDCHAR
STARTCHAR 230B
ENCODING 8971
SWIDTH 288 0
DWIDTH 4 0
BBX 4 14 0 -4
BITMAP
30
30
30
30
30
30
30
30
30
30
30
30
30
F0
ENDCHAR
STARTCHAR 23DE
ENCODING 9182
SWIDTH 792 0
DWIDTH 11 0
BBX 12 4 0 2
BITMAP
0600
7FE0
D9B0
8010
ENDCHAR
STARTCHAR 23DF
ENCODING 9183
SWIDTH 792 0
DWIDTH 11 0
BBX 12 4 0 1
BITMAP
8010
7FE0
7FE0
0600
ENDCHAR
STARTCHAR 25A0
ENCODING 9632
SWIDTH 720 0
DWIDTH 10 0
BBX 10 9 0 0
BITMAP
FFC0
FFC0
FFC0
FFC0
FFC0
FFC0
FFC0
FFC0
FFC0
ENDCHAR
STARTCHAR 25A1
ENCODING 9633
SWIDTH 720 0
DWIDTH 10 0
BBX 10 9 0 0
BITMAP
FFC0
8040
8040
8040
8040
8040
8040
8040
FFC0
ENDCHAR
STARTCHAR 25B2
ENCODING 9650
SWIDTH 792 0
DWIDTH 11 0
BBX 11 9 0 1
BITMAP
0600
0E00
0F00
1F00
3F80
3F80
7FC0
7FE0
FFE0
ENDCHAR
STARTCHAR 25B3
ENCODING 9651
SWIDTH 792 0
DWIDTH 11 0
BBX 11 9 0 1
BITMAP
0600
0A00
0900
1100
1080
2080
4040
4020
FFE0
ENDCHAR
STARTCHAR 25B6
ENCODING 9654
SWIDTH 720 0
DWIDTH 10 0
BBX 9 11 1 -1
BITMAP
8000
E000
F800
FE00
FF00
FF80
FF00
FC00
F000
C000
8000
ENDCHAR
STARTCHAR 25B7
ENCODING 9655
SWIDTH 720 0
DWIDTH 10 0
BBX 9 11 1 -1
BITMAP
8000
E000
9800
8600
8100
8080
8300
8C00
B000
C000
8000
ENDCHAR
STARTCHAR 25BC
ENCODING 9660
SWIDTH 792 0
DWIDTH 11 0
BBX 11 9 0 0
BITMAP
FFE0
7FC0
3FC0
3F80
1F80
1F00
0F00
0E00
0400
ENDCHAR
STARTCHAR 25BD
ENCODING 9661
SWIDTH 792 0
DWIDTH 11 0
BBX 11 9 0 0
BITMAP
FFE0
4040
2040
2080
1080
1100
0A00
0A00
0400
ENDCHAR
STARTCHAR 25C0
ENCODING 9664
SWIDTH 720 0
DWIDTH 10 0
BBX 10 10 0 -1
BITMAP
00C0
03C0
07C0
1FC0
7FC0
FFC0
3FC0
0FC0
07C0
01C0
ENDCHAR
STARTCHAR 25C1
ENCODING 9665
SWIDTH 720 0
DWIDTH 10 0
BBX 10 11 0 -1
BITMAP
00C0
0340
0440
1840
6040
C040
3040
0840
0640
01C0
0040
ENDCHAR
STARTCHAR 25C6
ENCODING 9670
SWIDTH 720 0
DWIDTH 10 0
BBX 9 9 1 1
BITMAP
1800
3C00
7E00
FF00
FF80
7F00
3E00
3C00
1800
ENDCHAR
STARTCHAR 25C7
ENCODING 9671
SWIDTH 720 0
DWIDTH 10 0
BBX 9 9 1 1
BITMAP
1800
2400
4200
8100
8180
4300
2600
3C00
1800
ENDCHAR
STARTCHAR 25CA
ENCODING 9674
SWIDTH 576 0
DWIDTH 8 0
BBX 8 9 0 1
BITMAP
18
3C
24
42
C3
42
24
18
10
ENDCHAR
STARTCHAR 26AD
ENCODING 9901
SWIDTH 936 0
DWIDTH 13 0
BBX 13 9 0 -1
BITMAP
0840
37B0
4308
4488
C488
4488
4308
2310
1CE0
ENDCHAR
STARTCHAR 26AE
ENCODING 9902
SWIDTH 1224 0
DWIDTH 17 0
BBX 17 11 0 -2
BITMAP
008000
1C8E00
23B100
41A080
40C080
C0C080
40C080
41A080
23B300
1C8C00
008000
ENDCHAR
STARTCHAR 26AF
ENCODING 9903
SWIDTH 1368 0
DWIDTH 19 0
BBX 19 9 0 -1
BITMAP
080200
370D80
411040
40A060
C0E020
40A060
411040
2318C0
1C0700
ENDCHAR
STARTCHAR 27C2
ENCODING 10178
SWIDTH 504 0
DWIDTH 7 0
BBX 7 7 0 0
BITMAP
10
10
10
10
10
10
FE
ENDCHAR
STARTCHAR 27E8
ENCODING 10216
SWIDTH 360 0
DWIDTH 5 0
BBX 5 14 0 -4
BITMAP
08
10
10
30
20
60
E0
60
60
30
10
10
08
08
ENDCHAR
STARTCHAR 27E9
ENCODING 10217
SWIDTH 360 0
DWIDTH 5 0
BBX 5 13 0 -4
BITMAP
80
40
40
20
20
30
18
10
30
20
60
40
40
ENDCHAR
STARTCHAR 2983
ENCODING 10627
SWIDTH 504 0
DWIDTH 7 0
BBX 6 14 1 -4
BITMAP
7C
58
58
58
78
58
98
D8
78
78
58
58
78
3C
ENDCHAR
STARTCHAR 2984
ENCODING 10628
SWIDTH 504 0
DWIDTH 7 0
BBX 6 14 1 -4
BITMAP
F8
68
68
78
78
78
64
68
78
78
68
68
78
F0
ENDCHAR
STARTCHAR 299B
ENCODING 10651
SWIDTH 504 0
DWIDTH 7 0
BBX 7 6 0 0
BITMAP
20
18
18
24
22
FE
ENDCHAR
STARTCHAR 299D
ENCODING 10653
SWIDTH 504 0
DWIDTH 7 0
BBX 6 6 1 0
BITMAP
80
E0
90
A8
88
FC
ENDCHAR
STARTCHAR 2A2F
ENCODING 10799
SWIDTH 504 0
DWIDTH 7 0
BBX 6 7 1 0
BITMAP
84
C8
70
30
50
C8
84
ENDCHAR
STARTCHAR 2B58
ENCODING 11096
SWIDTH 504 0
DWIDTH 7 0
BBX 7 7 0 0
BITMAP
3C
46
42
82
42
46
38
ENDCHAR
STARTCHAR 2E18
ENCODING 11800
SWIDTH 504 0
DWIDTH 7 0
BBX 6 10 1 -4
BITMAP
30
30
00
30
30
50
D0
F4
CC
30
ENDCHAR
STARTCHAR 2E22
ENCODING 11810
SWIDTH 288 0
DWIDTH 4 0
BBX 4 7 0 3
BITMAP
F0
C0
C0
C0
C0
C0
C0
ENDCHAR
STARTCHAR 2E23
ENCODING 11811
SWIDTH 288 0
DWIDTH 4 0
BBX 4 7 0 3
BITMAP
F0
30
30
30
30
30
30
ENDCHAR
STARTCHAR 2E24
ENCODING 11812
SWIDTH 288 0
DWIDTH 4 0
BBX 4 7 0 -4
BITMAP
C0
C0
C0
C0
C0
C0
F0
ENDCHAR
STARTCHAR 2E25
ENCODING 11813
SWIDTH 288 0
DWIDTH 4 0
BBX 4 7 0 -4
BITMAP
30
30
30
30
30
30
F0
ENDCHAR
STARTCHAR 2E3A
ENCODING 11834
SWIDTH 2016 0
DWIDTH 28 0
BBX 27 1 1 3
BITMAP
FFFFFFE0
ENDCHAR
STARTCHAR 2E3B
ENCODING 11835
SWIDTH 3024 0
DWIDTH 42 0
BBX 41 1 1 3
BITMAP
FFFFFFFFFF80
ENDCHAR
STARTCHAR FB01
ENCODING 64257
SWIDTH 648 0
DWIDTH 9 0
BBX 9 10 0 0
BITMAP
1F00
3300
2000
2000
FF80
2180
2180
2180
7180
7B80
ENDCHAR
STARTCHAR FB02
ENCODING 64258
SWIDTH 648 0
DWIDTH 9 0
BBX 10 10 0 0
BITMAP
1F80
3380
2180
2180
F980
2180
2180
2180
7180
7BC0
ENDCHAR
ENDFONT
